<?xml version="1.0" encoding="UTF-8" standalone="no"?>
<!DOCTYPE svg PUBLIC "-//W3C//DTD SVG 1.1//EN"
 "http://www.w3.org/Graphics/SVG/1.1/DTD/svg11.dtd">
<!-- Generated by graphviz version 2.40.1 (20161225.0304)
 -->
<!-- Title: dependencies Pages: 1 -->
<svg width="2517pt" height="284pt"
 viewBox="0.00 0.00 2517.00 284.00" xmlns="http://www.w3.org/2000/svg" xmlns:xlink="http://www.w3.org/1999/xlink">
<g id="graph0" class="graph" transform="scale(1 1) rotate(0) translate(4 280)">
<title>dependencies</title>
<polygon fill="#ffffff" stroke="transparent" points="-4,4 -4,-280 2513,-280 2513,4 -4,4"/>
<text text-anchor="start" x="1233.5091" y="-42.4" font-family="sans-serif" font-weight="bold" font-size="14.00" fill="#000000">Legend</text>
<polygon fill="#ffffb3" stroke="transparent" points="1020.5,-10 1020.5,-30 1040.5,-30 1040.5,-10 1020.5,-10"/>
<text text-anchor="start" x="1044.129" y="-15.4" font-family="sans-serif" font-size="14.00" fill="#000000"> &#160;Declarations</text>
<polygon fill="#8dd3c7" stroke="transparent" points="1133.5,-10 1133.5,-30 1153.5,-30 1153.5,-10 1133.5,-10"/>
<text text-anchor="start" x="1157.2251" y="-15.4" font-family="sans-serif" font-size="14.00" fill="#000000"> &#160;Module</text>
<polygon fill="#80b1d3" stroke="transparent" points="1219.5,-10 1219.5,-30 1239.5,-30 1239.5,-10 1219.5,-10"/>
<text text-anchor="start" x="1243.2812" y="-15.4" font-family="sans-serif" font-size="14.00" fill="#000000"> &#160;Bootstrap</text>
<polygon fill="#fdb462" stroke="transparent" points="1316.5,-10 1316.5,-30 1336.5,-30 1336.5,-10 1316.5,-10"/>
<text text-anchor="start" x="1340.1732" y="-15.4" font-family="sans-serif" font-size="14.00" fill="#000000"> &#160;Providers</text>
<polygon fill="#fb8072" stroke="transparent" points="1412.5,-10 1412.5,-30 1432.5,-30 1432.5,-10 1412.5,-10"/>
<text text-anchor="start" x="1436.2258" y="-15.4" font-family="sans-serif" font-size="14.00" fill="#000000"> &#160;Exports</text>
<g id="clust1" class="cluster">
<title>cluster_L10nIntlModule</title>
<polygon fill="none" stroke="#000000" stroke-dasharray="1,5" points="8,-70 8,-268 1556,-268 1556,-70 8,-70"/>
</g>
<g id="clust2" class="cluster">
<title>cluster_L10nIntlModule_declarations</title>
<polygon fill="none" stroke="#000000" points="188,-78 188,-130 1548,-130 1548,-78 188,-78"/>
</g>
<g id="clust13" class="cluster">
<title>cluster_L10nIntlModule_exports</title>
<polygon fill="none" stroke="#000000" points="90,-208 90,-260 1482,-260 1482,-208 90,-208"/>
</g>
<g id="clust15" class="cluster">
<title>cluster_L10nIntlModule_providers</title>
<polygon fill="none" stroke="#000000" points="16,-78 16,-130 180,-130 180,-78 16,-78"/>
</g>
<g id="clust22" class="cluster">
<title>cluster_L10nTranslationModule</title>
<polygon fill="none" stroke="#000000" stroke-dasharray="1,5" points="1564,-70 1564,-268 2074,-268 2074,-70 1564,-70"/>
</g>
<g id="clust23" class="cluster">
<title>cluster_L10nTranslationModule_declarations</title>
<polygon fill="none" stroke="#000000" points="1578,-78 1578,-130 2060,-130 2060,-78 1578,-78"/>
</g>
<g id="clust28" class="cluster">
<title>cluster_L10nTranslationModule_exports</title>
<polygon fill="none" stroke="#000000" points="1572,-208 1572,-260 2066,-260 2066,-208 1572,-208"/>
</g>
<g id="clust31" class="cluster">
<title>cluster_L10nValidationModule</title>
<polygon fill="none" stroke="#000000" stroke-dasharray="1,5" points="2082,-70 2082,-268 2501,-268 2501,-70 2082,-70"/>
</g>
<g id="clust32" class="cluster">
<title>cluster_L10nValidationModule_declarations</title>
<polygon fill="none" stroke="#000000" points="2094,-78 2094,-130 2490,-130 2490,-78 2094,-78"/>
</g>
<g id="clust36" class="cluster">
<title>cluster_L10nValidationModule_exports</title>
<polygon fill="none" stroke="#000000" points="2090,-208 2090,-260 2493,-260 2493,-208 2090,-208"/>
</g>
<!-- L10nDateAsyncPipe -->
<g id="node1" class="node">
<title>L10nDateAsyncPipe</title>
<polygon fill="#ffffb3" stroke="#000000" points="1540.1331,-122 1407.8669,-122 1407.8669,-86 1540.1331,-86 1540.1331,-122"/>
<text text-anchor="middle" x="1474" y="-99.8" font-family="Times,serif" font-size="14.00" fill="#000000">L10nDateAsyncPipe</text>
</g>
<!-- L10nIntlModule -->
<g id="node10" class="node">
<title>L10nIntlModule</title>
<polygon fill="#8dd3c7" stroke="#000000" points="863.0452,-187 860.0452,-191 839.0452,-191 836.0452,-187 754.9548,-187 754.9548,-151 863.0452,-151 863.0452,-187"/>
<text text-anchor="middle" x="809" y="-164.8" font-family="Times,serif" font-size="14.00" fill="#000000">L10nIntlModule</text>
</g>
<!-- L10nDateAsyncPipe&#45;&gt;L10nIntlModule -->
<g id="edge1" class="edge">
<title>L10nDateAsyncPipe&#45;&gt;L10nIntlModule</title>
<path fill="none" stroke="#000000" d="M1440.875,-122.302C1440.875,-140.2699 1440.875,-165 1440.875,-165 1440.875,-165 873.1465,-165 873.1465,-165"/>
<polygon fill="#000000" stroke="#000000" points="873.1465,-161.5001 863.1465,-165 873.1464,-168.5001 873.1465,-161.5001"/>
</g>
<!-- L10nDateDirective -->
<g id="node2" class="node">
<title>L10nDateDirective</title>
<polygon fill="#ffffb3" stroke="#000000" points="1390.0618,-122 1265.9382,-122 1265.9382,-86 1390.0618,-86 1390.0618,-122"/>
<text text-anchor="middle" x="1328" y="-99.8" font-family="Times,serif" font-size="14.00" fill="#000000">L10nDateDirective</text>
</g>
<!-- L10nDateDirective&#45;&gt;L10nIntlModule -->
<g id="edge2" class="edge">
<title>L10nDateDirective&#45;&gt;L10nIntlModule</title>
<path fill="none" stroke="#000000" d="M1292.875,-122.0352C1292.875,-138.7344 1292.875,-161 1292.875,-161 1292.875,-161 873.0981,-161 873.0981,-161"/>
<polygon fill="#000000" stroke="#000000" points="873.0982,-157.5001 863.0981,-161 873.0981,-164.5001 873.0982,-157.5001"/>
</g>
<!-- L10nDatePipe -->
<g id="node3" class="node">
<title>L10nDatePipe</title>
<polygon fill="#ffffb3" stroke="#000000" points="1248.3669,-122 1151.6331,-122 1151.6331,-86 1248.3669,-86 1248.3669,-122"/>
<text text-anchor="middle" x="1200" y="-99.8" font-family="Times,serif" font-size="14.00" fill="#000000">L10nDatePipe</text>
</g>
<!-- L10nDatePipe&#45;&gt;L10nIntlModule -->
<g id="edge3" class="edge">
<title>L10nDatePipe&#45;&gt;L10nIntlModule</title>
<path fill="none" stroke="#000000" d="M1162.875,-122.2819C1162.875,-137.9478 1162.875,-158 1162.875,-158 1162.875,-158 873.1312,-158 873.1312,-158"/>
<polygon fill="#000000" stroke="#000000" points="873.1312,-154.5001 863.1312,-158 873.1312,-161.5001 873.1312,-154.5001"/>
</g>
<!-- L10nNumberAsyncPipe -->
<g id="node4" class="node">
<title>L10nNumberAsyncPipe</title>
<polygon fill="#ffffb3" stroke="#000000" points="1134.0786,-122 981.9214,-122 981.9214,-86 1134.0786,-86 1134.0786,-122"/>
<text text-anchor="middle" x="1058" y="-99.8" font-family="Times,serif" font-size="14.00" fill="#000000">L10nNumberAsyncPipe</text>
</g>
<!-- L10nNumberAsyncPipe&#45;&gt;L10nIntlModule -->
<g id="edge4" class="edge">
<title>L10nNumberAsyncPipe&#45;&gt;L10nIntlModule</title>
<path fill="none" stroke="#000000" d="M1018.875,-122.1243C1018.875,-136.7832 1018.875,-155 1018.875,-155 1018.875,-155 873.048,-155 873.048,-155"/>
<polygon fill="#000000" stroke="#000000" points="873.0481,-151.5001 863.048,-155 873.048,-158.5001 873.0481,-151.5001"/>
</g>
<!-- L10nNumberDirective -->
<g id="node5" class="node">
<title>L10nNumberDirective</title>
<polygon fill="#ffffb3" stroke="#000000" points="963.5086,-122 820.4914,-122 820.4914,-86 963.5086,-86 963.5086,-122"/>
<text text-anchor="middle" x="892" y="-99.8" font-family="Times,serif" font-size="14.00" fill="#000000">L10nNumberDirective</text>
</g>
<!-- L10nNumberDirective&#45;&gt;L10nIntlModule -->
<g id="edge5" class="edge">
<title>L10nNumberDirective&#45;&gt;L10nIntlModule</title>
<path fill="none" stroke="#000000" d="M841.7591,-122.1061C841.7591,-122.1061 841.7591,-140.991 841.7591,-140.991"/>
<polygon fill="#000000" stroke="#000000" points="838.2592,-140.9909 841.7591,-150.991 845.2592,-140.991 838.2592,-140.9909"/>
</g>
<!-- L10nNumberPipe -->
<g id="node6" class="node">
<title>L10nNumberPipe</title>
<polygon fill="#ffffb3" stroke="#000000" points="802.3132,-122 685.6868,-122 685.6868,-86 802.3132,-86 802.3132,-122"/>
<text text-anchor="middle" x="744" y="-99.8" font-family="Times,serif" font-size="14.00" fill="#000000">L10nNumberPipe</text>
</g>
<!-- L10nNumberPipe&#45;&gt;L10nIntlModule -->
<g id="edge6" class="edge">
<title>L10nNumberPipe&#45;&gt;L10nIntlModule</title>
<path fill="none" stroke="#000000" d="M778.4422,-122.1061C778.4422,-122.1061 778.4422,-140.991 778.4422,-140.991"/>
<polygon fill="#000000" stroke="#000000" points="774.9422,-140.9909 778.4422,-150.991 781.9422,-140.991 774.9422,-140.9909"/>
</g>
<!-- L10nTimeAgoAsyncPipe -->
<g id="node7" class="node">
<title>L10nTimeAgoAsyncPipe</title>
<polygon fill="#ffffb3" stroke="#000000" points="667.8613,-122 508.1387,-122 508.1387,-86 667.8613,-86 667.8613,-122"/>
<text text-anchor="middle" x="588" y="-99.8" font-family="Times,serif" font-size="14.00" fill="#000000">L10nTimeAgoAsyncPipe</text>
</g>
<!-- L10nTimeAgoAsyncPipe&#45;&gt;L10nIntlModule -->
<g id="edge7" class="edge">
<title>L10nTimeAgoAsyncPipe&#45;&gt;L10nIntlModule</title>
<path fill="none" stroke="#000000" d="M633.0121,-122.1243C633.0121,-136.7832 633.0121,-155 633.0121,-155 633.0121,-155 744.7618,-155 744.7618,-155"/>
<polygon fill="#000000" stroke="#000000" points="744.7619,-158.5001 754.7618,-155 744.7618,-151.5001 744.7619,-158.5001"/>
</g>
<!-- L10nTimeAgoDirective -->
<g id="node8" class="node">
<title>L10nTimeAgoDirective</title>
<polygon fill="#ffffb3" stroke="#000000" points="489.7907,-122 338.2093,-122 338.2093,-86 489.7907,-86 489.7907,-122"/>
<text text-anchor="middle" x="414" y="-99.8" font-family="Times,serif" font-size="14.00" fill="#000000">L10nTimeAgoDirective</text>
</g>
<!-- L10nTimeAgoDirective&#45;&gt;L10nIntlModule -->
<g id="edge8" class="edge">
<title>L10nTimeAgoDirective&#45;&gt;L10nIntlModule</title>
<path fill="none" stroke="#000000" d="M452.9823,-122.0091C452.9823,-138.0494 452.9823,-159 452.9823,-159 452.9823,-159 744.9286,-159 744.9286,-159"/>
<polygon fill="#000000" stroke="#000000" points="744.9286,-162.5001 754.9286,-159 744.9285,-155.5001 744.9286,-162.5001"/>
</g>
<!-- L10nTimeAgoPipe -->
<g id="node9" class="node">
<title>L10nTimeAgoPipe</title>
<polygon fill="#ffffb3" stroke="#000000" points="320.0954,-122 195.9046,-122 195.9046,-86 320.0954,-86 320.0954,-122"/>
<text text-anchor="middle" x="258" y="-99.8" font-family="Times,serif" font-size="14.00" fill="#000000">L10nTimeAgoPipe</text>
</g>
<!-- L10nTimeAgoPipe&#45;&gt;L10nIntlModule -->
<g id="edge9" class="edge">
<title>L10nTimeAgoPipe&#45;&gt;L10nIntlModule</title>
<path fill="none" stroke="#000000" d="M281.8263,-122.0225C281.8263,-139.3734 281.8263,-163 281.8263,-163 281.8263,-163 744.5687,-163 744.5687,-163"/>
<polygon fill="#000000" stroke="#000000" points="744.5688,-166.5001 754.5687,-163 744.5687,-159.5001 744.5688,-166.5001"/>
</g>
<!-- L10nDateAsyncPipe  -->
<g id="node11" class="node">
<title>L10nDateAsyncPipe </title>
<polygon fill="#fb8072" stroke="#000000" points="1474.1327,-252 1337.8673,-252 1337.8673,-216 1474.1327,-216 1474.1327,-252"/>
<text text-anchor="middle" x="1406" y="-229.8" font-family="Times,serif" font-size="14.00" fill="#000000">L10nDateAsyncPipe </text>
</g>
<!-- L10nIntlModule&#45;&gt;L10nDateAsyncPipe  -->
<g id="edge10" class="edge">
<title>L10nIntlModule&#45;&gt;L10nDateAsyncPipe </title>
<path fill="none" stroke="#000000" stroke-dasharray="5,2" d="M863.2245,-168C1002.8725,-168 1363.9823,-168 1363.9823,-168 1363.9823,-168 1363.9823,-205.9652 1363.9823,-205.9652"/>
<polygon fill="#000000" stroke="#000000" points="1360.4824,-205.9652 1363.9823,-215.9652 1367.4824,-205.9652 1360.4824,-205.9652"/>
</g>
<!-- L10nDateDirective  -->
<g id="node12" class="node">
<title>L10nDateDirective </title>
<polygon fill="#fb8072" stroke="#000000" points="1319.5626,-252 1192.4374,-252 1192.4374,-216 1319.5626,-216 1319.5626,-252"/>
<text text-anchor="middle" x="1256" y="-229.8" font-family="Times,serif" font-size="14.00" fill="#000000">L10nDateDirective </text>
</g>
<!-- L10nIntlModule&#45;&gt;L10nDateDirective  -->
<g id="edge11" class="edge">
<title>L10nIntlModule&#45;&gt;L10nDateDirective </title>
<path fill="none" stroke="#000000" stroke-dasharray="5,2" d="M863.1967,-171C974.8896,-171 1220.3263,-171 1220.3263,-171 1220.3263,-171 1220.3263,-205.7778 1220.3263,-205.7778"/>
<polygon fill="#000000" stroke="#000000" points="1216.8263,-205.7778 1220.3263,-215.7778 1223.8263,-205.7778 1216.8263,-205.7778"/>
</g>
<!-- L10nDatePipe  -->
<g id="node13" class="node">
<title>L10nDatePipe </title>
<polygon fill="#fb8072" stroke="#000000" points="1174.3675,-252 1073.6325,-252 1073.6325,-216 1174.3675,-216 1174.3675,-252"/>
<text text-anchor="middle" x="1124" y="-229.8" font-family="Times,serif" font-size="14.00" fill="#000000">L10nDatePipe </text>
</g>
<!-- L10nIntlModule&#45;&gt;L10nDatePipe  -->
<g id="edge12" class="edge">
<title>L10nIntlModule&#45;&gt;L10nDatePipe </title>
<path fill="none" stroke="#000000" stroke-dasharray="5,2" d="M863.0943,-174C948.2375,-174 1103.928,-174 1103.928,-174 1103.928,-174 1103.928,-205.998 1103.928,-205.998"/>
<polygon fill="#000000" stroke="#000000" points="1100.428,-205.998 1103.928,-215.998 1107.428,-205.9981 1100.428,-205.998"/>
</g>
<!-- L10nNumberAsyncPipe  -->
<g id="node14" class="node">
<title>L10nNumberAsyncPipe </title>
<polygon fill="#fb8072" stroke="#000000" points="1055.5792,-252 900.4208,-252 900.4208,-216 1055.5792,-216 1055.5792,-252"/>
<text text-anchor="middle" x="978" y="-229.8" font-family="Times,serif" font-size="14.00" fill="#000000">L10nNumberAsyncPipe </text>
</g>
<!-- L10nIntlModule&#45;&gt;L10nNumberAsyncPipe  -->
<g id="edge13" class="edge">
<title>L10nIntlModule&#45;&gt;L10nNumberAsyncPipe </title>
<path fill="none" stroke="#000000" stroke-dasharray="5,2" d="M863.2998,-178C896.2451,-178 931.9823,-178 931.9823,-178 931.9823,-178 931.9823,-205.973 931.9823,-205.973"/>
<polygon fill="#000000" stroke="#000000" points="928.4824,-205.973 931.9823,-215.973 935.4824,-205.973 928.4824,-205.973"/>
</g>
<!-- L10nNumberDirective  -->
<g id="node15" class="node">
<title>L10nNumberDirective </title>
<polygon fill="#fb8072" stroke="#000000" points="882.5078,-252 735.4922,-252 735.4922,-216 882.5078,-216 882.5078,-252"/>
<text text-anchor="middle" x="809" y="-229.8" font-family="Times,serif" font-size="14.00" fill="#000000">L10nNumberDirective </text>
</g>
<!-- L10nIntlModule&#45;&gt;L10nNumberDirective  -->
<g id="edge14" class="edge">
<title>L10nIntlModule&#45;&gt;L10nNumberDirective </title>
<path fill="none" stroke="#000000" stroke-dasharray="5,2" d="M809,-187.1061C809,-187.1061 809,-205.991 809,-205.991"/>
<polygon fill="#000000" stroke="#000000" points="805.5001,-205.9909 809,-215.991 812.5001,-205.991 805.5001,-205.9909"/>
</g>
<!-- L10nNumberPipe  -->
<g id="node16" class="node">
<title>L10nNumberPipe </title>
<polygon fill="#fb8072" stroke="#000000" points="717.8129,-252 598.1871,-252 598.1871,-216 717.8129,-216 717.8129,-252"/>
<text text-anchor="middle" x="658" y="-229.8" font-family="Times,serif" font-size="14.00" fill="#000000">L10nNumberPipe </text>
</g>
<!-- L10nIntlModule&#45;&gt;L10nNumberPipe  -->
<g id="edge15" class="edge">
<title>L10nIntlModule&#45;&gt;L10nNumberPipe </title>
<path fill="none" stroke="#000000" stroke-dasharray="5,2" d="M754.8098,-183C728.2394,-183 701.875,-183 701.875,-183 701.875,-183 701.875,-205.8757 701.875,-205.8757"/>
<polygon fill="#000000" stroke="#000000" points="698.3751,-205.8757 701.875,-215.8757 705.3751,-205.8757 698.3751,-205.8757"/>
</g>
<!-- L10nTimeAgoAsyncPipe  -->
<g id="node17" class="node">
<title>L10nTimeAgoAsyncPipe </title>
<polygon fill="#fb8072" stroke="#000000" points="579.8616,-252 416.1384,-252 416.1384,-216 579.8616,-216 579.8616,-252"/>
<text text-anchor="middle" x="498" y="-229.8" font-family="Times,serif" font-size="14.00" fill="#000000">L10nTimeAgoAsyncPipe </text>
</g>
<!-- L10nIntlModule&#45;&gt;L10nTimeAgoAsyncPipe  -->
<g id="edge16" class="edge">
<title>L10nIntlModule&#45;&gt;L10nTimeAgoAsyncPipe </title>
<path fill="none" stroke="#000000" stroke-dasharray="5,2" d="M754.7082,-179C677.1424,-179 543.875,-179 543.875,-179 543.875,-179 543.875,-205.9909 543.875,-205.9909"/>
<polygon fill="#000000" stroke="#000000" points="540.3751,-205.9909 543.875,-215.9909 547.3751,-205.991 540.3751,-205.9909"/>
</g>
<!-- L10nTimeAgoDirective  -->
<g id="node18" class="node">
<title>L10nTimeAgoDirective </title>
<polygon fill="#fb8072" stroke="#000000" points="398.2905,-252 243.7095,-252 243.7095,-216 398.2905,-216 398.2905,-252"/>
<text text-anchor="middle" x="321" y="-229.8" font-family="Times,serif" font-size="14.00" fill="#000000">L10nTimeAgoDirective </text>
</g>
<!-- L10nIntlModule&#45;&gt;L10nTimeAgoDirective  -->
<g id="edge17" class="edge">
<title>L10nIntlModule&#45;&gt;L10nTimeAgoDirective </title>
<path fill="none" stroke="#000000" stroke-dasharray="5,2" d="M754.5288,-175C636.6392,-175 368.375,-175 368.375,-175 368.375,-175 368.375,-205.9775 368.375,-205.9775"/>
<polygon fill="#000000" stroke="#000000" points="364.8751,-205.9774 368.375,-215.9775 371.8751,-205.9775 364.8751,-205.9774"/>
</g>
<!-- L10nTimeAgoPipe  -->
<g id="node19" class="node">
<title>L10nTimeAgoPipe </title>
<polygon fill="#fb8072" stroke="#000000" points="225.596,-252 98.404,-252 98.404,-216 225.596,-216 225.596,-252"/>
<text text-anchor="middle" x="162" y="-229.8" font-family="Times,serif" font-size="14.00" fill="#000000">L10nTimeAgoPipe </text>
</g>
<!-- L10nIntlModule&#45;&gt;L10nTimeAgoPipe  -->
<g id="edge18" class="edge">
<title>L10nIntlModule&#45;&gt;L10nTimeAgoPipe </title>
<path fill="none" stroke="#000000" stroke-dasharray="5,2" d="M754.8655,-171C607.6316,-171 210.875,-171 210.875,-171 210.875,-171 210.875,-205.7778 210.875,-205.7778"/>
<polygon fill="#000000" stroke="#000000" points="207.3751,-205.7778 210.875,-215.7778 214.3751,-205.7778 207.3751,-205.7778"/>
</g>
<!-- L10nIntlService -->
<g id="node20" class="node">
<title>L10nIntlService</title>
<ellipse fill="#fdb462" stroke="#000000" cx="98" cy="-104" rx="73.5753" ry="18"/>
<text text-anchor="middle" x="98" y="-99.8" font-family="Times,serif" font-size="14.00" fill="#000000">L10nIntlService</text>
</g>
<!-- L10nIntlService&#45;&gt;L10nIntlModule -->
<g id="edge19" class="edge">
<title>L10nIntlService&#45;&gt;L10nIntlModule</title>
<path fill="none" stroke="#000000" d="M134.9948,-119.8976C134.9948,-138.5608 134.9948,-167 134.9948,-167 134.9948,-167 744.6988,-167 744.6988,-167"/>
<polygon fill="#000000" stroke="#000000" points="744.6988,-170.5001 754.6988,-167 744.6987,-163.5001 744.6988,-170.5001"/>
</g>
<!-- L10nTranslateAsyncPipe -->
<g id="node21" class="node">
<title>L10nTranslateAsyncPipe</title>
<polygon fill="#ffffb3" stroke="#000000" points="2052.2893,-122 1893.7107,-122 1893.7107,-86 2052.2893,-86 2052.2893,-122"/>
<text text-anchor="middle" x="1973" y="-99.8" font-family="Times,serif" font-size="14.00" fill="#000000">L10nTranslateAsyncPipe</text>
</g>
<!-- L10nTranslationModule -->
<g id="node24" class="node">
<title>L10nTranslationModule</title>
<polygon fill="#8dd3c7" stroke="#000000" points="1877.3613,-187 1874.3613,-191 1853.3613,-191 1850.3613,-187 1724.6387,-187 1724.6387,-151 1877.3613,-151 1877.3613,-187"/>
<text text-anchor="middle" x="1801" y="-164.8" font-family="Times,serif" font-size="14.00" fill="#000000">L10nTranslationModule</text>
</g>
<!-- L10nTranslateAsyncPipe&#45;&gt;L10nTranslationModule -->
<g id="edge20" class="edge">
<title>L10nTranslateAsyncPipe&#45;&gt;L10nTranslationModule</title>
<path fill="none" stroke="#000000" d="M2000.1315,-122.0225C2000.1315,-139.3734 2000.1315,-163 2000.1315,-163 2000.1315,-163 1887.4199,-163 1887.4199,-163"/>
<polygon fill="#000000" stroke="#000000" points="1887.42,-159.5001 1877.4199,-163 1887.4199,-166.5001 1887.42,-159.5001"/>
</g>
<!-- L10nTranslateDirective -->
<g id="node22" class="node">
<title>L10nTranslateDirective</title>
<polygon fill="#ffffb3" stroke="#000000" points="1875.7185,-122 1726.2815,-122 1726.2815,-86 1875.7185,-86 1875.7185,-122"/>
<text text-anchor="middle" x="1801" y="-99.8" font-family="Times,serif" font-size="14.00" fill="#000000">L10nTranslateDirective</text>
</g>
<!-- L10nTranslateDirective&#45;&gt;L10nTranslationModule -->
<g id="edge21" class="edge">
<title>L10nTranslateDirective&#45;&gt;L10nTranslationModule</title>
<path fill="none" stroke="#000000" d="M1801,-122.1061C1801,-122.1061 1801,-140.991 1801,-140.991"/>
<polygon fill="#000000" stroke="#000000" points="1797.5001,-140.9909 1801,-150.991 1804.5001,-140.991 1797.5001,-140.9909"/>
</g>
<!-- L10nTranslatePipe -->
<g id="node23" class="node">
<title>L10nTranslatePipe</title>
<polygon fill="#ffffb3" stroke="#000000" points="1708.0241,-122 1585.9759,-122 1585.9759,-86 1708.0241,-86 1708.0241,-122"/>
<text text-anchor="middle" x="1647" y="-99.8" font-family="Times,serif" font-size="14.00" fill="#000000">L10nTranslatePipe</text>
</g>
<!-- L10nTranslatePipe&#45;&gt;L10nTranslationModule -->
<g id="edge22" class="edge">
<title>L10nTranslatePipe&#45;&gt;L10nTranslationModule</title>
<path fill="none" stroke="#000000" d="M1665.9205,-122.2479C1665.9205,-145.0179 1665.9205,-181 1665.9205,-181 1665.9205,-181 1714.3827,-181 1714.3827,-181"/>
<polygon fill="#000000" stroke="#000000" points="1714.3828,-184.5001 1724.3827,-181 1714.3827,-177.5001 1714.3828,-184.5001"/>
</g>
<!-- L10nTranslateAsyncPipe  -->
<g id="node25" class="node">
<title>L10nTranslateAsyncPipe </title>
<polygon fill="#fb8072" stroke="#000000" points="2057.7891,-252 1896.2109,-252 1896.2109,-216 2057.7891,-216 2057.7891,-252"/>
<text text-anchor="middle" x="1977" y="-229.8" font-family="Times,serif" font-size="14.00" fill="#000000">L10nTranslateAsyncPipe </text>
</g>
<!-- L10nTranslationModule&#45;&gt;L10nTranslateAsyncPipe  -->
<g id="edge23" class="edge">
<title>L10nTranslationModule&#45;&gt;L10nTranslateAsyncPipe </title>
<path fill="none" stroke="#000000" stroke-dasharray="5,2" d="M1877.5756,-175C1913.3228,-175 1948.1185,-175 1948.1185,-175 1948.1185,-175 1948.1185,-205.9775 1948.1185,-205.9775"/>
<polygon fill="#000000" stroke="#000000" points="1944.6186,-205.9774 1948.1185,-215.9775 1951.6186,-205.9775 1944.6186,-205.9774"/>
</g>
<!-- L10nTranslateDirective  -->
<g id="node26" class="node">
<title>L10nTranslateDirective </title>
<polygon fill="#fb8072" stroke="#000000" points="1877.7184,-252 1724.2816,-252 1724.2816,-216 1877.7184,-216 1877.7184,-252"/>
<text text-anchor="middle" x="1801" y="-229.8" font-family="Times,serif" font-size="14.00" fill="#000000">L10nTranslateDirective </text>
</g>
<!-- L10nTranslationModule&#45;&gt;L10nTranslateDirective  -->
<g id="edge24" class="edge">
<title>L10nTranslationModule&#45;&gt;L10nTranslateDirective </title>
<path fill="none" stroke="#000000" stroke-dasharray="5,2" d="M1801,-187.1061C1801,-187.1061 1801,-205.991 1801,-205.991"/>
<polygon fill="#000000" stroke="#000000" points="1797.5001,-205.9909 1801,-215.991 1804.5001,-205.991 1797.5001,-205.9909"/>
</g>
<!-- L10nTranslatePipe  -->
<g id="node27" class="node">
<title>L10nTranslatePipe </title>
<polygon fill="#fb8072" stroke="#000000" points="1706.0232,-252 1579.9768,-252 1579.9768,-216 1706.0232,-216 1706.0232,-252"/>
<text text-anchor="middle" x="1643" y="-229.8" font-family="Times,serif" font-size="14.00" fill="#000000">L10nTranslatePipe </text>
</g>
<!-- L10nTranslationModule&#45;&gt;L10nTranslatePipe  -->
<g id="edge25" class="edge">
<title>L10nTranslationModule&#45;&gt;L10nTranslatePipe </title>
<path fill="none" stroke="#000000" stroke-dasharray="5,2" d="M1724.4225,-184C1677.2868,-184 1625.8295,-184 1625.8295,-184 1625.8295,-184 1625.8295,-205.9489 1625.8295,-205.9489"/>
<polygon fill="#000000" stroke="#000000" points="1622.3296,-205.9488 1625.8295,-215.9489 1629.3296,-205.9489 1622.3296,-205.9488"/>
</g>
<!-- L10nValidateDateDirective -->
<g id="node28" class="node">
<title>L10nValidateDateDirective</title>
<polygon fill="#ffffb3" stroke="#000000" points="2481.9847,-122 2310.0153,-122 2310.0153,-86 2481.9847,-86 2481.9847,-122"/>
<text text-anchor="middle" x="2396" y="-99.8" font-family="Times,serif" font-size="14.00" fill="#000000">L10nValidateDateDirective</text>
</g>
<!-- L10nValidationModule -->
<g id="node30" class="node">
<title>L10nValidationModule</title>
<polygon fill="#8dd3c7" stroke="#000000" points="2272.2007,-187 2269.2007,-191 2248.2007,-191 2245.2007,-187 2123.7993,-187 2123.7993,-151 2272.2007,-151 2272.2007,-187"/>
<text text-anchor="middle" x="2198" y="-164.8" font-family="Times,serif" font-size="14.00" fill="#000000">L10nValidationModule</text>
</g>
<!-- L10nValidateDateDirective&#45;&gt;L10nValidationModule -->
<g id="edge26" class="edge">
<title>L10nValidateDateDirective&#45;&gt;L10nValidationModule</title>
<path fill="none" stroke="#000000" d="M2424.664,-122.0225C2424.664,-139.3734 2424.664,-163 2424.664,-163 2424.664,-163 2282.2183,-163 2282.2183,-163"/>
<polygon fill="#000000" stroke="#000000" points="2282.2183,-159.5001 2272.2183,-163 2282.2182,-166.5001 2282.2183,-159.5001"/>
</g>
<!-- L10nValidateNumberDirective -->
<g id="node29" class="node">
<title>L10nValidateNumberDirective</title>
<polygon fill="#ffffb3" stroke="#000000" points="2292.43,-122 2101.57,-122 2101.57,-86 2292.43,-86 2292.43,-122"/>
<text text-anchor="middle" x="2197" y="-99.8" font-family="Times,serif" font-size="14.00" fill="#000000">L10nValidateNumberDirective</text>
</g>
<!-- L10nValidateNumberDirective&#45;&gt;L10nValidationModule -->
<g id="edge27" class="edge">
<title>L10nValidateNumberDirective&#45;&gt;L10nValidationModule</title>
<path fill="none" stroke="#000000" d="M2198,-122.1061C2198,-122.1061 2198,-140.991 2198,-140.991"/>
<polygon fill="#000000" stroke="#000000" points="2194.5001,-140.9909 2198,-150.991 2201.5001,-140.991 2194.5001,-140.9909"/>
</g>
<!-- L10nValidateDateDirective  -->
<g id="node31" class="node">
<title>L10nValidateDateDirective </title>
<polygon fill="#fb8072" stroke="#000000" points="2485.484,-252 2310.516,-252 2310.516,-216 2485.484,-216 2485.484,-252"/>
<text text-anchor="middle" x="2398" y="-229.8" font-family="Times,serif" font-size="14.00" fill="#000000">L10nValidateDateDirective </text>
</g>
<!-- L10nValidationModule&#45;&gt;L10nValidateDateDirective  -->
<g id="edge28" class="edge">
<title>L10nValidationModule&#45;&gt;L10nValidateDateDirective </title>
<path fill="none" stroke="#000000" stroke-dasharray="5,2" d="M2272.3829,-175C2317.9485,-175 2367.586,-175 2367.586,-175 2367.586,-175 2367.586,-205.9775 2367.586,-205.9775"/>
<polygon fill="#000000" stroke="#000000" points="2364.0861,-205.9774 2367.586,-215.9775 2371.0861,-205.9775 2364.0861,-205.9774"/>
</g>
<!-- L10nValidateNumberDirective  -->
<g id="node32" class="node">
<title>L10nValidateNumberDirective </title>
<polygon fill="#fb8072" stroke="#000000" points="2292.4305,-252 2097.5695,-252 2097.5695,-216 2292.4305,-216 2292.4305,-252"/>
<text text-anchor="middle" x="2195" y="-229.8" font-family="Times,serif" font-size="14.00" fill="#000000">L10nValidateNumberDirective </text>
</g>
<!-- L10nValidationModule&#45;&gt;L10nValidateNumberDirective  -->
<g id="edge29" class="edge">
<title>L10nValidationModule&#45;&gt;L10nValidateNumberDirective </title>
<path fill="none" stroke="#000000" stroke-dasharray="5,2" d="M2198,-187.1061C2198,-187.1061 2198,-205.991 2198,-205.991"/>
<polygon fill="#000000" stroke="#000000" points="2194.5001,-205.9909 2198,-215.991 2201.5001,-205.991 2194.5001,-205.9909"/>
</g>
</g>
</svg>
