<?xml version="1.0" encoding="UTF-8" standalone="no"?>
<!DOCTYPE svg PUBLIC "-//W3C//DTD SVG 1.1//EN"
 "http://www.w3.org/Graphics/SVG/1.1/DTD/svg11.dtd">
<!-- Generated by graphviz version 2.47.3 (20210619.1520)
 -->
<!-- Title: dependencies Pages: 1 -->
<svg width="4867pt" height="315pt"
 viewBox="0.00 0.00 4867.00 314.80" xmlns="http://www.w3.org/2000/svg" xmlns:xlink="http://www.w3.org/1999/xlink">
<g id="graph0" class="graph" transform="scale(1 1) rotate(0) translate(4 310.8)">
<title>dependencies</title>
<polygon fill="white" stroke="transparent" points="-4,4 -4,-310.8 4863,-310.8 4863,4 -4,4"/>
<text text-anchor="middle" x="2429.5" y="-8.2" font-family="sans-serif" font-size="14.00">dependencies</text>
<g id="clust1" class="cluster">
<title>cluster_L10nIntlModule</title>
<polygon fill="none" stroke="black" stroke-dasharray="1,5" points="8,-32.8 8,-230.8 2559,-230.8 2559,-32.8 8,-32.8"/>
</g>
<g id="clust2" class="cluster">
<title>cluster_L10nIntlModule_declarations</title>
<polygon fill="none" stroke="black" points="188,-40.8 188,-92.8 2551,-92.8 2551,-40.8 188,-40.8"/>
</g>
<g id="clust19" class="cluster">
<title>cluster_L10nIntlModule_exports</title>
<polygon fill="none" stroke="black" points="75,-170.8 75,-222.8 2491,-222.8 2491,-170.8 75,-170.8"/>
</g>
<g id="clust21" class="cluster">
<title>cluster_L10nIntlModule_providers</title>
<polygon fill="none" stroke="black" points="16,-40.8 16,-92.8 180,-92.8 180,-40.8 16,-40.8"/>
</g>
<g id="clust28" class="cluster">
<title>cluster_L10nTranslationModule</title>
<polygon fill="none" stroke="black" stroke-dasharray="1,5" points="2567,-32.8 2567,-230.8 3077,-230.8 3077,-32.8 2567,-32.8"/>
</g>
<g id="clust29" class="cluster">
<title>cluster_L10nTranslationModule_declarations</title>
<polygon fill="none" stroke="black" points="2581,-40.8 2581,-92.8 3063,-92.8 3063,-40.8 2581,-40.8"/>
</g>
<g id="clust34" class="cluster">
<title>cluster_L10nTranslationModule_exports</title>
<polygon fill="none" stroke="black" points="2575,-170.8 2575,-222.8 3069,-222.8 3069,-170.8 2575,-170.8"/>
</g>
<g id="clust37" class="cluster">
<title>cluster_L10nValidationModule</title>
<polygon fill="none" stroke="black" stroke-dasharray="1,5" points="3085,-32.8 3085,-298.8 4851,-298.8 4851,-32.8 3085,-32.8"/>
</g>
<g id="clust38" class="cluster">
<title>cluster_L10nValidationModule_declarations</title>
<polygon fill="none" stroke="black" points="3772,-105.8 3772,-157.8 4168,-157.8 4168,-105.8 3772,-105.8"/>
</g>
<g id="clust39" class="cluster">
<title>cluster_L10nValidationModule_L10nValidateDateDirective_providers</title>
<polygon fill="none" stroke="black" points="3985,-40.8 3985,-92.8 4843,-92.8 4843,-40.8 3985,-40.8"/>
</g>
<g id="clust40" class="cluster">
<title>cluster_L10nValidationModule_L10nValidateNumberDirective_providers</title>
<polygon fill="none" stroke="black" points="3093,-40.8 3093,-92.8 3977,-92.8 3977,-40.8 3093,-40.8"/>
</g>
<g id="clust42" class="cluster">
<title>cluster_L10nValidationModule_exports</title>
<polygon fill="none" stroke="black" points="3768,-238.8 3768,-290.8 4171,-290.8 4171,-238.8 3768,-238.8"/>
</g>
<!-- L10nDateAsyncPipe -->
<g id="node1" class="node">
<title>L10nDateAsyncPipe</title>
<polygon fill="#ffffb3" stroke="black" points="2543.13,-84.8 2410.87,-84.8 2410.87,-48.8 2543.13,-48.8 2543.13,-84.8"/>
<text text-anchor="middle" x="2477" y="-62.6" font-family="Times,serif" font-size="14.00">L10nDateAsyncPipe</text>
</g>
<!-- L10nIntlModule -->
<g id="node16" class="node">
<title>L10nIntlModule</title>
<polygon fill="#8dd3c7" stroke="black" points="1286.05,-149.8 1283.05,-153.8 1262.05,-153.8 1259.05,-149.8 1177.95,-149.8 1177.95,-113.8 1286.05,-113.8 1286.05,-149.8"/>
<text text-anchor="middle" x="1232" y="-127.6" font-family="Times,serif" font-size="14.00">L10nIntlModule</text>
</g>
<!-- L10nDateAsyncPipe&#45;&gt;L10nIntlModule -->
<g id="edge1" class="edge">
<title>L10nDateAsyncPipe&#45;&gt;L10nIntlModule</title>
<path fill="none" stroke="black" d="M2446.88,-85.07C2446.88,-103.36 2446.88,-128.8 2446.88,-128.8 2446.88,-128.8 1296.16,-128.8 1296.16,-128.8"/>
<polygon fill="black" stroke="black" points="1296.16,-125.3 1286.16,-128.8 1296.16,-132.3 1296.16,-125.3"/>
</g>
<!-- L10nDateDirective -->
<g id="node2" class="node">
<title>L10nDateDirective</title>
<polygon fill="#ffffb3" stroke="black" points="2393.06,-84.8 2268.94,-84.8 2268.94,-48.8 2393.06,-48.8 2393.06,-84.8"/>
<text text-anchor="middle" x="2331" y="-62.6" font-family="Times,serif" font-size="14.00">L10nDateDirective</text>
</g>
<!-- L10nDateDirective&#45;&gt;L10nIntlModule -->
<g id="edge2" class="edge">
<title>L10nDateDirective&#45;&gt;L10nIntlModule</title>
<path fill="none" stroke="black" d="M2298.88,-84.8C2298.88,-102.48 2298.88,-126.8 2298.88,-126.8 2298.88,-126.8 1296.37,-126.8 1296.37,-126.8"/>
<polygon fill="black" stroke="black" points="1296.37,-123.3 1286.37,-126.8 1296.37,-130.3 1296.37,-123.3"/>
</g>
<!-- L10nDatePipe -->
<g id="node3" class="node">
<title>L10nDatePipe</title>
<polygon fill="#ffffb3" stroke="black" points="2251.37,-84.8 2154.63,-84.8 2154.63,-48.8 2251.37,-48.8 2251.37,-84.8"/>
<text text-anchor="middle" x="2203" y="-62.6" font-family="Times,serif" font-size="14.00">L10nDatePipe</text>
</g>
<!-- L10nDatePipe&#45;&gt;L10nIntlModule -->
<g id="edge3" class="edge">
<title>L10nDatePipe&#45;&gt;L10nIntlModule</title>
<path fill="none" stroke="black" d="M2168.88,-84.83C2168.88,-101.86 2168.88,-124.8 2168.88,-124.8 2168.88,-124.8 1296.08,-124.8 1296.08,-124.8"/>
<polygon fill="black" stroke="black" points="1296.08,-121.3 1286.08,-124.8 1296.08,-128.3 1296.08,-121.3"/>
</g>
<!-- L10nDisplayNamesAsyncPipe -->
<g id="node4" class="node">
<title>L10nDisplayNamesAsyncPipe</title>
<polygon fill="#ffffb3" stroke="black" points="2136.12,-84.8 1947.88,-84.8 1947.88,-48.8 2136.12,-48.8 2136.12,-84.8"/>
<text text-anchor="middle" x="2042" y="-62.6" font-family="Times,serif" font-size="14.00">L10nDisplayNamesAsyncPipe</text>
</g>
<!-- L10nDisplayNamesAsyncPipe&#45;&gt;L10nIntlModule -->
<g id="edge4" class="edge">
<title>L10nDisplayNamesAsyncPipe&#45;&gt;L10nIntlModule</title>
<path fill="none" stroke="black" d="M2006.38,-84.83C2006.38,-101.2 2006.38,-122.8 2006.38,-122.8 2006.38,-122.8 1296.14,-122.8 1296.14,-122.8"/>
<polygon fill="black" stroke="black" points="1296.14,-119.3 1286.14,-122.8 1296.14,-126.3 1296.14,-119.3"/>
</g>
<!-- L10nDisplayNamesDirective -->
<g id="node5" class="node">
<title>L10nDisplayNamesDirective</title>
<polygon fill="#ffffb3" stroke="black" points="1930.05,-84.8 1749.95,-84.8 1749.95,-48.8 1930.05,-48.8 1930.05,-84.8"/>
<text text-anchor="middle" x="1840" y="-62.6" font-family="Times,serif" font-size="14.00">L10nDisplayNamesDirective</text>
</g>
<!-- L10nDisplayNamesDirective&#45;&gt;L10nIntlModule -->
<g id="edge5" class="edge">
<title>L10nDisplayNamesDirective&#45;&gt;L10nIntlModule</title>
<path fill="none" stroke="black" d="M1802.38,-85.08C1802.38,-100.75 1802.38,-120.8 1802.38,-120.8 1802.38,-120.8 1296.17,-120.8 1296.17,-120.8"/>
<polygon fill="black" stroke="black" points="1296.17,-117.3 1286.17,-120.8 1296.17,-124.3 1296.17,-117.3"/>
</g>
<!-- L10nDisplayNamesPipe -->
<g id="node6" class="node">
<title>L10nDisplayNamesPipe</title>
<polygon fill="#ffffb3" stroke="black" points="1732.36,-84.8 1579.64,-84.8 1579.64,-48.8 1732.36,-48.8 1732.36,-84.8"/>
<text text-anchor="middle" x="1656" y="-62.6" font-family="Times,serif" font-size="14.00">L10nDisplayNamesPipe</text>
</g>
<!-- L10nDisplayNamesPipe&#45;&gt;L10nIntlModule -->
<g id="edge6" class="edge">
<title>L10nDisplayNamesPipe&#45;&gt;L10nIntlModule</title>
<path fill="none" stroke="black" d="M1616.38,-84.99C1616.38,-99.98 1616.38,-118.8 1616.38,-118.8 1616.38,-118.8 1296.26,-118.8 1296.26,-118.8"/>
<polygon fill="black" stroke="black" points="1296.26,-115.3 1286.26,-118.8 1296.26,-122.3 1296.26,-115.3"/>
</g>
<!-- L10nNumberAsyncPipe -->
<g id="node7" class="node">
<title>L10nNumberAsyncPipe</title>
<polygon fill="#ffffb3" stroke="black" points="1562.08,-84.8 1409.92,-84.8 1409.92,-48.8 1562.08,-48.8 1562.08,-84.8"/>
<text text-anchor="middle" x="1486" y="-62.6" font-family="Times,serif" font-size="14.00">L10nNumberAsyncPipe</text>
</g>
<!-- L10nNumberAsyncPipe&#45;&gt;L10nIntlModule -->
<g id="edge7" class="edge">
<title>L10nNumberAsyncPipe&#45;&gt;L10nIntlModule</title>
<path fill="none" stroke="black" d="M1444.38,-84.85C1444.38,-99.17 1444.38,-116.8 1444.38,-116.8 1444.38,-116.8 1296.14,-116.8 1296.14,-116.8"/>
<polygon fill="black" stroke="black" points="1296.14,-113.3 1286.14,-116.8 1296.14,-120.3 1296.14,-113.3"/>
</g>
<!-- L10nNumberDirective -->
<g id="node8" class="node">
<title>L10nNumberDirective</title>
<polygon fill="#ffffb3" stroke="black" points="1391.51,-84.8 1248.49,-84.8 1248.49,-48.8 1391.51,-48.8 1391.51,-84.8"/>
<text text-anchor="middle" x="1320" y="-62.6" font-family="Times,serif" font-size="14.00">L10nNumberDirective</text>
</g>
<!-- L10nNumberDirective&#45;&gt;L10nIntlModule -->
<g id="edge8" class="edge">
<title>L10nNumberDirective&#45;&gt;L10nIntlModule</title>
<path fill="none" stroke="black" d="M1267.26,-84.91C1267.26,-84.91 1267.26,-103.79 1267.26,-103.79"/>
<polygon fill="black" stroke="black" points="1263.76,-103.79 1267.26,-113.79 1270.76,-103.79 1263.76,-103.79"/>
</g>
<!-- L10nNumberPipe -->
<g id="node9" class="node">
<title>L10nNumberPipe</title>
<polygon fill="#ffffb3" stroke="black" points="1230.31,-84.8 1113.69,-84.8 1113.69,-48.8 1230.31,-48.8 1230.31,-84.8"/>
<text text-anchor="middle" x="1172" y="-62.6" font-family="Times,serif" font-size="14.00">L10nNumberPipe</text>
</g>
<!-- L10nNumberPipe&#45;&gt;L10nIntlModule -->
<g id="edge9" class="edge">
<title>L10nNumberPipe&#45;&gt;L10nIntlModule</title>
<path fill="none" stroke="black" d="M1203.94,-84.91C1203.94,-84.91 1203.94,-103.79 1203.94,-103.79"/>
<polygon fill="black" stroke="black" points="1200.44,-103.79 1203.94,-113.79 1207.44,-103.79 1200.44,-103.79"/>
</g>
<!-- L10nPluralAsyncPipe -->
<g id="node10" class="node">
<title>L10nPluralAsyncPipe</title>
<polygon fill="#ffffb3" stroke="black" points="1095.65,-84.8 956.35,-84.8 956.35,-48.8 1095.65,-48.8 1095.65,-84.8"/>
<text text-anchor="middle" x="1026" y="-62.6" font-family="Times,serif" font-size="14.00">L10nPluralAsyncPipe</text>
</g>
<!-- L10nPluralAsyncPipe&#45;&gt;L10nIntlModule -->
<g id="edge10" class="edge">
<title>L10nPluralAsyncPipe&#45;&gt;L10nIntlModule</title>
<path fill="none" stroke="black" d="M1058.46,-84.85C1058.46,-99.17 1058.46,-116.8 1058.46,-116.8 1058.46,-116.8 1167.57,-116.8 1167.57,-116.8"/>
<polygon fill="black" stroke="black" points="1167.57,-120.3 1177.57,-116.8 1167.57,-113.3 1167.57,-120.3"/>
</g>
<!-- L10nPluralDirective -->
<g id="node11" class="node">
<title>L10nPluralDirective</title>
<polygon fill="#ffffb3" stroke="black" points="938.57,-84.8 807.43,-84.8 807.43,-48.8 938.57,-48.8 938.57,-84.8"/>
<text text-anchor="middle" x="873" y="-62.6" font-family="Times,serif" font-size="14.00">L10nPluralDirective</text>
</g>
<!-- L10nPluralDirective&#45;&gt;L10nIntlModule -->
<g id="edge11" class="edge">
<title>L10nPluralDirective&#45;&gt;L10nIntlModule</title>
<path fill="none" stroke="black" d="M899.48,-84.99C899.48,-99.98 899.48,-118.8 899.48,-118.8 899.48,-118.8 1167.84,-118.8 1167.84,-118.8"/>
<polygon fill="black" stroke="black" points="1167.84,-122.3 1177.84,-118.8 1167.84,-115.3 1167.84,-122.3"/>
</g>
<!-- L10nPluralPipe -->
<g id="node12" class="node">
<title>L10nPluralPipe</title>
<polygon fill="#ffffb3" stroke="black" points="789.88,-84.8 686.12,-84.8 686.12,-48.8 789.88,-48.8 789.88,-84.8"/>
<text text-anchor="middle" x="738" y="-62.6" font-family="Times,serif" font-size="14.00">L10nPluralPipe</text>
</g>
<!-- L10nPluralPipe&#45;&gt;L10nIntlModule -->
<g id="edge12" class="edge">
<title>L10nPluralPipe&#45;&gt;L10nIntlModule</title>
<path fill="none" stroke="black" d="M748.83,-84.81C748.83,-100.85 748.83,-121.8 748.83,-121.8 748.83,-121.8 1167.51,-121.8 1167.51,-121.8"/>
<polygon fill="black" stroke="black" points="1167.51,-125.3 1177.51,-121.8 1167.51,-118.3 1167.51,-125.3"/>
</g>
<!-- L10nTimeAgoAsyncPipe -->
<g id="node13" class="node">
<title>L10nTimeAgoAsyncPipe</title>
<polygon fill="#ffffb3" stroke="black" points="667.86,-84.8 508.14,-84.8 508.14,-48.8 667.86,-48.8 667.86,-84.8"/>
<text text-anchor="middle" x="588" y="-62.6" font-family="Times,serif" font-size="14.00">L10nTimeAgoAsyncPipe</text>
</g>
<!-- L10nTimeAgoAsyncPipe&#45;&gt;L10nIntlModule -->
<g id="edge13" class="edge">
<title>L10nTimeAgoAsyncPipe&#45;&gt;L10nIntlModule</title>
<path fill="none" stroke="black" d="M625.12,-84.84C625.12,-101.53 625.12,-123.8 625.12,-123.8 625.12,-123.8 1167.88,-123.8 1167.88,-123.8"/>
<polygon fill="black" stroke="black" points="1167.88,-127.3 1177.88,-123.8 1167.88,-120.3 1167.88,-127.3"/>
</g>
<!-- L10nTimeAgoDirective -->
<g id="node14" class="node">
<title>L10nTimeAgoDirective</title>
<polygon fill="#ffffb3" stroke="black" points="489.79,-84.8 338.21,-84.8 338.21,-48.8 489.79,-48.8 489.79,-84.8"/>
<text text-anchor="middle" x="414" y="-62.6" font-family="Times,serif" font-size="14.00">L10nTimeAgoDirective</text>
</g>
<!-- L10nTimeAgoDirective&#45;&gt;L10nIntlModule -->
<g id="edge14" class="edge">
<title>L10nTimeAgoDirective&#45;&gt;L10nIntlModule</title>
<path fill="none" stroke="black" d="M445.48,-84.82C445.48,-102.17 445.48,-125.8 445.48,-125.8 445.48,-125.8 1167.94,-125.8 1167.94,-125.8"/>
<polygon fill="black" stroke="black" points="1167.94,-129.3 1177.94,-125.8 1167.94,-122.3 1167.94,-129.3"/>
</g>
<!-- L10nTimeAgoPipe -->
<g id="node15" class="node">
<title>L10nTimeAgoPipe</title>
<polygon fill="#ffffb3" stroke="black" points="320.1,-84.8 195.9,-84.8 195.9,-48.8 320.1,-48.8 320.1,-84.8"/>
<text text-anchor="middle" x="258" y="-62.6" font-family="Times,serif" font-size="14.00">L10nTimeAgoPipe</text>
</g>
<!-- L10nTimeAgoPipe&#45;&gt;L10nIntlModule -->
<g id="edge15" class="edge">
<title>L10nTimeAgoPipe&#45;&gt;L10nIntlModule</title>
<path fill="none" stroke="black" d="M274.33,-85.07C274.33,-103.36 274.33,-128.8 274.33,-128.8 274.33,-128.8 1167.77,-128.8 1167.77,-128.8"/>
<polygon fill="black" stroke="black" points="1167.77,-132.3 1177.77,-128.8 1167.77,-125.3 1167.77,-132.3"/>
</g>
<!-- L10nDateAsyncPipe  -->
<g id="node17" class="node">
<title>L10nDateAsyncPipe </title>
<polygon fill="#fb8072" stroke="black" points="2483.13,-214.8 2346.87,-214.8 2346.87,-178.8 2483.13,-178.8 2483.13,-214.8"/>
<text text-anchor="middle" x="2415" y="-192.6" font-family="Times,serif" font-size="14.00">L10nDateAsyncPipe </text>
</g>
<!-- L10nIntlModule&#45;&gt;L10nDateAsyncPipe  -->
<g id="edge16" class="edge">
<title>L10nIntlModule&#45;&gt;L10nDateAsyncPipe </title>
<path fill="none" stroke="black" stroke-dasharray="5,2" d="M1286.12,-130.8C1512.27,-130.8 2369.98,-130.8 2369.98,-130.8 2369.98,-130.8 2369.98,-168.77 2369.98,-168.77"/>
<polygon fill="black" stroke="black" points="2366.48,-168.77 2369.98,-178.77 2373.48,-168.77 2366.48,-168.77"/>
</g>
<!-- L10nDateDirective  -->
<g id="node18" class="node">
<title>L10nDateDirective </title>
<polygon fill="#fb8072" stroke="black" points="2328.56,-214.8 2201.44,-214.8 2201.44,-178.8 2328.56,-178.8 2328.56,-214.8"/>
<text text-anchor="middle" x="2265" y="-192.6" font-family="Times,serif" font-size="14.00">L10nDateDirective </text>
</g>
<!-- L10nIntlModule&#45;&gt;L10nDateDirective  -->
<g id="edge17" class="edge">
<title>L10nIntlModule&#45;&gt;L10nDateDirective </title>
<path fill="none" stroke="black" stroke-dasharray="5,2" d="M1286.17,-133.8C1493.66,-133.8 2226.33,-133.8 2226.33,-133.8 2226.33,-133.8 2226.33,-168.58 2226.33,-168.58"/>
<polygon fill="black" stroke="black" points="2222.83,-168.58 2226.33,-178.58 2229.83,-168.58 2222.83,-168.58"/>
</g>
<!-- L10nDatePipe  -->
<g id="node19" class="node">
<title>L10nDatePipe </title>
<polygon fill="#fb8072" stroke="black" points="2183.37,-214.8 2082.63,-214.8 2082.63,-178.8 2183.37,-178.8 2183.37,-214.8"/>
<text text-anchor="middle" x="2133" y="-192.6" font-family="Times,serif" font-size="14.00">L10nDatePipe </text>
</g>
<!-- L10nIntlModule&#45;&gt;L10nDatePipe  -->
<g id="edge18" class="edge">
<title>L10nIntlModule&#45;&gt;L10nDatePipe </title>
<path fill="none" stroke="black" stroke-dasharray="5,2" d="M1286.23,-135.8C1477.56,-135.8 2109.56,-135.8 2109.56,-135.8 2109.56,-135.8 2109.56,-168.5 2109.56,-168.5"/>
<polygon fill="black" stroke="black" points="2106.06,-168.5 2109.56,-178.5 2113.06,-168.5 2106.06,-168.5"/>
</g>
<!-- L10nDisplayNamesAsyncPipe  -->
<g id="node20" class="node">
<title>L10nDisplayNamesAsyncPipe </title>
<polygon fill="#fb8072" stroke="black" points="2065.12,-214.8 1872.88,-214.8 1872.88,-178.8 2065.12,-178.8 2065.12,-214.8"/>
<text text-anchor="middle" x="1969" y="-192.6" font-family="Times,serif" font-size="14.00">L10nDisplayNamesAsyncPipe </text>
</g>
<!-- L10nIntlModule&#45;&gt;L10nDisplayNamesAsyncPipe  -->
<g id="edge19" class="edge">
<title>L10nIntlModule&#45;&gt;L10nDisplayNamesAsyncPipe </title>
<path fill="none" stroke="black" stroke-dasharray="5,2" d="M1286.22,-137.8C1445.6,-137.8 1901.48,-137.8 1901.48,-137.8 1901.48,-137.8 1901.48,-168.78 1901.48,-168.78"/>
<polygon fill="black" stroke="black" points="1897.98,-168.78 1901.48,-178.78 1904.98,-168.78 1897.98,-168.78"/>
</g>
<!-- L10nDisplayNamesDirective  -->
<g id="node21" class="node">
<title>L10nDisplayNamesDirective </title>
<polygon fill="#fb8072" stroke="black" points="1854.55,-214.8 1671.45,-214.8 1671.45,-178.8 1854.55,-178.8 1854.55,-214.8"/>
<text text-anchor="middle" x="1763" y="-192.6" font-family="Times,serif" font-size="14.00">L10nDisplayNamesDirective </text>
</g>
<!-- L10nIntlModule&#45;&gt;L10nDisplayNamesDirective  -->
<g id="edge20" class="edge">
<title>L10nIntlModule&#45;&gt;L10nDisplayNamesDirective </title>
<path fill="none" stroke="black" stroke-dasharray="5,2" d="M1286.35,-139.8C1410.03,-139.8 1701.83,-139.8 1701.83,-139.8 1701.83,-139.8 1701.83,-168.76 1701.83,-168.76"/>
<polygon fill="black" stroke="black" points="1698.33,-168.76 1701.83,-178.76 1705.33,-168.76 1698.33,-168.76"/>
</g>
<!-- L10nDisplayNamesPipe  -->
<g id="node22" class="node">
<title>L10nDisplayNamesPipe </title>
<polygon fill="#fb8072" stroke="black" points="1653.36,-214.8 1496.64,-214.8 1496.64,-178.8 1653.36,-178.8 1653.36,-214.8"/>
<text text-anchor="middle" x="1575" y="-192.6" font-family="Times,serif" font-size="14.00">L10nDisplayNamesPipe </text>
</g>
<!-- L10nIntlModule&#45;&gt;L10nDisplayNamesPipe  -->
<g id="edge21" class="edge">
<title>L10nIntlModule&#45;&gt;L10nDisplayNamesPipe </title>
<path fill="none" stroke="black" stroke-dasharray="5,2" d="M1286.21,-141.8C1372,-141.8 1529.43,-141.8 1529.43,-141.8 1529.43,-141.8 1529.43,-168.79 1529.43,-168.79"/>
<polygon fill="black" stroke="black" points="1525.93,-168.79 1529.43,-178.79 1532.93,-168.79 1525.93,-168.79"/>
</g>
<!-- L10nNumberAsyncPipe  -->
<g id="node23" class="node">
<title>L10nNumberAsyncPipe </title>
<polygon fill="#fb8072" stroke="black" points="1478.58,-214.8 1323.42,-214.8 1323.42,-178.8 1478.58,-178.8 1478.58,-214.8"/>
<text text-anchor="middle" x="1401" y="-192.6" font-family="Times,serif" font-size="14.00">L10nNumberAsyncPipe </text>
</g>
<!-- L10nIntlModule&#45;&gt;L10nNumberAsyncPipe  -->
<g id="edge22" class="edge">
<title>L10nIntlModule&#45;&gt;L10nNumberAsyncPipe </title>
<path fill="none" stroke="black" stroke-dasharray="5,2" d="M1286.31,-143.8C1320.22,-143.8 1357.48,-143.8 1357.48,-143.8 1357.48,-143.8 1357.48,-168.56 1357.48,-168.56"/>
<polygon fill="black" stroke="black" points="1353.98,-168.56 1357.48,-178.56 1360.98,-168.56 1353.98,-168.56"/>
</g>
<!-- L10nNumberDirective  -->
<g id="node24" class="node">
<title>L10nNumberDirective </title>
<polygon fill="#fb8072" stroke="black" points="1305.51,-214.8 1158.49,-214.8 1158.49,-178.8 1305.51,-178.8 1305.51,-214.8"/>
<text text-anchor="middle" x="1232" y="-192.6" font-family="Times,serif" font-size="14.00">L10nNumberDirective </text>
</g>
<!-- L10nIntlModule&#45;&gt;L10nNumberDirective  -->
<g id="edge23" class="edge">
<title>L10nIntlModule&#45;&gt;L10nNumberDirective </title>
<path fill="none" stroke="black" stroke-dasharray="5,2" d="M1232,-149.91C1232,-149.91 1232,-168.79 1232,-168.79"/>
<polygon fill="black" stroke="black" points="1228.5,-168.79 1232,-178.79 1235.5,-168.79 1228.5,-168.79"/>
</g>
<!-- L10nNumberPipe  -->
<g id="node25" class="node">
<title>L10nNumberPipe </title>
<polygon fill="#fb8072" stroke="black" points="1140.81,-214.8 1021.19,-214.8 1021.19,-178.8 1140.81,-178.8 1140.81,-214.8"/>
<text text-anchor="middle" x="1081" y="-192.6" font-family="Times,serif" font-size="14.00">L10nNumberPipe </text>
</g>
<!-- L10nIntlModule&#45;&gt;L10nNumberPipe  -->
<g id="edge24" class="edge">
<title>L10nIntlModule&#45;&gt;L10nNumberPipe </title>
<path fill="none" stroke="black" stroke-dasharray="5,2" d="M1177.85,-147.8C1152.32,-147.8 1127.38,-147.8 1127.38,-147.8 1127.38,-147.8 1127.38,-168.55 1127.38,-168.55"/>
<polygon fill="black" stroke="black" points="1123.88,-168.55 1127.38,-178.55 1130.88,-168.55 1123.88,-168.55"/>
</g>
<!-- L10nPluralAsyncPipe  -->
<g id="node26" class="node">
<title>L10nPluralAsyncPipe </title>
<polygon fill="#fb8072" stroke="black" points="1003.65,-214.8 860.35,-214.8 860.35,-178.8 1003.65,-178.8 1003.65,-214.8"/>
<text text-anchor="middle" x="932" y="-192.6" font-family="Times,serif" font-size="14.00">L10nPluralAsyncPipe </text>
</g>
<!-- L10nIntlModule&#45;&gt;L10nPluralAsyncPipe  -->
<g id="edge25" class="edge">
<title>L10nIntlModule&#45;&gt;L10nPluralAsyncPipe </title>
<path fill="none" stroke="black" stroke-dasharray="5,2" d="M1177.91,-145.8C1103.83,-145.8 979.88,-145.8 979.88,-145.8 979.88,-145.8 979.88,-168.68 979.88,-168.68"/>
<polygon fill="black" stroke="black" points="976.38,-168.68 979.88,-178.68 983.38,-168.68 976.38,-168.68"/>
</g>
<!-- L10nPluralDirective  -->
<g id="node27" class="node">
<title>L10nPluralDirective </title>
<polygon fill="#fb8072" stroke="black" points="842.08,-214.8 707.92,-214.8 707.92,-178.8 842.08,-178.8 842.08,-214.8"/>
<text text-anchor="middle" x="775" y="-192.6" font-family="Times,serif" font-size="14.00">L10nPluralDirective </text>
</g>
<!-- L10nIntlModule&#45;&gt;L10nPluralDirective  -->
<g id="edge26" class="edge">
<title>L10nIntlModule&#45;&gt;L10nPluralDirective </title>
<path fill="none" stroke="black" stroke-dasharray="5,2" d="M1177.94,-142.8C1067.19,-142.8 824.88,-142.8 824.88,-142.8 824.88,-142.8 824.88,-168.52 824.88,-168.52"/>
<polygon fill="black" stroke="black" points="821.38,-168.52 824.88,-178.52 828.38,-168.52 821.38,-168.52"/>
</g>
<!-- L10nPluralPipe  -->
<g id="node28" class="node">
<title>L10nPluralPipe </title>
<polygon fill="#fb8072" stroke="black" points="689.88,-214.8 582.12,-214.8 582.12,-178.8 689.88,-178.8 689.88,-214.8"/>
<text text-anchor="middle" x="636" y="-192.6" font-family="Times,serif" font-size="14.00">L10nPluralPipe </text>
</g>
<!-- L10nIntlModule&#45;&gt;L10nPluralPipe  -->
<g id="edge27" class="edge">
<title>L10nIntlModule&#45;&gt;L10nPluralPipe </title>
<path fill="none" stroke="black" stroke-dasharray="5,2" d="M1177.77,-140.8C1038.12,-140.8 677,-140.8 677,-140.8 677,-140.8 677,-168.77 677,-168.77"/>
<polygon fill="black" stroke="black" points="673.5,-168.77 677,-178.77 680.5,-168.77 673.5,-168.77"/>
</g>
<!-- L10nTimeAgoAsyncPipe  -->
<g id="node29" class="node">
<title>L10nTimeAgoAsyncPipe </title>
<polygon fill="#fb8072" stroke="black" points="564.86,-214.8 401.14,-214.8 401.14,-178.8 564.86,-178.8 564.86,-214.8"/>
<text text-anchor="middle" x="483" y="-192.6" font-family="Times,serif" font-size="14.00">L10nTimeAgoAsyncPipe </text>
</g>
<!-- L10nIntlModule&#45;&gt;L10nTimeAgoAsyncPipe  -->
<g id="edge28" class="edge">
<title>L10nIntlModule&#45;&gt;L10nTimeAgoAsyncPipe </title>
<path fill="none" stroke="black" stroke-dasharray="5,2" d="M1177.71,-137.8C1013.99,-137.8 536.38,-137.8 536.38,-137.8 536.38,-137.8 536.38,-168.78 536.38,-168.78"/>
<polygon fill="black" stroke="black" points="532.88,-168.78 536.38,-178.78 539.88,-168.78 532.88,-168.78"/>
</g>
<!-- L10nTimeAgoDirective  -->
<g id="node30" class="node">
<title>L10nTimeAgoDirective </title>
<polygon fill="#fb8072" stroke="black" points="383.29,-214.8 228.71,-214.8 228.71,-178.8 383.29,-178.8 383.29,-214.8"/>
<text text-anchor="middle" x="306" y="-192.6" font-family="Times,serif" font-size="14.00">L10nTimeAgoDirective </text>
</g>
<!-- L10nIntlModule&#45;&gt;L10nTimeAgoDirective  -->
<g id="edge29" class="edge">
<title>L10nIntlModule&#45;&gt;L10nTimeAgoDirective </title>
<path fill="none" stroke="black" stroke-dasharray="5,2" d="M1177.84,-135.8C987.52,-135.8 360.88,-135.8 360.88,-135.8 360.88,-135.8 360.88,-168.5 360.88,-168.5"/>
<polygon fill="black" stroke="black" points="357.38,-168.5 360.88,-178.5 364.38,-168.5 357.38,-168.5"/>
</g>
<!-- L10nTimeAgoPipe  -->
<g id="node31" class="node">
<title>L10nTimeAgoPipe </title>
<polygon fill="#fb8072" stroke="black" points="210.6,-214.8 83.4,-214.8 83.4,-178.8 210.6,-178.8 210.6,-214.8"/>
<text text-anchor="middle" x="147" y="-192.6" font-family="Times,serif" font-size="14.00">L10nTimeAgoPipe </text>
</g>
<!-- L10nIntlModule&#45;&gt;L10nTimeAgoPipe  -->
<g id="edge30" class="edge">
<title>L10nIntlModule&#45;&gt;L10nTimeAgoPipe </title>
<path fill="none" stroke="black" stroke-dasharray="5,2" d="M1177.78,-133.8C965.63,-133.8 203.38,-133.8 203.38,-133.8 203.38,-133.8 203.38,-168.58 203.38,-168.58"/>
<polygon fill="black" stroke="black" points="199.88,-168.58 203.38,-178.58 206.88,-168.58 199.88,-168.58"/>
</g>
<!-- L10nIntlService -->
<g id="node32" class="node">
<title>L10nIntlService</title>
<ellipse fill="#fdb462" stroke="black" cx="98" cy="-66.8" rx="73.58" ry="18"/>
<text text-anchor="middle" x="98" y="-62.6" font-family="Times,serif" font-size="14.00">L10nIntlService</text>
</g>
<!-- L10nIntlService&#45;&gt;L10nIntlModule -->
<g id="edge31" class="edge">
<title>L10nIntlService&#45;&gt;L10nIntlModule</title>
<path fill="none" stroke="black" d="M127.49,-83.62C127.49,-102.58 127.49,-130.8 127.49,-130.8 127.49,-130.8 1167.6,-130.8 1167.6,-130.8"/>
<polygon fill="black" stroke="black" points="1167.6,-134.3 1177.6,-130.8 1167.6,-127.3 1167.6,-134.3"/>
</g>
<!-- L10nTranslateAsyncPipe -->
<g id="node33" class="node">
<title>L10nTranslateAsyncPipe</title>
<polygon fill="#ffffb3" stroke="black" points="3055.29,-84.8 2896.71,-84.8 2896.71,-48.8 3055.29,-48.8 3055.29,-84.8"/>
<text text-anchor="middle" x="2976" y="-62.6" font-family="Times,serif" font-size="14.00">L10nTranslateAsyncPipe</text>
</g>
<!-- L10nTranslationModule -->
<g id="node36" class="node">
<title>L10nTranslationModule</title>
<polygon fill="#8dd3c7" stroke="black" points="2880.36,-149.8 2877.36,-153.8 2856.36,-153.8 2853.36,-149.8 2727.64,-149.8 2727.64,-113.8 2880.36,-113.8 2880.36,-149.8"/>
<text text-anchor="middle" x="2804" y="-127.6" font-family="Times,serif" font-size="14.00">L10nTranslationModule</text>
</g>
<!-- L10nTranslateAsyncPipe&#45;&gt;L10nTranslationModule -->
<g id="edge32" class="edge">
<title>L10nTranslateAsyncPipe&#45;&gt;L10nTranslationModule</title>
<path fill="none" stroke="black" d="M3003.13,-84.82C3003.13,-102.17 3003.13,-125.8 3003.13,-125.8 3003.13,-125.8 2890.42,-125.8 2890.42,-125.8"/>
<polygon fill="black" stroke="black" points="2890.42,-122.3 2880.42,-125.8 2890.42,-129.3 2890.42,-122.3"/>
</g>
<!-- L10nTranslateDirective -->
<g id="node34" class="node">
<title>L10nTranslateDirective</title>
<polygon fill="#ffffb3" stroke="black" points="2878.72,-84.8 2729.28,-84.8 2729.28,-48.8 2878.72,-48.8 2878.72,-84.8"/>
<text text-anchor="middle" x="2804" y="-62.6" font-family="Times,serif" font-size="14.00">L10nTranslateDirective</text>
</g>
<!-- L10nTranslateDirective&#45;&gt;L10nTranslationModule -->
<g id="edge33" class="edge">
<title>L10nTranslateDirective&#45;&gt;L10nTranslationModule</title>
<path fill="none" stroke="black" d="M2804,-84.91C2804,-84.91 2804,-103.79 2804,-103.79"/>
<polygon fill="black" stroke="black" points="2800.5,-103.79 2804,-113.79 2807.5,-103.79 2800.5,-103.79"/>
</g>
<!-- L10nTranslatePipe -->
<g id="node35" class="node">
<title>L10nTranslatePipe</title>
<polygon fill="#ffffb3" stroke="black" points="2711.02,-84.8 2588.98,-84.8 2588.98,-48.8 2711.02,-48.8 2711.02,-84.8"/>
<text text-anchor="middle" x="2650" y="-62.6" font-family="Times,serif" font-size="14.00">L10nTranslatePipe</text>
</g>
<!-- L10nTranslatePipe&#45;&gt;L10nTranslationModule -->
<g id="edge34" class="edge">
<title>L10nTranslatePipe&#45;&gt;L10nTranslationModule</title>
<path fill="none" stroke="black" d="M2668.92,-85.12C2668.92,-108.46 2668.92,-145.8 2668.92,-145.8 2668.92,-145.8 2717.38,-145.8 2717.38,-145.8"/>
<polygon fill="black" stroke="black" points="2717.38,-149.3 2727.38,-145.8 2717.38,-142.3 2717.38,-149.3"/>
</g>
<!-- L10nTranslateAsyncPipe  -->
<g id="node37" class="node">
<title>L10nTranslateAsyncPipe </title>
<polygon fill="#fb8072" stroke="black" points="3060.79,-214.8 2899.21,-214.8 2899.21,-178.8 3060.79,-178.8 3060.79,-214.8"/>
<text text-anchor="middle" x="2980" y="-192.6" font-family="Times,serif" font-size="14.00">L10nTranslateAsyncPipe </text>
</g>
<!-- L10nTranslationModule&#45;&gt;L10nTranslateAsyncPipe  -->
<g id="edge35" class="edge">
<title>L10nTranslationModule&#45;&gt;L10nTranslateAsyncPipe </title>
<path fill="none" stroke="black" stroke-dasharray="5,2" d="M2880.58,-137.8C2916.32,-137.8 2951.12,-137.8 2951.12,-137.8 2951.12,-137.8 2951.12,-168.78 2951.12,-168.78"/>
<polygon fill="black" stroke="black" points="2947.62,-168.78 2951.12,-178.78 2954.62,-168.78 2947.62,-168.78"/>
</g>
<!-- L10nTranslateDirective  -->
<g id="node38" class="node">
<title>L10nTranslateDirective </title>
<polygon fill="#fb8072" stroke="black" points="2880.72,-214.8 2727.28,-214.8 2727.28,-178.8 2880.72,-178.8 2880.72,-214.8"/>
<text text-anchor="middle" x="2804" y="-192.6" font-family="Times,serif" font-size="14.00">L10nTranslateDirective </text>
</g>
<!-- L10nTranslationModule&#45;&gt;L10nTranslateDirective  -->
<g id="edge36" class="edge">
<title>L10nTranslationModule&#45;&gt;L10nTranslateDirective </title>
<path fill="none" stroke="black" stroke-dasharray="5,2" d="M2804,-149.91C2804,-149.91 2804,-168.79 2804,-168.79"/>
<polygon fill="black" stroke="black" points="2800.5,-168.79 2804,-178.79 2807.5,-168.79 2800.5,-168.79"/>
</g>
<!-- L10nTranslatePipe  -->
<g id="node39" class="node">
<title>L10nTranslatePipe </title>
<polygon fill="#fb8072" stroke="black" points="2709.02,-214.8 2582.98,-214.8 2582.98,-178.8 2709.02,-178.8 2709.02,-214.8"/>
<text text-anchor="middle" x="2646" y="-192.6" font-family="Times,serif" font-size="14.00">L10nTranslatePipe </text>
</g>
<!-- L10nTranslationModule&#45;&gt;L10nTranslatePipe  -->
<g id="edge37" class="edge">
<title>L10nTranslationModule&#45;&gt;L10nTranslatePipe </title>
<path fill="none" stroke="black" stroke-dasharray="5,2" d="M2727.42,-147.8C2680.29,-147.8 2628.83,-147.8 2628.83,-147.8 2628.83,-147.8 2628.83,-168.55 2628.83,-168.55"/>
<polygon fill="black" stroke="black" points="2625.33,-168.55 2628.83,-178.55 2632.33,-168.55 2625.33,-168.55"/>
</g>
<!-- L10nValidateDateDirective -->
<g id="node40" class="node">
<title>L10nValidateDateDirective</title>
<polygon fill="#ffffb3" stroke="black" points="4159.98,-149.8 3988.02,-149.8 3988.02,-113.8 4159.98,-113.8 4159.98,-149.8"/>
<text text-anchor="middle" x="4074" y="-127.6" font-family="Times,serif" font-size="14.00">L10nValidateDateDirective</text>
</g>
<!-- L10nValidationModule -->
<g id="node42" class="node">
<title>L10nValidationModule</title>
<polygon fill="#8dd3c7" stroke="black" points="4048.2,-214.8 4045.2,-218.8 4024.2,-218.8 4021.2,-214.8 3899.8,-214.8 3899.8,-178.8 4048.2,-178.8 4048.2,-214.8"/>
<text text-anchor="middle" x="3974" y="-192.6" font-family="Times,serif" font-size="14.00">L10nValidationModule</text>
</g>
<!-- L10nValidateDateDirective&#45;&gt;L10nValidationModule -->
<g id="edge38" class="edge">
<title>L10nValidateDateDirective&#45;&gt;L10nValidationModule</title>
<path fill="none" stroke="black" d="M4018.18,-149.91C4018.18,-149.91 4018.18,-168.79 4018.18,-168.79"/>
<polygon fill="black" stroke="black" points="4014.68,-168.79 4018.18,-178.79 4021.68,-168.79 4014.68,-168.79"/>
</g>
<!-- L10nValidateNumberDirective -->
<g id="node41" class="node">
<title>L10nValidateNumberDirective</title>
<polygon fill="#ffffb3" stroke="black" points="3970.43,-149.8 3779.57,-149.8 3779.57,-113.8 3970.43,-113.8 3970.43,-149.8"/>
<text text-anchor="middle" x="3875" y="-127.6" font-family="Times,serif" font-size="14.00">L10nValidateNumberDirective</text>
</g>
<!-- L10nValidateNumberDirective&#45;&gt;L10nValidationModule -->
<g id="edge40" class="edge">
<title>L10nValidateNumberDirective&#45;&gt;L10nValidationModule</title>
<path fill="none" stroke="black" d="M3935.18,-149.91C3935.18,-149.91 3935.18,-168.79 3935.18,-168.79"/>
<polygon fill="black" stroke="black" points="3931.68,-168.79 3935.18,-178.79 3938.68,-168.79 3931.68,-168.79"/>
</g>
<!-- L10nValidateDateDirective  -->
<g id="node45" class="node">
<title>L10nValidateDateDirective </title>
<polygon fill="#fb8072" stroke="black" points="4163.48,-282.8 3988.52,-282.8 3988.52,-246.8 4163.48,-246.8 4163.48,-282.8"/>
<text text-anchor="middle" x="4076" y="-260.6" font-family="Times,serif" font-size="14.00">L10nValidateDateDirective </text>
</g>
<!-- L10nValidationModule&#45;&gt;L10nValidateDateDirective  -->
<g id="edge42" class="edge">
<title>L10nValidationModule&#45;&gt;L10nValidateDateDirective </title>
<path fill="none" stroke="black" stroke-dasharray="5,2" d="M4018.3,-215.02C4018.3,-215.02 4018.3,-236.53 4018.3,-236.53"/>
<polygon fill="black" stroke="black" points="4014.8,-236.53 4018.3,-246.53 4021.8,-236.53 4014.8,-236.53"/>
</g>
<!-- L10nValidateNumberDirective  -->
<g id="node46" class="node">
<title>L10nValidateNumberDirective </title>
<polygon fill="#fb8072" stroke="black" points="3970.43,-282.8 3775.57,-282.8 3775.57,-246.8 3970.43,-246.8 3970.43,-282.8"/>
<text text-anchor="middle" x="3873" y="-260.6" font-family="Times,serif" font-size="14.00">L10nValidateNumberDirective </text>
</g>
<!-- L10nValidationModule&#45;&gt;L10nValidateNumberDirective  -->
<g id="edge43" class="edge">
<title>L10nValidationModule&#45;&gt;L10nValidateNumberDirective </title>
<path fill="none" stroke="black" stroke-dasharray="5,2" d="M3935.06,-215.02C3935.06,-215.02 3935.06,-236.53 3935.06,-236.53"/>
<polygon fill="black" stroke="black" points="3931.56,-236.53 3935.06,-246.53 3938.56,-236.53 3931.56,-236.53"/>
</g>
<!-- { provide: NG_VALIDATORS, useExisting: forwardRef(() =&gt; L10nValidateDateDirective), multi: true } -->
<g id="node43" class="node">
<title>{ provide: NG_VALIDATORS, useExisting: forwardRef(() =&gt; L10nValidateDateDirective), multi: true }</title>
<ellipse fill="#fdb462" stroke="black" cx="4414" cy="-66.8" rx="420.66" ry="18"/>
<text text-anchor="middle" x="4414" y="-62.6" font-family="Times,serif" font-size="14.00">{ provide: NG_VALIDATORS, useExisting: forwardRef(() =&gt; L10nValidateDateDirective), multi: true }</text>
</g>
<!-- { provide: NG_VALIDATORS, useExisting: forwardRef(() =&gt; L10nValidateDateDirective), multi: true }&#45;&gt;L10nValidateDateDirective -->
<g id="edge39" class="edge">
<title>{ provide: NG_VALIDATORS, useExisting: forwardRef(() =&gt; L10nValidateDateDirective), multi: true }&#45;&gt;L10nValidateDateDirective</title>
<path fill="none" stroke="black" d="M4076.46,-77.83C4076.46,-77.83 4076.46,-103.58 4076.46,-103.58"/>
<polygon fill="black" stroke="black" points="4072.96,-103.58 4076.46,-113.58 4079.96,-103.58 4072.96,-103.58"/>
</g>
<!-- { provide: NG_VALIDATORS, useExisting: forwardRef(() =&gt; L10nValidateNumberDirective), multi: true } -->
<g id="node44" class="node">
<title>{ provide: NG_VALIDATORS, useExisting: forwardRef(() =&gt; L10nValidateNumberDirective), multi: true }</title>
<ellipse fill="#fdb462" stroke="black" cx="3535" cy="-66.8" rx="434.49" ry="18"/>
<text text-anchor="middle" x="3535" y="-62.6" font-family="Times,serif" font-size="14.00">{ provide: NG_VALIDATORS, useExisting: forwardRef(() =&gt; L10nValidateNumberDirective), multi: true }</text>
</g>
<!-- { provide: NG_VALIDATORS, useExisting: forwardRef(() =&gt; L10nValidateNumberDirective), multi: true }&#45;&gt;L10nValidateNumberDirective -->
<g id="edge41" class="edge">
<title>{ provide: NG_VALIDATORS, useExisting: forwardRef(() =&gt; L10nValidateNumberDirective), multi: true }&#45;&gt;L10nValidateNumberDirective</title>
<path fill="none" stroke="black" d="M3874.39,-78.12C3874.39,-78.12 3874.39,-103.74 3874.39,-103.74"/>
<polygon fill="black" stroke="black" points="3870.89,-103.74 3874.39,-113.74 3877.89,-103.74 3870.89,-103.74"/>
</g>
</g>
</svg>
