<?xml version="1.0" encoding="UTF-8" standalone="no"?>
<!DOCTYPE svg PUBLIC "-//W3C//DTD SVG 1.1//EN"
 "http://www.w3.org/Graphics/SVG/1.1/DTD/svg11.dtd">
<!-- Generated by graphviz version 2.40.1 (20161225.0304)
 -->
<!-- Title: dependencies Pages: 1 -->
<svg width="1572pt" height="284pt"
 viewBox="0.00 0.00 1572.00 284.00" xmlns="http://www.w3.org/2000/svg" xmlns:xlink="http://www.w3.org/1999/xlink">
<g id="graph0" class="graph" transform="scale(1 1) rotate(0) translate(4 280)">
<title>dependencies</title>
<polygon fill="#ffffff" stroke="transparent" points="-4,4 -4,-280 1568,-280 1568,4 -4,4"/>
<text text-anchor="start" x="761.0091" y="-42.4" font-family="sans-serif" font-weight="bold" font-size="14.00" fill="#000000">Legend</text>
<polygon fill="#ffffb3" stroke="transparent" points="548,-10 548,-30 568,-30 568,-10 548,-10"/>
<text text-anchor="start" x="571.629" y="-15.4" font-family="sans-serif" font-size="14.00" fill="#000000"> &#160;Declarations</text>
<polygon fill="#8dd3c7" stroke="transparent" points="661,-10 661,-30 681,-30 681,-10 661,-10"/>
<text text-anchor="start" x="684.7251" y="-15.4" font-family="sans-serif" font-size="14.00" fill="#000000"> &#160;Module</text>
<polygon fill="#80b1d3" stroke="transparent" points="747,-10 747,-30 767,-30 767,-10 747,-10"/>
<text text-anchor="start" x="770.7812" y="-15.4" font-family="sans-serif" font-size="14.00" fill="#000000"> &#160;Bootstrap</text>
<polygon fill="#fdb462" stroke="transparent" points="844,-10 844,-30 864,-30 864,-10 844,-10"/>
<text text-anchor="start" x="867.6732" y="-15.4" font-family="sans-serif" font-size="14.00" fill="#000000"> &#160;Providers</text>
<polygon fill="#fb8072" stroke="transparent" points="940,-10 940,-30 960,-30 960,-10 940,-10"/>
<text text-anchor="start" x="963.7258" y="-15.4" font-family="sans-serif" font-size="14.00" fill="#000000"> &#160;Exports</text>
<g id="clust1" class="cluster">
<title>cluster_L10nIntlModule</title>
<polygon fill="none" stroke="#000000" stroke-dasharray="1,5" points="8,-70 8,-268 1556,-268 1556,-70 8,-70"/>
</g>
<g id="clust2" class="cluster">
<title>cluster_L10nIntlModule_declarations</title>
<polygon fill="none" stroke="#000000" points="188,-78 188,-130 1548,-130 1548,-78 188,-78"/>
</g>
<g id="clust13" class="cluster">
<title>cluster_L10nIntlModule_exports</title>
<polygon fill="none" stroke="#000000" points="90,-208 90,-260 1482,-260 1482,-208 90,-208"/>
</g>
<g id="clust15" class="cluster">
<title>cluster_L10nIntlModule_providers</title>
<polygon fill="none" stroke="#000000" points="16,-78 16,-130 180,-130 180,-78 16,-78"/>
</g>
<!-- L10nDateAsyncPipe -->
<g id="node1" class="node">
<title>L10nDateAsyncPipe</title>
<polygon fill="#ffffb3" stroke="#000000" points="1540.1331,-122 1407.8669,-122 1407.8669,-86 1540.1331,-86 1540.1331,-122"/>
<text text-anchor="middle" x="1474" y="-99.8" font-family="Times,serif" font-size="14.00" fill="#000000">L10nDateAsyncPipe</text>
</g>
<!-- L10nIntlModule -->
<g id="node10" class="node">
<title>L10nIntlModule</title>
<polygon fill="#8dd3c7" stroke="#000000" points="863.0452,-187 860.0452,-191 839.0452,-191 836.0452,-187 754.9548,-187 754.9548,-151 863.0452,-151 863.0452,-187"/>
<text text-anchor="middle" x="809" y="-164.8" font-family="Times,serif" font-size="14.00" fill="#000000">L10nIntlModule</text>
</g>
<!-- L10nDateAsyncPipe&#45;&gt;L10nIntlModule -->
<g id="edge1" class="edge">
<title>L10nDateAsyncPipe&#45;&gt;L10nIntlModule</title>
<path fill="none" stroke="#000000" d="M1440.875,-122.2222C1440.875,-140.8285 1440.875,-167 1440.875,-167 1440.875,-167 873.1465,-167 873.1465,-167"/>
<polygon fill="#000000" stroke="#000000" points="873.1465,-163.5001 863.1465,-167 873.1464,-170.5001 873.1465,-163.5001"/>
</g>
<!-- L10nDateDirective -->
<g id="node2" class="node">
<title>L10nDateDirective</title>
<polygon fill="#ffffb3" stroke="#000000" points="1390.0618,-122 1265.9382,-122 1265.9382,-86 1390.0618,-86 1390.0618,-122"/>
<text text-anchor="middle" x="1328" y="-99.8" font-family="Times,serif" font-size="14.00" fill="#000000">L10nDateDirective</text>
</g>
<!-- L10nDateDirective&#45;&gt;L10nIntlModule -->
<g id="edge2" class="edge">
<title>L10nDateDirective&#45;&gt;L10nIntlModule</title>
<path fill="none" stroke="#000000" d="M1292.875,-122.0225C1292.875,-139.3734 1292.875,-163 1292.875,-163 1292.875,-163 873.0981,-163 873.0981,-163"/>
<polygon fill="#000000" stroke="#000000" points="873.0982,-159.5001 863.0981,-163 873.0981,-166.5001 873.0982,-159.5001"/>
</g>
<!-- L10nDatePipe -->
<g id="node3" class="node">
<title>L10nDatePipe</title>
<polygon fill="#ffffb3" stroke="#000000" points="1248.3669,-122 1151.6331,-122 1151.6331,-86 1248.3669,-86 1248.3669,-122"/>
<text text-anchor="middle" x="1200" y="-99.8" font-family="Times,serif" font-size="14.00" fill="#000000">L10nDatePipe</text>
</g>
<!-- L10nDatePipe&#45;&gt;L10nIntlModule -->
<g id="edge3" class="edge">
<title>L10nDatePipe&#45;&gt;L10nIntlModule</title>
<path fill="none" stroke="#000000" d="M1162.875,-122.0091C1162.875,-138.0494 1162.875,-159 1162.875,-159 1162.875,-159 873.1312,-159 873.1312,-159"/>
<polygon fill="#000000" stroke="#000000" points="873.1312,-155.5001 863.1312,-159 873.1312,-162.5001 873.1312,-155.5001"/>
</g>
<!-- L10nNumberAsyncPipe -->
<g id="node4" class="node">
<title>L10nNumberAsyncPipe</title>
<polygon fill="#ffffb3" stroke="#000000" points="1134.0786,-122 981.9214,-122 981.9214,-86 1134.0786,-86 1134.0786,-122"/>
<text text-anchor="middle" x="1058" y="-99.8" font-family="Times,serif" font-size="14.00" fill="#000000">L10nNumberAsyncPipe</text>
</g>
<!-- L10nNumberAsyncPipe&#45;&gt;L10nIntlModule -->
<g id="edge4" class="edge">
<title>L10nNumberAsyncPipe&#45;&gt;L10nIntlModule</title>
<path fill="none" stroke="#000000" d="M1018.875,-122.1243C1018.875,-136.7832 1018.875,-155 1018.875,-155 1018.875,-155 873.048,-155 873.048,-155"/>
<polygon fill="#000000" stroke="#000000" points="873.0481,-151.5001 863.048,-155 873.048,-158.5001 873.0481,-151.5001"/>
</g>
<!-- L10nNumberDirective -->
<g id="node5" class="node">
<title>L10nNumberDirective</title>
<polygon fill="#ffffb3" stroke="#000000" points="963.5086,-122 820.4914,-122 820.4914,-86 963.5086,-86 963.5086,-122"/>
<text text-anchor="middle" x="892" y="-99.8" font-family="Times,serif" font-size="14.00" fill="#000000">L10nNumberDirective</text>
</g>
<!-- L10nNumberDirective&#45;&gt;L10nIntlModule -->
<g id="edge5" class="edge">
<title>L10nNumberDirective&#45;&gt;L10nIntlModule</title>
<path fill="none" stroke="#000000" d="M841.7591,-122.1061C841.7591,-122.1061 841.7591,-140.991 841.7591,-140.991"/>
<polygon fill="#000000" stroke="#000000" points="838.2592,-140.9909 841.7591,-150.991 845.2592,-140.991 838.2592,-140.9909"/>
</g>
<!-- L10nNumberPipe -->
<g id="node6" class="node">
<title>L10nNumberPipe</title>
<polygon fill="#ffffb3" stroke="#000000" points="802.3132,-122 685.6868,-122 685.6868,-86 802.3132,-86 802.3132,-122"/>
<text text-anchor="middle" x="744" y="-99.8" font-family="Times,serif" font-size="14.00" fill="#000000">L10nNumberPipe</text>
</g>
<!-- L10nNumberPipe&#45;&gt;L10nIntlModule -->
<g id="edge6" class="edge">
<title>L10nNumberPipe&#45;&gt;L10nIntlModule</title>
<path fill="none" stroke="#000000" d="M778.4422,-122.1061C778.4422,-122.1061 778.4422,-140.991 778.4422,-140.991"/>
<polygon fill="#000000" stroke="#000000" points="774.9422,-140.9909 778.4422,-150.991 781.9422,-140.991 774.9422,-140.9909"/>
</g>
<!-- L10nTimeAgoAsyncPipe -->
<g id="node7" class="node">
<title>L10nTimeAgoAsyncPipe</title>
<polygon fill="#ffffb3" stroke="#000000" points="667.8613,-122 508.1387,-122 508.1387,-86 667.8613,-86 667.8613,-122"/>
<text text-anchor="middle" x="588" y="-99.8" font-family="Times,serif" font-size="14.00" fill="#000000">L10nTimeAgoAsyncPipe</text>
</g>
<!-- L10nTimeAgoAsyncPipe&#45;&gt;L10nIntlModule -->
<g id="edge7" class="edge">
<title>L10nTimeAgoAsyncPipe&#45;&gt;L10nIntlModule</title>
<path fill="none" stroke="#000000" d="M633.0121,-122.1243C633.0121,-136.7832 633.0121,-155 633.0121,-155 633.0121,-155 744.7618,-155 744.7618,-155"/>
<polygon fill="#000000" stroke="#000000" points="744.7619,-158.5001 754.7618,-155 744.7618,-151.5001 744.7619,-158.5001"/>
</g>
<!-- L10nTimeAgoDirective -->
<g id="node8" class="node">
<title>L10nTimeAgoDirective</title>
<polygon fill="#ffffb3" stroke="#000000" points="489.7907,-122 338.2093,-122 338.2093,-86 489.7907,-86 489.7907,-122"/>
<text text-anchor="middle" x="414" y="-99.8" font-family="Times,serif" font-size="14.00" fill="#000000">L10nTimeAgoDirective</text>
</g>
<!-- L10nTimeAgoDirective&#45;&gt;L10nIntlModule -->
<g id="edge8" class="edge">
<title>L10nTimeAgoDirective&#45;&gt;L10nIntlModule</title>
<path fill="none" stroke="#000000" d="M452.9823,-122.0091C452.9823,-138.0494 452.9823,-159 452.9823,-159 452.9823,-159 744.9286,-159 744.9286,-159"/>
<polygon fill="#000000" stroke="#000000" points="744.9286,-162.5001 754.9286,-159 744.9285,-155.5001 744.9286,-162.5001"/>
</g>
<!-- L10nTimeAgoPipe -->
<g id="node9" class="node">
<title>L10nTimeAgoPipe</title>
<polygon fill="#ffffb3" stroke="#000000" points="320.0954,-122 195.9046,-122 195.9046,-86 320.0954,-86 320.0954,-122"/>
<text text-anchor="middle" x="258" y="-99.8" font-family="Times,serif" font-size="14.00" fill="#000000">L10nTimeAgoPipe</text>
</g>
<!-- L10nTimeAgoPipe&#45;&gt;L10nIntlModule -->
<g id="edge9" class="edge">
<title>L10nTimeAgoPipe&#45;&gt;L10nIntlModule</title>
<path fill="none" stroke="#000000" d="M281.8263,-122.0225C281.8263,-139.3734 281.8263,-163 281.8263,-163 281.8263,-163 744.5687,-163 744.5687,-163"/>
<polygon fill="#000000" stroke="#000000" points="744.5688,-166.5001 754.5687,-163 744.5687,-159.5001 744.5688,-166.5001"/>
</g>
<!-- L10nDateAsyncPipe  -->
<g id="node11" class="node">
<title>L10nDateAsyncPipe </title>
<polygon fill="#fb8072" stroke="#000000" points="1474.1327,-252 1337.8673,-252 1337.8673,-216 1474.1327,-216 1474.1327,-252"/>
<text text-anchor="middle" x="1406" y="-229.8" font-family="Times,serif" font-size="14.00" fill="#000000">L10nDateAsyncPipe </text>
</g>
<!-- L10nIntlModule&#45;&gt;L10nDateAsyncPipe  -->
<g id="edge10" class="edge">
<title>L10nIntlModule&#45;&gt;L10nDateAsyncPipe </title>
<path fill="none" stroke="#000000" stroke-dasharray="5,2" d="M863.2245,-171C1002.8725,-171 1363.9823,-171 1363.9823,-171 1363.9823,-171 1363.9823,-205.7778 1363.9823,-205.7778"/>
<polygon fill="#000000" stroke="#000000" points="1360.4824,-205.7778 1363.9823,-215.7778 1367.4824,-205.7778 1360.4824,-205.7778"/>
</g>
<!-- L10nDateDirective  -->
<g id="node12" class="node">
<title>L10nDateDirective </title>
<polygon fill="#fb8072" stroke="#000000" points="1319.5626,-252 1192.4374,-252 1192.4374,-216 1319.5626,-216 1319.5626,-252"/>
<text text-anchor="middle" x="1256" y="-229.8" font-family="Times,serif" font-size="14.00" fill="#000000">L10nDateDirective </text>
</g>
<!-- L10nIntlModule&#45;&gt;L10nDateDirective  -->
<g id="edge11" class="edge">
<title>L10nIntlModule&#45;&gt;L10nDateDirective </title>
<path fill="none" stroke="#000000" stroke-dasharray="5,2" d="M863.1967,-175C974.8896,-175 1220.3263,-175 1220.3263,-175 1220.3263,-175 1220.3263,-205.9775 1220.3263,-205.9775"/>
<polygon fill="#000000" stroke="#000000" points="1216.8263,-205.9774 1220.3263,-215.9775 1223.8263,-205.9775 1216.8263,-205.9774"/>
</g>
<!-- L10nDatePipe  -->
<g id="node13" class="node">
<title>L10nDatePipe </title>
<polygon fill="#fb8072" stroke="#000000" points="1174.3675,-252 1073.6325,-252 1073.6325,-216 1174.3675,-216 1174.3675,-252"/>
<text text-anchor="middle" x="1124" y="-229.8" font-family="Times,serif" font-size="14.00" fill="#000000">L10nDatePipe </text>
</g>
<!-- L10nIntlModule&#45;&gt;L10nDatePipe  -->
<g id="edge12" class="edge">
<title>L10nIntlModule&#45;&gt;L10nDatePipe </title>
<path fill="none" stroke="#000000" stroke-dasharray="5,2" d="M863.0943,-179C948.2375,-179 1103.928,-179 1103.928,-179 1103.928,-179 1103.928,-205.9909 1103.928,-205.9909"/>
<polygon fill="#000000" stroke="#000000" points="1100.428,-205.9909 1103.928,-215.9909 1107.428,-205.991 1100.428,-205.9909"/>
</g>
<!-- L10nNumberAsyncPipe  -->
<g id="node14" class="node">
<title>L10nNumberAsyncPipe </title>
<polygon fill="#fb8072" stroke="#000000" points="1055.5792,-252 900.4208,-252 900.4208,-216 1055.5792,-216 1055.5792,-252"/>
<text text-anchor="middle" x="978" y="-229.8" font-family="Times,serif" font-size="14.00" fill="#000000">L10nNumberAsyncPipe </text>
</g>
<!-- L10nIntlModule&#45;&gt;L10nNumberAsyncPipe  -->
<g id="edge13" class="edge">
<title>L10nIntlModule&#45;&gt;L10nNumberAsyncPipe </title>
<path fill="none" stroke="#000000" stroke-dasharray="5,2" d="M863.2998,-183C896.2451,-183 931.9823,-183 931.9823,-183 931.9823,-183 931.9823,-205.8757 931.9823,-205.8757"/>
<polygon fill="#000000" stroke="#000000" points="928.4824,-205.8757 931.9823,-215.8757 935.4824,-205.8757 928.4824,-205.8757"/>
</g>
<!-- L10nNumberDirective  -->
<g id="node15" class="node">
<title>L10nNumberDirective </title>
<polygon fill="#fb8072" stroke="#000000" points="882.5078,-252 735.4922,-252 735.4922,-216 882.5078,-216 882.5078,-252"/>
<text text-anchor="middle" x="809" y="-229.8" font-family="Times,serif" font-size="14.00" fill="#000000">L10nNumberDirective </text>
</g>
<!-- L10nIntlModule&#45;&gt;L10nNumberDirective  -->
<g id="edge14" class="edge">
<title>L10nIntlModule&#45;&gt;L10nNumberDirective </title>
<path fill="none" stroke="#000000" stroke-dasharray="5,2" d="M809,-187.1061C809,-187.1061 809,-205.991 809,-205.991"/>
<polygon fill="#000000" stroke="#000000" points="805.5001,-205.9909 809,-215.991 812.5001,-205.991 805.5001,-205.9909"/>
</g>
<!-- L10nNumberPipe  -->
<g id="node16" class="node">
<title>L10nNumberPipe </title>
<polygon fill="#fb8072" stroke="#000000" points="717.8129,-252 598.1871,-252 598.1871,-216 717.8129,-216 717.8129,-252"/>
<text text-anchor="middle" x="658" y="-229.8" font-family="Times,serif" font-size="14.00" fill="#000000">L10nNumberPipe </text>
</g>
<!-- L10nIntlModule&#45;&gt;L10nNumberPipe  -->
<g id="edge15" class="edge">
<title>L10nIntlModule&#45;&gt;L10nNumberPipe </title>
<path fill="none" stroke="#000000" stroke-dasharray="5,2" d="M754.8098,-183C728.2394,-183 701.875,-183 701.875,-183 701.875,-183 701.875,-205.8757 701.875,-205.8757"/>
<polygon fill="#000000" stroke="#000000" points="698.3751,-205.8757 701.875,-215.8757 705.3751,-205.8757 698.3751,-205.8757"/>
</g>
<!-- L10nTimeAgoAsyncPipe  -->
<g id="node17" class="node">
<title>L10nTimeAgoAsyncPipe </title>
<polygon fill="#fb8072" stroke="#000000" points="579.8616,-252 416.1384,-252 416.1384,-216 579.8616,-216 579.8616,-252"/>
<text text-anchor="middle" x="498" y="-229.8" font-family="Times,serif" font-size="14.00" fill="#000000">L10nTimeAgoAsyncPipe </text>
</g>
<!-- L10nIntlModule&#45;&gt;L10nTimeAgoAsyncPipe  -->
<g id="edge16" class="edge">
<title>L10nIntlModule&#45;&gt;L10nTimeAgoAsyncPipe </title>
<path fill="none" stroke="#000000" stroke-dasharray="5,2" d="M754.7082,-179C677.1424,-179 543.875,-179 543.875,-179 543.875,-179 543.875,-205.9909 543.875,-205.9909"/>
<polygon fill="#000000" stroke="#000000" points="540.3751,-205.9909 543.875,-215.9909 547.3751,-205.991 540.3751,-205.9909"/>
</g>
<!-- L10nTimeAgoDirective  -->
<g id="node18" class="node">
<title>L10nTimeAgoDirective </title>
<polygon fill="#fb8072" stroke="#000000" points="398.2905,-252 243.7095,-252 243.7095,-216 398.2905,-216 398.2905,-252"/>
<text text-anchor="middle" x="321" y="-229.8" font-family="Times,serif" font-size="14.00" fill="#000000">L10nTimeAgoDirective </text>
</g>
<!-- L10nIntlModule&#45;&gt;L10nTimeAgoDirective  -->
<g id="edge17" class="edge">
<title>L10nIntlModule&#45;&gt;L10nTimeAgoDirective </title>
<path fill="none" stroke="#000000" stroke-dasharray="5,2" d="M754.5288,-175C636.6392,-175 368.375,-175 368.375,-175 368.375,-175 368.375,-205.9775 368.375,-205.9775"/>
<polygon fill="#000000" stroke="#000000" points="364.8751,-205.9774 368.375,-215.9775 371.8751,-205.9775 364.8751,-205.9774"/>
</g>
<!-- L10nTimeAgoPipe  -->
<g id="node19" class="node">
<title>L10nTimeAgoPipe </title>
<polygon fill="#fb8072" stroke="#000000" points="225.596,-252 98.404,-252 98.404,-216 225.596,-216 225.596,-252"/>
<text text-anchor="middle" x="162" y="-229.8" font-family="Times,serif" font-size="14.00" fill="#000000">L10nTimeAgoPipe </text>
</g>
<!-- L10nIntlModule&#45;&gt;L10nTimeAgoPipe  -->
<g id="edge18" class="edge">
<title>L10nIntlModule&#45;&gt;L10nTimeAgoPipe </title>
<path fill="none" stroke="#000000" stroke-dasharray="5,2" d="M754.8655,-171C607.6316,-171 210.875,-171 210.875,-171 210.875,-171 210.875,-205.7778 210.875,-205.7778"/>
<polygon fill="#000000" stroke="#000000" points="207.3751,-205.7778 210.875,-215.7778 214.3751,-205.7778 207.3751,-205.7778"/>
</g>
<!-- L10nIntlService -->
<g id="node20" class="node">
<title>L10nIntlService</title>
<ellipse fill="#fdb462" stroke="#000000" cx="98" cy="-104" rx="73.5753" ry="18"/>
<text text-anchor="middle" x="98" y="-99.8" font-family="Times,serif" font-size="14.00" fill="#000000">L10nIntlService</text>
</g>
<!-- L10nIntlService&#45;&gt;L10nIntlModule -->
<g id="edge19" class="edge">
<title>L10nIntlService&#45;&gt;L10nIntlModule</title>
<path fill="none" stroke="#000000" d="M134.9948,-119.8976C134.9948,-138.5608 134.9948,-167 134.9948,-167 134.9948,-167 744.6988,-167 744.6988,-167"/>
<polygon fill="#000000" stroke="#000000" points="744.6988,-170.5001 754.6988,-167 744.6987,-163.5001 744.6988,-170.5001"/>
</g>
</g>
</svg>
