<?xml version="1.0" encoding="UTF-8" standalone="no"?>
<!DOCTYPE svg PUBLIC "-//W3C//DTD SVG 1.1//EN"
 "http://www.w3.org/Graphics/SVG/1.1/DTD/svg11.dtd">
<!-- Generated by graphviz version 2.47.3 (20210619.1520)
 -->
<!-- Title: dependencies Pages: 1 -->
<svg width="2575pt" height="247pt"
 viewBox="0.00 0.00 2575.00 246.80" xmlns="http://www.w3.org/2000/svg" xmlns:xlink="http://www.w3.org/1999/xlink">
<g id="graph0" class="graph" transform="scale(1 1) rotate(0) translate(4 242.8)">
<title>dependencies</title>
<polygon fill="white" stroke="transparent" points="-4,4 -4,-242.8 2571,-242.8 2571,4 -4,4"/>
<text text-anchor="middle" x="1283.5" y="-8.2" font-family="sans-serif" font-size="14.00">dependencies</text>
<g id="clust1" class="cluster">
<title>cluster_L10nIntlModule</title>
<polygon fill="none" stroke="black" stroke-dasharray="1,5" points="8,-32.8 8,-230.8 2559,-230.8 2559,-32.8 8,-32.8"/>
</g>
<g id="clust6" class="cluster">
<title>cluster_L10nIntlModule_providers</title>
<polygon fill="none" stroke="black" points="2387,-40.8 2387,-92.8 2551,-92.8 2551,-40.8 2387,-40.8"/>
</g>
<g id="clust3" class="cluster">
<title>cluster_L10nIntlModule_imports</title>
<polygon fill="none" stroke="black" points="16,-40.8 16,-92.8 2379,-92.8 2379,-40.8 16,-40.8"/>
</g>
<g id="clust4" class="cluster">
<title>cluster_L10nIntlModule_exports</title>
<polygon fill="none" stroke="black" points="75,-170.8 75,-222.8 2491,-222.8 2491,-170.8 75,-170.8"/>
</g>
<!-- L10nDateAsyncPipe -->
<g id="node1" class="node">
<title>L10nDateAsyncPipe</title>
<polygon fill="#8dd3c7" stroke="black" points="2371.13,-84.8 2368.13,-88.8 2347.13,-88.8 2344.13,-84.8 2238.87,-84.8 2238.87,-48.8 2371.13,-48.8 2371.13,-84.8"/>
<text text-anchor="middle" x="2305" y="-62.6" font-family="Times,serif" font-size="14.00">L10nDateAsyncPipe</text>
</g>
<!-- L10nIntlModule -->
<g id="node16" class="node">
<title>L10nIntlModule</title>
<polygon fill="#8dd3c7" stroke="black" points="1286.05,-149.8 1283.05,-153.8 1262.05,-153.8 1259.05,-149.8 1177.95,-149.8 1177.95,-113.8 1286.05,-113.8 1286.05,-149.8"/>
<text text-anchor="middle" x="1232" y="-127.6" font-family="Times,serif" font-size="14.00">L10nIntlModule</text>
</g>
<!-- L10nDateAsyncPipe&#45;&gt;L10nIntlModule -->
<g id="edge1" class="edge">
<title>L10nDateAsyncPipe&#45;&gt;L10nIntlModule</title>
<path fill="none" stroke="black" d="M2283.73,-85.07C2283.73,-103.36 2283.73,-128.8 2283.73,-128.8 2283.73,-128.8 1296.33,-128.8 1296.33,-128.8"/>
<polygon fill="black" stroke="black" points="1296.33,-125.3 1286.33,-128.8 1296.33,-132.3 1296.33,-125.3"/>
</g>
<!-- L10nDateDirective -->
<g id="node2" class="node">
<title>L10nDateDirective</title>
<polygon fill="#8dd3c7" stroke="black" points="2221.06,-84.8 2218.06,-88.8 2197.06,-88.8 2194.06,-84.8 2096.94,-84.8 2096.94,-48.8 2221.06,-48.8 2221.06,-84.8"/>
<text text-anchor="middle" x="2159" y="-62.6" font-family="Times,serif" font-size="14.00">L10nDateDirective</text>
</g>
<!-- L10nDateDirective&#45;&gt;L10nIntlModule -->
<g id="edge2" class="edge">
<title>L10nDateDirective&#45;&gt;L10nIntlModule</title>
<path fill="none" stroke="black" d="M2140.08,-84.82C2140.08,-102.17 2140.08,-125.8 2140.08,-125.8 2140.08,-125.8 1296.08,-125.8 1296.08,-125.8"/>
<polygon fill="black" stroke="black" points="1296.08,-122.3 1286.08,-125.8 1296.08,-129.3 1296.08,-122.3"/>
</g>
<!-- L10nDatePipe -->
<g id="node3" class="node">
<title>L10nDatePipe</title>
<polygon fill="#8dd3c7" stroke="black" points="2079.37,-84.8 2076.37,-88.8 2055.37,-88.8 2052.37,-84.8 1982.63,-84.8 1982.63,-48.8 2079.37,-48.8 2079.37,-84.8"/>
<text text-anchor="middle" x="2031" y="-62.6" font-family="Times,serif" font-size="14.00">L10nDatePipe</text>
</g>
<!-- L10nDatePipe&#45;&gt;L10nIntlModule -->
<g id="edge3" class="edge">
<title>L10nDatePipe&#45;&gt;L10nIntlModule</title>
<path fill="none" stroke="black" d="M2023.81,-84.84C2023.81,-101.53 2023.81,-123.8 2023.81,-123.8 2023.81,-123.8 1296.11,-123.8 1296.11,-123.8"/>
<polygon fill="black" stroke="black" points="1296.11,-120.3 1286.11,-123.8 1296.11,-127.3 1296.11,-120.3"/>
</g>
<!-- L10nDisplayNamesAsyncPipe -->
<g id="node4" class="node">
<title>L10nDisplayNamesAsyncPipe</title>
<polygon fill="#8dd3c7" stroke="black" points="1964.12,-84.8 1961.12,-88.8 1940.12,-88.8 1937.12,-84.8 1775.88,-84.8 1775.88,-48.8 1964.12,-48.8 1964.12,-84.8"/>
<text text-anchor="middle" x="1870" y="-62.6" font-family="Times,serif" font-size="14.00">L10nDisplayNamesAsyncPipe</text>
</g>
<!-- L10nDisplayNamesAsyncPipe&#45;&gt;L10nIntlModule -->
<g id="edge4" class="edge">
<title>L10nDisplayNamesAsyncPipe&#45;&gt;L10nIntlModule</title>
<path fill="none" stroke="black" d="M1815.23,-84.81C1815.23,-100.85 1815.23,-121.8 1815.23,-121.8 1815.23,-121.8 1296.08,-121.8 1296.08,-121.8"/>
<polygon fill="black" stroke="black" points="1296.08,-118.3 1286.08,-121.8 1296.08,-125.3 1296.08,-118.3"/>
</g>
<!-- L10nDisplayNamesDirective -->
<g id="node5" class="node">
<title>L10nDisplayNamesDirective</title>
<polygon fill="#8dd3c7" stroke="black" points="1758.05,-84.8 1755.05,-88.8 1734.05,-88.8 1731.05,-84.8 1577.95,-84.8 1577.95,-48.8 1758.05,-48.8 1758.05,-84.8"/>
<text text-anchor="middle" x="1668" y="-62.6" font-family="Times,serif" font-size="14.00">L10nDisplayNamesDirective</text>
</g>
<!-- L10nDisplayNamesDirective&#45;&gt;L10nIntlModule -->
<g id="edge5" class="edge">
<title>L10nDisplayNamesDirective&#45;&gt;L10nIntlModule</title>
<path fill="none" stroke="black" d="M1615.58,-84.99C1615.58,-99.98 1615.58,-118.8 1615.58,-118.8 1615.58,-118.8 1296.14,-118.8 1296.14,-118.8"/>
<polygon fill="black" stroke="black" points="1296.14,-115.3 1286.14,-118.8 1296.14,-122.3 1296.14,-115.3"/>
</g>
<!-- L10nDisplayNamesPipe -->
<g id="node6" class="node">
<title>L10nDisplayNamesPipe</title>
<polygon fill="#8dd3c7" stroke="black" points="1560.36,-84.8 1557.36,-88.8 1536.36,-88.8 1533.36,-84.8 1407.64,-84.8 1407.64,-48.8 1560.36,-48.8 1560.36,-84.8"/>
<text text-anchor="middle" x="1484" y="-62.6" font-family="Times,serif" font-size="14.00">L10nDisplayNamesPipe</text>
</g>
<!-- L10nDisplayNamesPipe&#45;&gt;L10nIntlModule -->
<g id="edge6" class="edge">
<title>L10nDisplayNamesPipe&#45;&gt;L10nIntlModule</title>
<path fill="none" stroke="black" d="M1443.18,-84.85C1443.18,-99.17 1443.18,-116.8 1443.18,-116.8 1443.18,-116.8 1296.11,-116.8 1296.11,-116.8"/>
<polygon fill="black" stroke="black" points="1296.11,-113.3 1286.11,-116.8 1296.11,-120.3 1296.11,-113.3"/>
</g>
<!-- L10nNumberAsyncPipe -->
<g id="node7" class="node">
<title>L10nNumberAsyncPipe</title>
<polygon fill="#8dd3c7" stroke="black" points="1390.08,-84.8 1387.08,-88.8 1366.08,-88.8 1363.08,-84.8 1237.92,-84.8 1237.92,-48.8 1390.08,-48.8 1390.08,-84.8"/>
<text text-anchor="middle" x="1314" y="-62.6" font-family="Times,serif" font-size="14.00">L10nNumberAsyncPipe</text>
</g>
<!-- L10nNumberAsyncPipe&#45;&gt;L10nIntlModule -->
<g id="edge7" class="edge">
<title>L10nNumberAsyncPipe&#45;&gt;L10nIntlModule</title>
<path fill="none" stroke="black" d="M1262.12,-84.91C1262.12,-84.91 1262.12,-103.79 1262.12,-103.79"/>
<polygon fill="black" stroke="black" points="1258.62,-103.79 1262.12,-113.79 1265.62,-103.79 1258.62,-103.79"/>
</g>
<!-- L10nNumberDirective -->
<g id="node8" class="node">
<title>L10nNumberDirective</title>
<polygon fill="#8dd3c7" stroke="black" points="1219.51,-84.8 1216.51,-88.8 1195.51,-88.8 1192.51,-84.8 1076.49,-84.8 1076.49,-48.8 1219.51,-48.8 1219.51,-84.8"/>
<text text-anchor="middle" x="1148" y="-62.6" font-family="Times,serif" font-size="14.00">L10nNumberDirective</text>
</g>
<!-- L10nNumberDirective&#45;&gt;L10nIntlModule -->
<g id="edge8" class="edge">
<title>L10nNumberDirective&#45;&gt;L10nIntlModule</title>
<path fill="none" stroke="black" d="M1198.74,-84.91C1198.74,-84.91 1198.74,-103.79 1198.74,-103.79"/>
<polygon fill="black" stroke="black" points="1195.24,-103.79 1198.74,-113.79 1202.24,-103.79 1195.24,-103.79"/>
</g>
<!-- L10nNumberPipe -->
<g id="node9" class="node">
<title>L10nNumberPipe</title>
<polygon fill="#8dd3c7" stroke="black" points="1058.31,-84.8 1055.31,-88.8 1034.31,-88.8 1031.31,-84.8 941.69,-84.8 941.69,-48.8 1058.31,-48.8 1058.31,-84.8"/>
<text text-anchor="middle" x="1000" y="-62.6" font-family="Times,serif" font-size="14.00">L10nNumberPipe</text>
</g>
<!-- L10nNumberPipe&#45;&gt;L10nIntlModule -->
<g id="edge9" class="edge">
<title>L10nNumberPipe&#45;&gt;L10nIntlModule</title>
<path fill="none" stroke="black" d="M1039.62,-84.85C1039.62,-99.17 1039.62,-116.8 1039.62,-116.8 1039.62,-116.8 1167.9,-116.8 1167.9,-116.8"/>
<polygon fill="black" stroke="black" points="1167.9,-120.3 1177.9,-116.8 1167.9,-113.3 1167.9,-120.3"/>
</g>
<!-- L10nPluralAsyncPipe -->
<g id="node10" class="node">
<title>L10nPluralAsyncPipe</title>
<polygon fill="#8dd3c7" stroke="black" points="923.65,-84.8 920.65,-88.8 899.65,-88.8 896.65,-84.8 784.35,-84.8 784.35,-48.8 923.65,-48.8 923.65,-84.8"/>
<text text-anchor="middle" x="854" y="-62.6" font-family="Times,serif" font-size="14.00">L10nPluralAsyncPipe</text>
</g>
<!-- L10nPluralAsyncPipe&#45;&gt;L10nIntlModule -->
<g id="edge10" class="edge">
<title>L10nPluralAsyncPipe&#45;&gt;L10nIntlModule</title>
<path fill="none" stroke="black" d="M892.12,-84.99C892.12,-99.98 892.12,-118.8 892.12,-118.8 892.12,-118.8 1167.77,-118.8 1167.77,-118.8"/>
<polygon fill="black" stroke="black" points="1167.77,-122.3 1177.77,-118.8 1167.77,-115.3 1167.77,-122.3"/>
</g>
<!-- L10nPluralDirective -->
<g id="node11" class="node">
<title>L10nPluralDirective</title>
<polygon fill="#8dd3c7" stroke="black" points="766.57,-84.8 763.57,-88.8 742.57,-88.8 739.57,-84.8 635.43,-84.8 635.43,-48.8 766.57,-48.8 766.57,-84.8"/>
<text text-anchor="middle" x="701" y="-62.6" font-family="Times,serif" font-size="14.00">L10nPluralDirective</text>
</g>
<!-- L10nPluralDirective&#45;&gt;L10nIntlModule -->
<g id="edge11" class="edge">
<title>L10nPluralDirective&#45;&gt;L10nIntlModule</title>
<path fill="none" stroke="black" d="M737.12,-84.81C737.12,-100.85 737.12,-121.8 737.12,-121.8 737.12,-121.8 1167.62,-121.8 1167.62,-121.8"/>
<polygon fill="black" stroke="black" points="1167.62,-125.3 1177.62,-121.8 1167.62,-118.3 1167.62,-125.3"/>
</g>
<!-- L10nPluralPipe -->
<g id="node12" class="node">
<title>L10nPluralPipe</title>
<polygon fill="#8dd3c7" stroke="black" points="617.88,-84.8 614.88,-88.8 593.88,-88.8 590.88,-84.8 514.12,-84.8 514.12,-48.8 617.88,-48.8 617.88,-84.8"/>
<text text-anchor="middle" x="566" y="-62.6" font-family="Times,serif" font-size="14.00">L10nPluralPipe</text>
</g>
<!-- L10nPluralPipe&#45;&gt;L10nIntlModule -->
<g id="edge12" class="edge">
<title>L10nPluralPipe&#45;&gt;L10nIntlModule</title>
<path fill="none" stroke="black" d="M600.12,-84.84C600.12,-101.53 600.12,-123.8 600.12,-123.8 600.12,-123.8 1167.85,-123.8 1167.85,-123.8"/>
<polygon fill="black" stroke="black" points="1167.85,-127.3 1177.85,-123.8 1167.85,-120.3 1167.85,-127.3"/>
</g>
<!-- L10nTimeAgoAsyncPipe -->
<g id="node13" class="node">
<title>L10nTimeAgoAsyncPipe</title>
<polygon fill="#8dd3c7" stroke="black" points="495.86,-84.8 492.86,-88.8 471.86,-88.8 468.86,-84.8 336.14,-84.8 336.14,-48.8 495.86,-48.8 495.86,-84.8"/>
<text text-anchor="middle" x="416" y="-62.6" font-family="Times,serif" font-size="14.00">L10nTimeAgoAsyncPipe</text>
</g>
<!-- L10nTimeAgoAsyncPipe&#45;&gt;L10nIntlModule -->
<g id="edge13" class="edge">
<title>L10nTimeAgoAsyncPipe&#45;&gt;L10nIntlModule</title>
<path fill="none" stroke="black" d="M448.62,-84.82C448.62,-102.17 448.62,-125.8 448.62,-125.8 448.62,-125.8 1167.85,-125.8 1167.85,-125.8"/>
<polygon fill="black" stroke="black" points="1167.85,-129.3 1177.85,-125.8 1167.85,-122.3 1167.85,-129.3"/>
</g>
<!-- L10nTimeAgoDirective -->
<g id="node14" class="node">
<title>L10nTimeAgoDirective</title>
<polygon fill="#8dd3c7" stroke="black" points="317.79,-84.8 314.79,-88.8 293.79,-88.8 290.79,-84.8 166.21,-84.8 166.21,-48.8 317.79,-48.8 317.79,-84.8"/>
<text text-anchor="middle" x="242" y="-62.6" font-family="Times,serif" font-size="14.00">L10nTimeAgoDirective</text>
</g>
<!-- L10nTimeAgoDirective&#45;&gt;L10nIntlModule -->
<g id="edge14" class="edge">
<title>L10nTimeAgoDirective&#45;&gt;L10nIntlModule</title>
<path fill="none" stroke="black" d="M273.12,-85.07C273.12,-103.36 273.12,-128.8 273.12,-128.8 273.12,-128.8 1167.7,-128.8 1167.7,-128.8"/>
<polygon fill="black" stroke="black" points="1167.7,-132.3 1177.7,-128.8 1167.7,-125.3 1167.7,-132.3"/>
</g>
<!-- L10nTimeAgoPipe -->
<g id="node15" class="node">
<title>L10nTimeAgoPipe</title>
<polygon fill="#8dd3c7" stroke="black" points="148.1,-84.8 145.1,-88.8 124.1,-88.8 121.1,-84.8 23.9,-84.8 23.9,-48.8 148.1,-48.8 148.1,-84.8"/>
<text text-anchor="middle" x="86" y="-62.6" font-family="Times,serif" font-size="14.00">L10nTimeAgoPipe</text>
</g>
<!-- L10nTimeAgoPipe&#45;&gt;L10nIntlModule -->
<g id="edge15" class="edge">
<title>L10nTimeAgoPipe&#45;&gt;L10nIntlModule</title>
<path fill="none" stroke="black" d="M115.62,-84.97C115.62,-103.89 115.62,-130.8 115.62,-130.8 115.62,-130.8 1167.78,-130.8 1167.78,-130.8"/>
<polygon fill="black" stroke="black" points="1167.78,-134.3 1177.78,-130.8 1167.78,-127.3 1167.78,-134.3"/>
</g>
<!-- L10nDateAsyncPipe  -->
<g id="node17" class="node">
<title>L10nDateAsyncPipe </title>
<polygon fill="#fb8072" stroke="black" points="2483.13,-214.8 2346.87,-214.8 2346.87,-178.8 2483.13,-178.8 2483.13,-214.8"/>
<text text-anchor="middle" x="2415" y="-192.6" font-family="Times,serif" font-size="14.00">L10nDateAsyncPipe </text>
</g>
<!-- L10nIntlModule&#45;&gt;L10nDateAsyncPipe  -->
<g id="edge16" class="edge">
<title>L10nIntlModule&#45;&gt;L10nDateAsyncPipe </title>
<path fill="none" stroke="black" stroke-dasharray="5,2" d="M1286.36,-133.8C1511.51,-133.8 2359.12,-133.8 2359.12,-133.8 2359.12,-133.8 2359.12,-168.58 2359.12,-168.58"/>
<polygon fill="black" stroke="black" points="2355.63,-168.58 2359.12,-178.58 2362.63,-168.58 2355.63,-168.58"/>
</g>
<!-- L10nDateDirective  -->
<g id="node18" class="node">
<title>L10nDateDirective </title>
<polygon fill="#fb8072" stroke="black" points="2328.56,-214.8 2201.44,-214.8 2201.44,-178.8 2328.56,-178.8 2328.56,-214.8"/>
<text text-anchor="middle" x="2265" y="-192.6" font-family="Times,serif" font-size="14.00">L10nDateDirective </text>
</g>
<!-- L10nIntlModule&#45;&gt;L10nDateDirective  -->
<g id="edge17" class="edge">
<title>L10nIntlModule&#45;&gt;L10nDateDirective </title>
<path fill="none" stroke="black" stroke-dasharray="5,2" d="M1286.39,-135.8C1492.12,-135.8 2211.12,-135.8 2211.12,-135.8 2211.12,-135.8 2211.12,-168.5 2211.12,-168.5"/>
<polygon fill="black" stroke="black" points="2207.63,-168.5 2211.12,-178.5 2214.63,-168.5 2207.63,-168.5"/>
</g>
<!-- L10nDatePipe  -->
<g id="node19" class="node">
<title>L10nDatePipe </title>
<polygon fill="#fb8072" stroke="black" points="2183.37,-214.8 2082.63,-214.8 2082.63,-178.8 2183.37,-178.8 2183.37,-214.8"/>
<text text-anchor="middle" x="2133" y="-192.6" font-family="Times,serif" font-size="14.00">L10nDatePipe </text>
</g>
<!-- L10nIntlModule&#45;&gt;L10nDatePipe  -->
<g id="edge18" class="edge">
<title>L10nIntlModule&#45;&gt;L10nDatePipe </title>
<path fill="none" stroke="black" stroke-dasharray="5,2" d="M1286.32,-137.8C1474.9,-137.8 2089.89,-137.8 2089.89,-137.8 2089.89,-137.8 2089.89,-168.78 2089.89,-168.78"/>
<polygon fill="black" stroke="black" points="2086.39,-168.78 2089.89,-178.78 2093.39,-168.78 2086.39,-168.78"/>
</g>
<!-- L10nDisplayNamesAsyncPipe  -->
<g id="node20" class="node">
<title>L10nDisplayNamesAsyncPipe </title>
<polygon fill="#fb8072" stroke="black" points="2065.12,-214.8 1872.88,-214.8 1872.88,-178.8 2065.12,-178.8 2065.12,-214.8"/>
<text text-anchor="middle" x="1969" y="-192.6" font-family="Times,serif" font-size="14.00">L10nDisplayNamesAsyncPipe </text>
</g>
<!-- L10nIntlModule&#45;&gt;L10nDisplayNamesAsyncPipe  -->
<g id="edge19" class="edge">
<title>L10nIntlModule&#45;&gt;L10nDisplayNamesAsyncPipe </title>
<path fill="none" stroke="black" stroke-dasharray="5,2" d="M1286.16,-140.8C1448.3,-140.8 1918.62,-140.8 1918.62,-140.8 1918.62,-140.8 1918.62,-168.77 1918.62,-168.77"/>
<polygon fill="black" stroke="black" points="1915.13,-168.77 1918.62,-178.77 1922.13,-168.77 1915.13,-168.77"/>
</g>
<!-- L10nDisplayNamesDirective  -->
<g id="node21" class="node">
<title>L10nDisplayNamesDirective </title>
<polygon fill="#fb8072" stroke="black" points="1854.55,-214.8 1671.45,-214.8 1671.45,-178.8 1854.55,-178.8 1854.55,-214.8"/>
<text text-anchor="middle" x="1763" y="-192.6" font-family="Times,serif" font-size="14.00">L10nDisplayNamesDirective </text>
</g>
<!-- L10nIntlModule&#45;&gt;L10nDisplayNamesDirective  -->
<g id="edge20" class="edge">
<title>L10nIntlModule&#45;&gt;L10nDisplayNamesDirective </title>
<path fill="none" stroke="black" stroke-dasharray="5,2" d="M1286.43,-142.8C1412.64,-142.8 1714.62,-142.8 1714.62,-142.8 1714.62,-142.8 1714.62,-168.52 1714.62,-168.52"/>
<polygon fill="black" stroke="black" points="1711.13,-168.52 1714.62,-178.52 1718.13,-168.52 1711.13,-168.52"/>
</g>
<!-- L10nDisplayNamesPipe  -->
<g id="node22" class="node">
<title>L10nDisplayNamesPipe </title>
<polygon fill="#fb8072" stroke="black" points="1653.36,-214.8 1496.64,-214.8 1496.64,-178.8 1653.36,-178.8 1653.36,-214.8"/>
<text text-anchor="middle" x="1575" y="-192.6" font-family="Times,serif" font-size="14.00">L10nDisplayNamesPipe </text>
</g>
<!-- L10nIntlModule&#45;&gt;L10nDisplayNamesPipe  -->
<g id="edge21" class="edge">
<title>L10nIntlModule&#45;&gt;L10nDisplayNamesPipe </title>
<path fill="none" stroke="black" stroke-dasharray="5,2" d="M1286.06,-145.8C1371.62,-145.8 1528.62,-145.8 1528.62,-145.8 1528.62,-145.8 1528.62,-168.68 1528.62,-168.68"/>
<polygon fill="black" stroke="black" points="1525.13,-168.68 1528.62,-178.68 1532.13,-168.68 1525.13,-168.68"/>
</g>
<!-- L10nNumberAsyncPipe  -->
<g id="node23" class="node">
<title>L10nNumberAsyncPipe </title>
<polygon fill="#fb8072" stroke="black" points="1478.58,-214.8 1323.42,-214.8 1323.42,-178.8 1478.58,-178.8 1478.58,-214.8"/>
<text text-anchor="middle" x="1401" y="-192.6" font-family="Times,serif" font-size="14.00">L10nNumberAsyncPipe </text>
</g>
<!-- L10nIntlModule&#45;&gt;L10nNumberAsyncPipe  -->
<g id="edge22" class="edge">
<title>L10nIntlModule&#45;&gt;L10nNumberAsyncPipe </title>
<path fill="none" stroke="black" stroke-dasharray="5,2" d="M1286.3,-147.8C1319.88,-147.8 1356.62,-147.8 1356.62,-147.8 1356.62,-147.8 1356.62,-168.55 1356.62,-168.55"/>
<polygon fill="black" stroke="black" points="1353.13,-168.55 1356.62,-178.55 1360.13,-168.55 1353.13,-168.55"/>
</g>
<!-- L10nNumberDirective  -->
<g id="node24" class="node">
<title>L10nNumberDirective </title>
<polygon fill="#fb8072" stroke="black" points="1305.51,-214.8 1158.49,-214.8 1158.49,-178.8 1305.51,-178.8 1305.51,-214.8"/>
<text text-anchor="middle" x="1232" y="-192.6" font-family="Times,serif" font-size="14.00">L10nNumberDirective </text>
</g>
<!-- L10nIntlModule&#45;&gt;L10nNumberDirective  -->
<g id="edge23" class="edge">
<title>L10nIntlModule&#45;&gt;L10nNumberDirective </title>
<path fill="none" stroke="black" stroke-dasharray="5,2" d="M1232,-149.91C1232,-149.91 1232,-168.79 1232,-168.79"/>
<polygon fill="black" stroke="black" points="1228.5,-168.79 1232,-178.79 1235.5,-168.79 1228.5,-168.79"/>
</g>
<!-- L10nNumberPipe  -->
<g id="node25" class="node">
<title>L10nNumberPipe </title>
<polygon fill="#fb8072" stroke="black" points="1140.81,-214.8 1021.19,-214.8 1021.19,-178.8 1140.81,-178.8 1140.81,-214.8"/>
<text text-anchor="middle" x="1081" y="-192.6" font-family="Times,serif" font-size="14.00">L10nNumberPipe </text>
</g>
<!-- L10nIntlModule&#45;&gt;L10nNumberPipe  -->
<g id="edge24" class="edge">
<title>L10nIntlModule&#45;&gt;L10nNumberPipe </title>
<path fill="none" stroke="black" stroke-dasharray="5,2" d="M1177.86,-147.8C1144.7,-147.8 1108.58,-147.8 1108.58,-147.8 1108.58,-147.8 1108.58,-168.55 1108.58,-168.55"/>
<polygon fill="black" stroke="black" points="1105.08,-168.55 1108.58,-178.55 1112.08,-168.55 1105.08,-168.55"/>
</g>
<!-- L10nPluralAsyncPipe  -->
<g id="node26" class="node">
<title>L10nPluralAsyncPipe </title>
<polygon fill="#fb8072" stroke="black" points="1003.65,-214.8 860.35,-214.8 860.35,-178.8 1003.65,-178.8 1003.65,-214.8"/>
<text text-anchor="middle" x="932" y="-192.6" font-family="Times,serif" font-size="14.00">L10nPluralAsyncPipe </text>
</g>
<!-- L10nIntlModule&#45;&gt;L10nPluralAsyncPipe  -->
<g id="edge25" class="edge">
<title>L10nIntlModule&#45;&gt;L10nPluralAsyncPipe </title>
<path fill="none" stroke="black" stroke-dasharray="5,2" d="M1177.64,-145.8C1101.61,-145.8 972.71,-145.8 972.71,-145.8 972.71,-145.8 972.71,-168.68 972.71,-168.68"/>
<polygon fill="black" stroke="black" points="969.21,-168.68 972.71,-178.68 976.21,-168.68 969.21,-168.68"/>
</g>
<!-- L10nPluralDirective  -->
<g id="node27" class="node">
<title>L10nPluralDirective </title>
<polygon fill="#fb8072" stroke="black" points="842.08,-214.8 707.92,-214.8 707.92,-178.8 842.08,-178.8 842.08,-214.8"/>
<text text-anchor="middle" x="775" y="-192.6" font-family="Times,serif" font-size="14.00">L10nPluralDirective </text>
</g>
<!-- L10nIntlModule&#45;&gt;L10nPluralDirective  -->
<g id="edge26" class="edge">
<title>L10nIntlModule&#45;&gt;L10nPluralDirective </title>
<path fill="none" stroke="black" stroke-dasharray="5,2" d="M1177.68,-142.8C1064.37,-142.8 813.23,-142.8 813.23,-142.8 813.23,-142.8 813.23,-168.52 813.23,-168.52"/>
<polygon fill="black" stroke="black" points="809.73,-168.52 813.23,-178.52 816.73,-168.52 809.73,-168.52"/>
</g>
<!-- L10nPluralPipe  -->
<g id="node28" class="node">
<title>L10nPluralPipe </title>
<polygon fill="#fb8072" stroke="black" points="689.88,-214.8 582.12,-214.8 582.12,-178.8 689.88,-178.8 689.88,-214.8"/>
<text text-anchor="middle" x="636" y="-192.6" font-family="Times,serif" font-size="14.00">L10nPluralPipe </text>
</g>
<!-- L10nIntlModule&#45;&gt;L10nPluralPipe  -->
<g id="edge27" class="edge">
<title>L10nIntlModule&#45;&gt;L10nPluralPipe </title>
<path fill="none" stroke="black" stroke-dasharray="5,2" d="M1177.92,-140.8C1035.78,-140.8 662.58,-140.8 662.58,-140.8 662.58,-140.8 662.58,-168.77 662.58,-168.77"/>
<polygon fill="black" stroke="black" points="659.08,-168.77 662.58,-178.77 666.08,-168.77 659.08,-168.77"/>
</g>
<!-- L10nTimeAgoAsyncPipe  -->
<g id="node29" class="node">
<title>L10nTimeAgoAsyncPipe </title>
<polygon fill="#fb8072" stroke="black" points="564.86,-214.8 401.14,-214.8 401.14,-178.8 564.86,-178.8 564.86,-214.8"/>
<text text-anchor="middle" x="483" y="-192.6" font-family="Times,serif" font-size="14.00">L10nTimeAgoAsyncPipe </text>
</g>
<!-- L10nIntlModule&#45;&gt;L10nTimeAgoAsyncPipe  -->
<g id="edge28" class="edge">
<title>L10nIntlModule&#45;&gt;L10nTimeAgoAsyncPipe </title>
<path fill="none" stroke="black" stroke-dasharray="5,2" d="M1177.94,-137.8C1014.93,-137.8 539.37,-137.8 539.37,-137.8 539.37,-137.8 539.37,-168.78 539.37,-168.78"/>
<polygon fill="black" stroke="black" points="535.87,-168.78 539.37,-178.78 542.87,-168.78 535.87,-168.78"/>
</g>
<!-- L10nTimeAgoDirective  -->
<g id="node30" class="node">
<title>L10nTimeAgoDirective </title>
<polygon fill="#fb8072" stroke="black" points="383.29,-214.8 228.71,-214.8 228.71,-178.8 383.29,-178.8 383.29,-214.8"/>
<text text-anchor="middle" x="306" y="-192.6" font-family="Times,serif" font-size="14.00">L10nTimeAgoDirective </text>
</g>
<!-- L10nIntlModule&#45;&gt;L10nTimeAgoDirective  -->
<g id="edge29" class="edge">
<title>L10nIntlModule&#45;&gt;L10nTimeAgoDirective </title>
<path fill="none" stroke="black" stroke-dasharray="5,2" d="M1177.77,-135.8C987.2,-135.8 359.73,-135.8 359.73,-135.8 359.73,-135.8 359.73,-168.5 359.73,-168.5"/>
<polygon fill="black" stroke="black" points="356.23,-168.5 359.73,-178.5 363.23,-168.5 356.23,-168.5"/>
</g>
<!-- L10nTimeAgoPipe  -->
<g id="node31" class="node">
<title>L10nTimeAgoPipe </title>
<polygon fill="#fb8072" stroke="black" points="210.6,-214.8 83.4,-214.8 83.4,-178.8 210.6,-178.8 210.6,-214.8"/>
<text text-anchor="middle" x="147" y="-192.6" font-family="Times,serif" font-size="14.00">L10nTimeAgoPipe </text>
</g>
<!-- L10nIntlModule&#45;&gt;L10nTimeAgoPipe  -->
<g id="edge30" class="edge">
<title>L10nIntlModule&#45;&gt;L10nTimeAgoPipe </title>
<path fill="none" stroke="black" stroke-dasharray="5,2" d="M1177.73,-133.8C963.56,-133.8 188.58,-133.8 188.58,-133.8 188.58,-133.8 188.58,-168.58 188.58,-168.58"/>
<polygon fill="black" stroke="black" points="185.08,-168.58 188.58,-178.58 192.08,-168.58 185.08,-168.58"/>
</g>
<!-- L10nIntlService -->
<g id="node32" class="node">
<title>L10nIntlService</title>
<ellipse fill="#fdb462" stroke="black" cx="2469" cy="-66.8" rx="73.58" ry="18"/>
<text text-anchor="middle" x="2469" y="-62.6" font-family="Times,serif" font-size="14.00">L10nIntlService</text>
</g>
<!-- L10nIntlService&#45;&gt;L10nIntlModule -->
<g id="edge31" class="edge">
<title>L10nIntlService&#45;&gt;L10nIntlModule</title>
<path fill="none" stroke="black" d="M2439.14,-83.28C2439.14,-102.24 2439.14,-130.8 2439.14,-130.8 2439.14,-130.8 1296.21,-130.8 1296.21,-130.8"/>
<polygon fill="black" stroke="black" points="1296.21,-127.3 1286.21,-130.8 1296.21,-134.3 1296.21,-127.3"/>
</g>
</g>
</svg>
