<?xml version="1.0" encoding="UTF-8" standalone="no"?>
<!DOCTYPE svg PUBLIC "-//W3C//DTD SVG 1.1//EN"
 "http://www.w3.org/Graphics/SVG/1.1/DTD/svg11.dtd">
<!-- Generated by graphviz version 2.47.3 (20210619.1520)
 -->
<!-- Title: dependencies Pages: 1 -->
<svg width="2230pt" height="247pt"
 viewBox="0.00 0.00 2230.00 246.80" xmlns="http://www.w3.org/2000/svg" xmlns:xlink="http://www.w3.org/1999/xlink">
<g id="graph0" class="graph" transform="scale(1 1) rotate(0) translate(4 242.8)">
<title>dependencies</title>
<polygon fill="white" stroke="transparent" points="-4,4 -4,-242.8 2226,-242.8 2226,4 -4,4"/>
<text text-anchor="middle" x="1111" y="-8.2" font-family="sans-serif" font-size="14.00">dependencies</text>
<g id="clust1" class="cluster">
<title>cluster_L10nIntlModule</title>
<polygon fill="none" stroke="black" stroke-dasharray="1,5" points="8,-32.8 8,-230.8 2214,-230.8 2214,-32.8 8,-32.8"/>
</g>
<g id="clust19" class="cluster">
<title>cluster_L10nIntlModule_providers</title>
<polygon fill="none" stroke="black" points="2042,-40.8 2042,-92.8 2206,-92.8 2206,-40.8 2042,-40.8"/>
</g>
<g id="clust17" class="cluster">
<title>cluster_L10nIntlModule_exports</title>
<polygon fill="none" stroke="black" points="80,-170.8 80,-222.8 2141,-222.8 2141,-170.8 80,-170.8"/>
</g>
<g id="clust2" class="cluster">
<title>cluster_L10nIntlModule_declarations</title>
<polygon fill="none" stroke="black" points="16,-40.8 16,-92.8 2034,-92.8 2034,-40.8 16,-40.8"/>
</g>
<!-- L10nDateAsyncPipe -->
<g id="node1" class="node">
<title>L10nDateAsyncPipe</title>
<polygon fill="#ffffb3" stroke="black" points="2026.13,-84.8 1893.87,-84.8 1893.87,-48.8 2026.13,-48.8 2026.13,-84.8"/>
<text text-anchor="middle" x="1960" y="-62.6" font-family="Times,serif" font-size="14.00">L10nDateAsyncPipe</text>
</g>
<!-- L10nIntlModule -->
<g id="node14" class="node">
<title>L10nIntlModule</title>
<polygon fill="#8dd3c7" stroke="black" points="1138.05,-149.8 1135.05,-153.8 1114.05,-153.8 1111.05,-149.8 1029.95,-149.8 1029.95,-113.8 1138.05,-113.8 1138.05,-149.8"/>
<text text-anchor="middle" x="1084" y="-127.6" font-family="Times,serif" font-size="14.00">L10nIntlModule</text>
</g>
<!-- L10nDateAsyncPipe&#45;&gt;L10nIntlModule -->
<g id="edge1" class="edge">
<title>L10nDateAsyncPipe&#45;&gt;L10nIntlModule</title>
<path fill="none" stroke="black" d="M1936.23,-85.1C1936.23,-103.07 1936.23,-127.8 1936.23,-127.8 1936.23,-127.8 1148.28,-127.8 1148.28,-127.8"/>
<polygon fill="black" stroke="black" points="1148.28,-124.3 1138.28,-127.8 1148.28,-131.3 1148.28,-124.3"/>
</g>
<!-- L10nDateDirective -->
<g id="node2" class="node">
<title>L10nDateDirective</title>
<polygon fill="#ffffb3" stroke="black" points="1876.06,-84.8 1751.94,-84.8 1751.94,-48.8 1876.06,-48.8 1876.06,-84.8"/>
<text text-anchor="middle" x="1814" y="-62.6" font-family="Times,serif" font-size="14.00">L10nDateDirective</text>
</g>
<!-- L10nDateDirective&#45;&gt;L10nIntlModule -->
<g id="edge2" class="edge">
<title>L10nDateDirective&#45;&gt;L10nIntlModule</title>
<path fill="none" stroke="black" d="M1792.58,-84.82C1792.58,-102.17 1792.58,-125.8 1792.58,-125.8 1792.58,-125.8 1148.13,-125.8 1148.13,-125.8"/>
<polygon fill="black" stroke="black" points="1148.13,-122.3 1138.13,-125.8 1148.13,-129.3 1148.13,-122.3"/>
</g>
<!-- L10nDatePipe -->
<g id="node3" class="node">
<title>L10nDatePipe</title>
<polygon fill="#ffffb3" stroke="black" points="1734.37,-84.8 1637.63,-84.8 1637.63,-48.8 1734.37,-48.8 1734.37,-84.8"/>
<text text-anchor="middle" x="1686" y="-62.6" font-family="Times,serif" font-size="14.00">L10nDatePipe</text>
</g>
<!-- L10nDatePipe&#45;&gt;L10nIntlModule -->
<g id="edge3" class="edge">
<title>L10nDatePipe&#45;&gt;L10nIntlModule</title>
<path fill="none" stroke="black" d="M1676.31,-84.83C1676.31,-101.2 1676.31,-122.8 1676.31,-122.8 1676.31,-122.8 1148.13,-122.8 1148.13,-122.8"/>
<polygon fill="black" stroke="black" points="1148.13,-119.3 1138.13,-122.8 1148.13,-126.3 1148.13,-119.3"/>
</g>
<!-- L10nDisplayNamesAsyncPipe -->
<g id="node4" class="node">
<title>L10nDisplayNamesAsyncPipe</title>
<polygon fill="#ffffb3" stroke="black" points="1619.12,-84.8 1430.88,-84.8 1430.88,-48.8 1619.12,-48.8 1619.12,-84.8"/>
<text text-anchor="middle" x="1525" y="-62.6" font-family="Times,serif" font-size="14.00">L10nDisplayNamesAsyncPipe</text>
</g>
<!-- L10nDisplayNamesAsyncPipe&#45;&gt;L10nIntlModule -->
<g id="edge4" class="edge">
<title>L10nDisplayNamesAsyncPipe&#45;&gt;L10nIntlModule</title>
<path fill="none" stroke="black" d="M1467.93,-85.04C1467.93,-100.37 1467.93,-119.8 1467.93,-119.8 1467.93,-119.8 1148.19,-119.8 1148.19,-119.8"/>
<polygon fill="black" stroke="black" points="1148.19,-116.3 1138.19,-119.8 1148.19,-123.3 1148.19,-116.3"/>
</g>
<!-- L10nDisplayNamesPipe -->
<g id="node5" class="node">
<title>L10nDisplayNamesPipe</title>
<polygon fill="#ffffb3" stroke="black" points="1412.36,-84.8 1259.64,-84.8 1259.64,-48.8 1412.36,-48.8 1412.36,-84.8"/>
<text text-anchor="middle" x="1336" y="-62.6" font-family="Times,serif" font-size="14.00">L10nDisplayNamesPipe</text>
</g>
<!-- L10nDisplayNamesPipe&#45;&gt;L10nIntlModule -->
<g id="edge5" class="edge">
<title>L10nDisplayNamesPipe&#45;&gt;L10nIntlModule</title>
<path fill="none" stroke="black" d="M1295.18,-84.85C1295.18,-99.17 1295.18,-116.8 1295.18,-116.8 1295.18,-116.8 1148.11,-116.8 1148.11,-116.8"/>
<polygon fill="black" stroke="black" points="1148.11,-113.3 1138.11,-116.8 1148.11,-120.3 1148.11,-113.3"/>
</g>
<!-- L10nNumberAsyncPipe -->
<g id="node6" class="node">
<title>L10nNumberAsyncPipe</title>
<polygon fill="#ffffb3" stroke="black" points="1242.08,-84.8 1089.92,-84.8 1089.92,-48.8 1242.08,-48.8 1242.08,-84.8"/>
<text text-anchor="middle" x="1166" y="-62.6" font-family="Times,serif" font-size="14.00">L10nNumberAsyncPipe</text>
</g>
<!-- L10nNumberAsyncPipe&#45;&gt;L10nIntlModule -->
<g id="edge6" class="edge">
<title>L10nNumberAsyncPipe&#45;&gt;L10nIntlModule</title>
<path fill="none" stroke="black" d="M1114.12,-84.91C1114.12,-84.91 1114.12,-103.79 1114.12,-103.79"/>
<polygon fill="black" stroke="black" points="1110.62,-103.79 1114.12,-113.79 1117.62,-103.79 1110.62,-103.79"/>
</g>
<!-- L10nNumberDirective -->
<g id="node7" class="node">
<title>L10nNumberDirective</title>
<polygon fill="#ffffb3" stroke="black" points="1071.51,-84.8 928.49,-84.8 928.49,-48.8 1071.51,-48.8 1071.51,-84.8"/>
<text text-anchor="middle" x="1000" y="-62.6" font-family="Times,serif" font-size="14.00">L10nNumberDirective</text>
</g>
<!-- L10nNumberDirective&#45;&gt;L10nIntlModule -->
<g id="edge7" class="edge">
<title>L10nNumberDirective&#45;&gt;L10nIntlModule</title>
<path fill="none" stroke="black" d="M1050.74,-84.91C1050.74,-84.91 1050.74,-103.79 1050.74,-103.79"/>
<polygon fill="black" stroke="black" points="1047.24,-103.79 1050.74,-113.79 1054.24,-103.79 1047.24,-103.79"/>
</g>
<!-- L10nNumberPipe -->
<g id="node8" class="node">
<title>L10nNumberPipe</title>
<polygon fill="#ffffb3" stroke="black" points="910.31,-84.8 793.69,-84.8 793.69,-48.8 910.31,-48.8 910.31,-84.8"/>
<text text-anchor="middle" x="852" y="-62.6" font-family="Times,serif" font-size="14.00">L10nNumberPipe</text>
</g>
<!-- L10nNumberPipe&#45;&gt;L10nIntlModule -->
<g id="edge8" class="edge">
<title>L10nNumberPipe&#45;&gt;L10nIntlModule</title>
<path fill="none" stroke="black" d="M891.62,-84.85C891.62,-99.17 891.62,-116.8 891.62,-116.8 891.62,-116.8 1019.9,-116.8 1019.9,-116.8"/>
<polygon fill="black" stroke="black" points="1019.9,-120.3 1029.9,-116.8 1019.9,-113.3 1019.9,-120.3"/>
</g>
<!-- L10nPluralAsyncPipe -->
<g id="node9" class="node">
<title>L10nPluralAsyncPipe</title>
<polygon fill="#ffffb3" stroke="black" points="775.65,-84.8 636.35,-84.8 636.35,-48.8 775.65,-48.8 775.65,-84.8"/>
<text text-anchor="middle" x="706" y="-62.6" font-family="Times,serif" font-size="14.00">L10nPluralAsyncPipe</text>
</g>
<!-- L10nPluralAsyncPipe&#45;&gt;L10nIntlModule -->
<g id="edge9" class="edge">
<title>L10nPluralAsyncPipe&#45;&gt;L10nIntlModule</title>
<path fill="none" stroke="black" d="M744.12,-85.04C744.12,-100.37 744.12,-119.8 744.12,-119.8 744.12,-119.8 1019.77,-119.8 1019.77,-119.8"/>
<polygon fill="black" stroke="black" points="1019.77,-123.3 1029.77,-119.8 1019.77,-116.3 1019.77,-123.3"/>
</g>
<!-- L10nPluralPipe -->
<g id="node10" class="node">
<title>L10nPluralPipe</title>
<polygon fill="#ffffb3" stroke="black" points="617.88,-84.8 514.12,-84.8 514.12,-48.8 617.88,-48.8 617.88,-84.8"/>
<text text-anchor="middle" x="566" y="-62.6" font-family="Times,serif" font-size="14.00">L10nPluralPipe</text>
</g>
<!-- L10nPluralPipe&#45;&gt;L10nIntlModule -->
<g id="edge10" class="edge">
<title>L10nPluralPipe&#45;&gt;L10nIntlModule</title>
<path fill="none" stroke="black" d="M602.62,-84.83C602.62,-101.2 602.62,-122.8 602.62,-122.8 602.62,-122.8 1019.72,-122.8 1019.72,-122.8"/>
<polygon fill="black" stroke="black" points="1019.72,-126.3 1029.72,-122.8 1019.72,-119.3 1019.72,-126.3"/>
</g>
<!-- L10nTimeAgoAsyncPipe -->
<g id="node11" class="node">
<title>L10nTimeAgoAsyncPipe</title>
<polygon fill="#ffffb3" stroke="black" points="495.86,-84.8 336.14,-84.8 336.14,-48.8 495.86,-48.8 495.86,-84.8"/>
<text text-anchor="middle" x="416" y="-62.6" font-family="Times,serif" font-size="14.00">L10nTimeAgoAsyncPipe</text>
</g>
<!-- L10nTimeAgoAsyncPipe&#45;&gt;L10nIntlModule -->
<g id="edge11" class="edge">
<title>L10nTimeAgoAsyncPipe&#45;&gt;L10nIntlModule</title>
<path fill="none" stroke="black" d="M451.12,-84.82C451.12,-102.17 451.12,-125.8 451.12,-125.8 451.12,-125.8 1019.77,-125.8 1019.77,-125.8"/>
<polygon fill="black" stroke="black" points="1019.77,-129.3 1029.77,-125.8 1019.77,-122.3 1019.77,-129.3"/>
</g>
<!-- L10nTimeAgoDirective -->
<g id="node12" class="node">
<title>L10nTimeAgoDirective</title>
<polygon fill="#ffffb3" stroke="black" points="317.79,-84.8 166.21,-84.8 166.21,-48.8 317.79,-48.8 317.79,-84.8"/>
<text text-anchor="middle" x="242" y="-62.6" font-family="Times,serif" font-size="14.00">L10nTimeAgoDirective</text>
</g>
<!-- L10nTimeAgoDirective&#45;&gt;L10nIntlModule -->
<g id="edge12" class="edge">
<title>L10nTimeAgoDirective&#45;&gt;L10nIntlModule</title>
<path fill="none" stroke="black" d="M275.62,-85.1C275.62,-103.07 275.62,-127.8 275.62,-127.8 275.62,-127.8 1019.71,-127.8 1019.71,-127.8"/>
<polygon fill="black" stroke="black" points="1019.71,-131.3 1029.71,-127.8 1019.7,-124.3 1019.71,-131.3"/>
</g>
<!-- L10nTimeAgoPipe -->
<g id="node13" class="node">
<title>L10nTimeAgoPipe</title>
<polygon fill="#ffffb3" stroke="black" points="148.1,-84.8 23.9,-84.8 23.9,-48.8 148.1,-48.8 148.1,-84.8"/>
<text text-anchor="middle" x="86" y="-62.6" font-family="Times,serif" font-size="14.00">L10nTimeAgoPipe</text>
</g>
<!-- L10nTimeAgoPipe&#45;&gt;L10nIntlModule -->
<g id="edge13" class="edge">
<title>L10nTimeAgoPipe&#45;&gt;L10nIntlModule</title>
<path fill="none" stroke="black" d="M118.12,-84.97C118.12,-103.89 118.12,-130.8 118.12,-130.8 118.12,-130.8 1019.65,-130.8 1019.65,-130.8"/>
<polygon fill="black" stroke="black" points="1019.65,-134.3 1029.65,-130.8 1019.65,-127.3 1019.65,-134.3"/>
</g>
<!-- L10nDateAsyncPipe  -->
<g id="node15" class="node">
<title>L10nDateAsyncPipe </title>
<polygon fill="#fb8072" stroke="black" points="2133.13,-214.8 1996.87,-214.8 1996.87,-178.8 2133.13,-178.8 2133.13,-214.8"/>
<text text-anchor="middle" x="2065" y="-192.6" font-family="Times,serif" font-size="14.00">L10nDateAsyncPipe </text>
</g>
<!-- L10nIntlModule&#45;&gt;L10nDateAsyncPipe  -->
<g id="edge14" class="edge">
<title>L10nIntlModule&#45;&gt;L10nDateAsyncPipe </title>
<path fill="none" stroke="black" stroke-dasharray="5,2" d="M1138.22,-133.8C1336.63,-133.8 2011.62,-133.8 2011.62,-133.8 2011.62,-133.8 2011.62,-168.58 2011.62,-168.58"/>
<polygon fill="black" stroke="black" points="2008.13,-168.58 2011.62,-178.58 2015.13,-168.58 2008.13,-168.58"/>
</g>
<!-- L10nDateDirective  -->
<g id="node16" class="node">
<title>L10nDateDirective </title>
<polygon fill="#fb8072" stroke="black" points="1978.56,-214.8 1851.44,-214.8 1851.44,-178.8 1978.56,-178.8 1978.56,-214.8"/>
<text text-anchor="middle" x="1915" y="-192.6" font-family="Times,serif" font-size="14.00">L10nDateDirective </text>
</g>
<!-- L10nIntlModule&#45;&gt;L10nDateDirective  -->
<g id="edge15" class="edge">
<title>L10nIntlModule&#45;&gt;L10nDateDirective </title>
<path fill="none" stroke="black" stroke-dasharray="5,2" d="M1138.2,-136.8C1315,-136.8 1863.62,-136.8 1863.62,-136.8 1863.62,-136.8 1863.62,-168.8 1863.62,-168.8"/>
<polygon fill="black" stroke="black" points="1860.13,-168.8 1863.62,-178.8 1867.13,-168.8 1860.13,-168.8"/>
</g>
<!-- L10nDatePipe  -->
<g id="node17" class="node">
<title>L10nDatePipe </title>
<polygon fill="#fb8072" stroke="black" points="1833.37,-214.8 1732.63,-214.8 1732.63,-178.8 1833.37,-178.8 1833.37,-214.8"/>
<text text-anchor="middle" x="1783" y="-192.6" font-family="Times,serif" font-size="14.00">L10nDatePipe </text>
</g>
<!-- L10nIntlModule&#45;&gt;L10nDatePipe  -->
<g id="edge16" class="edge">
<title>L10nIntlModule&#45;&gt;L10nDatePipe </title>
<path fill="none" stroke="black" stroke-dasharray="5,2" d="M1138.23,-138.8C1295.91,-138.8 1743.2,-138.8 1743.2,-138.8 1743.2,-138.8 1743.2,-168.77 1743.2,-168.77"/>
<polygon fill="black" stroke="black" points="1739.7,-168.77 1743.2,-178.77 1746.7,-168.77 1739.7,-168.77"/>
</g>
<!-- L10nDisplayNamesAsyncPipe  -->
<g id="node18" class="node">
<title>L10nDisplayNamesAsyncPipe </title>
<polygon fill="#fb8072" stroke="black" points="1715.12,-214.8 1522.88,-214.8 1522.88,-178.8 1715.12,-178.8 1715.12,-214.8"/>
<text text-anchor="middle" x="1619" y="-192.6" font-family="Times,serif" font-size="14.00">L10nDisplayNamesAsyncPipe </text>
</g>
<!-- L10nIntlModule&#45;&gt;L10nDisplayNamesAsyncPipe  -->
<g id="edge17" class="edge">
<title>L10nIntlModule&#45;&gt;L10nDisplayNamesAsyncPipe </title>
<path fill="none" stroke="black" stroke-dasharray="5,2" d="M1138.46,-141.8C1265.58,-141.8 1571.12,-141.8 1571.12,-141.8 1571.12,-141.8 1571.12,-168.79 1571.12,-168.79"/>
<polygon fill="black" stroke="black" points="1567.63,-168.79 1571.12,-178.79 1574.63,-168.79 1567.63,-168.79"/>
</g>
<!-- L10nDisplayNamesPipe  -->
<g id="node19" class="node">
<title>L10nDisplayNamesPipe </title>
<polygon fill="#fb8072" stroke="black" points="1505.36,-214.8 1348.64,-214.8 1348.64,-178.8 1505.36,-178.8 1505.36,-214.8"/>
<text text-anchor="middle" x="1427" y="-192.6" font-family="Times,serif" font-size="14.00">L10nDisplayNamesPipe </text>
</g>
<!-- L10nIntlModule&#45;&gt;L10nDisplayNamesPipe  -->
<g id="edge18" class="edge">
<title>L10nIntlModule&#45;&gt;L10nDisplayNamesPipe </title>
<path fill="none" stroke="black" stroke-dasharray="5,2" d="M1138.06,-144.8C1223.62,-144.8 1380.62,-144.8 1380.62,-144.8 1380.62,-144.8 1380.62,-168.61 1380.62,-168.61"/>
<polygon fill="black" stroke="black" points="1377.13,-168.61 1380.62,-178.61 1384.13,-168.61 1377.13,-168.61"/>
</g>
<!-- L10nNumberAsyncPipe  -->
<g id="node20" class="node">
<title>L10nNumberAsyncPipe </title>
<polygon fill="#fb8072" stroke="black" points="1330.58,-214.8 1175.42,-214.8 1175.42,-178.8 1330.58,-178.8 1330.58,-214.8"/>
<text text-anchor="middle" x="1253" y="-192.6" font-family="Times,serif" font-size="14.00">L10nNumberAsyncPipe </text>
</g>
<!-- L10nIntlModule&#45;&gt;L10nNumberAsyncPipe  -->
<g id="edge19" class="edge">
<title>L10nIntlModule&#45;&gt;L10nNumberAsyncPipe </title>
<path fill="none" stroke="black" stroke-dasharray="5,2" d="M1138.3,-147.8C1171.88,-147.8 1208.62,-147.8 1208.62,-147.8 1208.62,-147.8 1208.62,-168.55 1208.62,-168.55"/>
<polygon fill="black" stroke="black" points="1205.13,-168.55 1208.62,-178.55 1212.13,-168.55 1205.13,-168.55"/>
</g>
<!-- L10nNumberDirective  -->
<g id="node21" class="node">
<title>L10nNumberDirective </title>
<polygon fill="#fb8072" stroke="black" points="1157.51,-214.8 1010.49,-214.8 1010.49,-178.8 1157.51,-178.8 1157.51,-214.8"/>
<text text-anchor="middle" x="1084" y="-192.6" font-family="Times,serif" font-size="14.00">L10nNumberDirective </text>
</g>
<!-- L10nIntlModule&#45;&gt;L10nNumberDirective  -->
<g id="edge20" class="edge">
<title>L10nIntlModule&#45;&gt;L10nNumberDirective </title>
<path fill="none" stroke="black" stroke-dasharray="5,2" d="M1084,-149.91C1084,-149.91 1084,-168.79 1084,-168.79"/>
<polygon fill="black" stroke="black" points="1080.5,-168.79 1084,-178.79 1087.5,-168.79 1080.5,-168.79"/>
</g>
<!-- L10nNumberPipe  -->
<g id="node22" class="node">
<title>L10nNumberPipe </title>
<polygon fill="#fb8072" stroke="black" points="992.81,-214.8 873.19,-214.8 873.19,-178.8 992.81,-178.8 992.81,-214.8"/>
<text text-anchor="middle" x="933" y="-192.6" font-family="Times,serif" font-size="14.00">L10nNumberPipe </text>
</g>
<!-- L10nIntlModule&#45;&gt;L10nNumberPipe  -->
<g id="edge21" class="edge">
<title>L10nIntlModule&#45;&gt;L10nNumberPipe </title>
<path fill="none" stroke="black" stroke-dasharray="5,2" d="M1029.86,-147.8C996.7,-147.8 960.58,-147.8 960.58,-147.8 960.58,-147.8 960.58,-168.55 960.58,-168.55"/>
<polygon fill="black" stroke="black" points="957.08,-168.55 960.58,-178.55 964.08,-168.55 957.08,-168.55"/>
</g>
<!-- L10nPluralAsyncPipe  -->
<g id="node23" class="node">
<title>L10nPluralAsyncPipe </title>
<polygon fill="#fb8072" stroke="black" points="855.65,-214.8 712.35,-214.8 712.35,-178.8 855.65,-178.8 855.65,-214.8"/>
<text text-anchor="middle" x="784" y="-192.6" font-family="Times,serif" font-size="14.00">L10nPluralAsyncPipe </text>
</g>
<!-- L10nIntlModule&#45;&gt;L10nPluralAsyncPipe  -->
<g id="edge22" class="edge">
<title>L10nIntlModule&#45;&gt;L10nPluralAsyncPipe </title>
<path fill="none" stroke="black" stroke-dasharray="5,2" d="M1029.64,-144.8C953.61,-144.8 824.71,-144.8 824.71,-144.8 824.71,-144.8 824.71,-168.61 824.71,-168.61"/>
<polygon fill="black" stroke="black" points="821.21,-168.61 824.71,-178.61 828.21,-168.61 821.21,-168.61"/>
</g>
<!-- L10nPluralPipe  -->
<g id="node24" class="node">
<title>L10nPluralPipe </title>
<polygon fill="#fb8072" stroke="black" points="694.88,-214.8 587.12,-214.8 587.12,-178.8 694.88,-178.8 694.88,-214.8"/>
<text text-anchor="middle" x="641" y="-192.6" font-family="Times,serif" font-size="14.00">L10nPluralPipe </text>
</g>
<!-- L10nIntlModule&#45;&gt;L10nPluralPipe  -->
<g id="edge23" class="edge">
<title>L10nIntlModule&#45;&gt;L10nPluralPipe </title>
<path fill="none" stroke="black" stroke-dasharray="5,2" d="M1029.71,-141.8C916.46,-141.8 665.43,-141.8 665.43,-141.8 665.43,-141.8 665.43,-168.79 665.43,-168.79"/>
<polygon fill="black" stroke="black" points="661.93,-168.79 665.43,-178.79 668.93,-168.79 661.93,-168.79"/>
</g>
<!-- L10nTimeAgoAsyncPipe  -->
<g id="node25" class="node">
<title>L10nTimeAgoAsyncPipe </title>
<polygon fill="#fb8072" stroke="black" points="569.86,-214.8 406.14,-214.8 406.14,-178.8 569.86,-178.8 569.86,-214.8"/>
<text text-anchor="middle" x="488" y="-192.6" font-family="Times,serif" font-size="14.00">L10nTimeAgoAsyncPipe </text>
</g>
<!-- L10nIntlModule&#45;&gt;L10nTimeAgoAsyncPipe  -->
<g id="edge24" class="edge">
<title>L10nIntlModule&#45;&gt;L10nTimeAgoAsyncPipe </title>
<path fill="none" stroke="black" stroke-dasharray="5,2" d="M1029.79,-138.8C892.49,-138.8 541.87,-138.8 541.87,-138.8 541.87,-138.8 541.87,-168.77 541.87,-168.77"/>
<polygon fill="black" stroke="black" points="538.37,-168.77 541.87,-178.77 545.37,-168.77 538.37,-168.77"/>
</g>
<!-- L10nTimeAgoDirective  -->
<g id="node26" class="node">
<title>L10nTimeAgoDirective </title>
<polygon fill="#fb8072" stroke="black" points="388.29,-214.8 233.71,-214.8 233.71,-178.8 388.29,-178.8 388.29,-214.8"/>
<text text-anchor="middle" x="311" y="-192.6" font-family="Times,serif" font-size="14.00">L10nTimeAgoDirective </text>
</g>
<!-- L10nIntlModule&#45;&gt;L10nTimeAgoDirective  -->
<g id="edge25" class="edge">
<title>L10nIntlModule&#45;&gt;L10nTimeAgoDirective </title>
<path fill="none" stroke="black" stroke-dasharray="5,2" d="M1029.75,-136.8C861.89,-136.8 362.23,-136.8 362.23,-136.8 362.23,-136.8 362.23,-168.8 362.23,-168.8"/>
<polygon fill="black" stroke="black" points="358.73,-168.8 362.23,-178.8 365.73,-168.8 358.73,-168.8"/>
</g>
<!-- L10nTimeAgoPipe  -->
<g id="node27" class="node">
<title>L10nTimeAgoPipe </title>
<polygon fill="#fb8072" stroke="black" points="215.6,-214.8 88.4,-214.8 88.4,-178.8 215.6,-178.8 215.6,-214.8"/>
<text text-anchor="middle" x="152" y="-192.6" font-family="Times,serif" font-size="14.00">L10nTimeAgoPipe </text>
</g>
<!-- L10nIntlModule&#45;&gt;L10nTimeAgoPipe  -->
<g id="edge26" class="edge">
<title>L10nIntlModule&#45;&gt;L10nTimeAgoPipe </title>
<path fill="none" stroke="black" stroke-dasharray="5,2" d="M1029.82,-133.8C836.36,-133.8 191.08,-133.8 191.08,-133.8 191.08,-133.8 191.08,-168.58 191.08,-168.58"/>
<polygon fill="black" stroke="black" points="187.58,-168.58 191.08,-178.58 194.58,-168.58 187.58,-168.58"/>
</g>
<!-- L10nIntlService -->
<g id="node28" class="node">
<title>L10nIntlService</title>
<ellipse fill="#fdb462" stroke="black" cx="2124" cy="-66.8" rx="73.58" ry="18"/>
<text text-anchor="middle" x="2124" y="-62.6" font-family="Times,serif" font-size="14.00">L10nIntlService</text>
</g>
<!-- L10nIntlService&#45;&gt;L10nIntlModule -->
<g id="edge27" class="edge">
<title>L10nIntlService&#45;&gt;L10nIntlModule</title>
<path fill="none" stroke="black" d="M2091.64,-83.28C2091.64,-102.24 2091.64,-130.8 2091.64,-130.8 2091.64,-130.8 1148.18,-130.8 1148.18,-130.8"/>
<polygon fill="black" stroke="black" points="1148.18,-127.3 1138.18,-130.8 1148.18,-134.3 1148.18,-127.3"/>
</g>
</g>
</svg>
