<?xml version="1.0" encoding="UTF-8" standalone="no"?>
<!DOCTYPE svg PUBLIC "-//W3C//DTD SVG 1.1//EN"
 "http://www.w3.org/Graphics/SVG/1.1/DTD/svg11.dtd">
<!-- Generated by graphviz version 2.44.1 (20200629.0846)
 -->
<!-- Title: dependencies Pages: 1 -->
<svg width="1790pt" height="349pt"
 viewBox="0.00 0.00 1790.00 349.00" xmlns="http://www.w3.org/2000/svg" xmlns:xlink="http://www.w3.org/1999/xlink">
<g id="graph0" class="graph" transform="scale(1 1) rotate(0) translate(4 345)">
<title>dependencies</title>
<polygon fill="white" stroke="transparent" points="-4,4 -4,-345 1786,-345 1786,4 -4,4"/>
<text text-anchor="start" x="870.01" y="-42.4" font-family="sans-serif" font-weight="bold" font-size="14.00">Legend</text>
<polygon fill="#ffffb3" stroke="transparent" points="657,-10 657,-30 677,-30 677,-10 657,-10"/>
<text text-anchor="start" x="680.63" y="-15.4" font-family="sans-serif" font-size="14.00"> &#160;Declarations</text>
<polygon fill="#8dd3c7" stroke="transparent" points="770,-10 770,-30 790,-30 790,-10 770,-10"/>
<text text-anchor="start" x="793.73" y="-15.4" font-family="sans-serif" font-size="14.00"> &#160;Module</text>
<polygon fill="#80b1d3" stroke="transparent" points="856,-10 856,-30 876,-30 876,-10 856,-10"/>
<text text-anchor="start" x="879.78" y="-15.4" font-family="sans-serif" font-size="14.00"> &#160;Bootstrap</text>
<polygon fill="#fdb462" stroke="transparent" points="953,-10 953,-30 973,-30 973,-10 953,-10"/>
<text text-anchor="start" x="976.67" y="-15.4" font-family="sans-serif" font-size="14.00"> &#160;Providers</text>
<polygon fill="#fb8072" stroke="transparent" points="1049,-10 1049,-30 1069,-30 1069,-10 1049,-10"/>
<text text-anchor="start" x="1072.73" y="-15.4" font-family="sans-serif" font-size="14.00"> &#160;Exports</text>
<g id="clust1" class="cluster">
<title>cluster_L10nValidationModule</title>
<polygon fill="none" stroke="black" stroke-dasharray="1,5" points="8,-70 8,-333 1774,-333 1774,-70 8,-70"/>
</g>
<g id="clust4" class="cluster">
<title>cluster_L10nValidationModule_L10nValidateNumberDirective_providers</title>
<polygon fill="none" stroke="black" points="882,-78 882,-195 1766,-195 1766,-78 882,-78"/>
</g>
<g id="clust2" class="cluster">
<title>cluster_L10nValidationModule_declarations</title>
<polygon fill="none" stroke="black" points="518,-143 518,-195 706,-195 706,-143 518,-143"/>
</g>
<g id="clust6" class="cluster">
<title>cluster_L10nValidationModule_exports</title>
<polygon fill="none" stroke="black" points="760,-273 760,-325 1163,-325 1163,-273 760,-273"/>
</g>
<g id="clust3" class="cluster">
<title>cluster_L10nValidationModule_L10nValidateDateDirective_providers</title>
<polygon fill="none" stroke="black" points="16,-78 16,-130 874,-130 874,-78 16,-78"/>
</g>
<!-- L10nValidateDateDirective -->
<g id="node1" class="node">
<title>L10nValidateDateDirective</title>
<polygon fill="#ffffb3" stroke="black" points="697.98,-187 526.02,-187 526.02,-151 697.98,-151 697.98,-187"/>
<text text-anchor="middle" x="612" y="-164.8" font-family="Times,serif" font-size="14.00">L10nValidateDateDirective</text>
</g>
<!-- L10nValidationModule -->
<g id="node3" class="node">
<title>L10nValidationModule</title>
<polygon fill="#8dd3c7" stroke="black" points="1040.2,-252 1037.2,-256 1016.2,-256 1013.2,-252 891.8,-252 891.8,-216 1040.2,-216 1040.2,-252"/>
<text text-anchor="middle" x="966" y="-229.8" font-family="Times,serif" font-size="14.00">L10nValidationModule</text>
</g>
<!-- L10nValidateDateDirective&#45;&gt;L10nValidationModule -->
<g id="edge1" class="edge">
<title>L10nValidateDateDirective&#45;&gt;L10nValidationModule</title>
<path fill="none" stroke="black" d="M698.15,-169C802.93,-169 966,-169 966,-169 966,-169 966,-205.89 966,-205.89"/>
<polygon fill="black" stroke="black" points="962.5,-205.89 966,-215.89 969.5,-205.89 962.5,-205.89"/>
</g>
<!-- L10nValidateNumberDirective -->
<g id="node2" class="node">
<title>L10nValidateNumberDirective</title>
<polygon fill="#ffffb3" stroke="black" points="1249.43,-187 1058.57,-187 1058.57,-151 1249.43,-151 1249.43,-187"/>
<text text-anchor="middle" x="1154" y="-164.8" font-family="Times,serif" font-size="14.00">L10nValidateNumberDirective</text>
</g>
<!-- L10nValidateNumberDirective&#45;&gt;L10nValidationModule -->
<g id="edge3" class="edge">
<title>L10nValidateNumberDirective&#45;&gt;L10nValidationModule</title>
<path fill="none" stroke="black" d="M1107.01,-187.11C1107.01,-206.34 1107.01,-234 1107.01,-234 1107.01,-234 1050.22,-234 1050.22,-234"/>
<polygon fill="black" stroke="black" points="1050.22,-230.5 1040.22,-234 1050.22,-237.5 1050.22,-230.5"/>
</g>
<!-- L10nValidateDateDirective  -->
<g id="node6" class="node">
<title>L10nValidateDateDirective </title>
<polygon fill="#fb8072" stroke="black" points="1155.48,-317 980.52,-317 980.52,-281 1155.48,-281 1155.48,-317"/>
<text text-anchor="middle" x="1068" y="-294.8" font-family="Times,serif" font-size="14.00">L10nValidateDateDirective </text>
</g>
<!-- L10nValidationModule&#45;&gt;L10nValidateDateDirective  -->
<g id="edge5" class="edge">
<title>L10nValidationModule&#45;&gt;L10nValidateDateDirective </title>
<path fill="none" stroke="black" stroke-dasharray="5,2" d="M1010.3,-252.11C1010.3,-252.11 1010.3,-270.99 1010.3,-270.99"/>
<polygon fill="black" stroke="black" points="1006.8,-270.99 1010.3,-280.99 1013.8,-270.99 1006.8,-270.99"/>
</g>
<!-- L10nValidateNumberDirective  -->
<g id="node7" class="node">
<title>L10nValidateNumberDirective </title>
<polygon fill="#fb8072" stroke="black" points="962.43,-317 767.57,-317 767.57,-281 962.43,-281 962.43,-317"/>
<text text-anchor="middle" x="865" y="-294.8" font-family="Times,serif" font-size="14.00">L10nValidateNumberDirective </text>
</g>
<!-- L10nValidationModule&#45;&gt;L10nValidateNumberDirective  -->
<g id="edge6" class="edge">
<title>L10nValidationModule&#45;&gt;L10nValidateNumberDirective </title>
<path fill="none" stroke="black" stroke-dasharray="5,2" d="M927.06,-252.11C927.06,-252.11 927.06,-270.99 927.06,-270.99"/>
<polygon fill="black" stroke="black" points="923.56,-270.99 927.06,-280.99 930.56,-270.99 923.56,-270.99"/>
</g>
<!-- { provide: NG_VALIDATORS, useExisting: forwardRef(() =&gt; L10nValidateDateDirective), multi: true } -->
<g id="node4" class="node">
<title>{ provide: NG_VALIDATORS, useExisting: forwardRef(() =&gt; L10nValidateDateDirective), multi: true }</title>
<ellipse fill="#fdb462" stroke="black" cx="445" cy="-104" rx="420.66" ry="18"/>
<text text-anchor="middle" x="445" y="-99.8" font-family="Times,serif" font-size="14.00">{ provide: NG_VALIDATORS, useExisting: forwardRef(() =&gt; L10nValidateDateDirective), multi: true }</text>
</g>
<!-- { provide: NG_VALIDATORS, useExisting: forwardRef(() =&gt; L10nValidateDateDirective), multi: true }&#45;&gt;L10nValidateDateDirective -->
<g id="edge2" class="edge">
<title>{ provide: NG_VALIDATORS, useExisting: forwardRef(() =&gt; L10nValidateDateDirective), multi: true }&#45;&gt;L10nValidateDateDirective</title>
<path fill="none" stroke="black" d="M612,-120.74C612,-120.74 612,-140.72 612,-140.72"/>
<polygon fill="black" stroke="black" points="608.5,-140.72 612,-150.72 615.5,-140.72 608.5,-140.72"/>
</g>
<!-- { provide: NG_VALIDATORS, useExisting: forwardRef(() =&gt; L10nValidateNumberDirective), multi: true } -->
<g id="node5" class="node">
<title>{ provide: NG_VALIDATORS, useExisting: forwardRef(() =&gt; L10nValidateNumberDirective), multi: true }</title>
<ellipse fill="#fdb462" stroke="black" cx="1324" cy="-104" rx="434.49" ry="18"/>
<text text-anchor="middle" x="1324" y="-99.8" font-family="Times,serif" font-size="14.00">{ provide: NG_VALIDATORS, useExisting: forwardRef(() =&gt; L10nValidateNumberDirective), multi: true }</text>
</g>
<!-- { provide: NG_VALIDATORS, useExisting: forwardRef(() =&gt; L10nValidateNumberDirective), multi: true }&#45;&gt;L10nValidateNumberDirective -->
<g id="edge4" class="edge">
<title>{ provide: NG_VALIDATORS, useExisting: forwardRef(() =&gt; L10nValidateNumberDirective), multi: true }&#45;&gt;L10nValidateNumberDirective</title>
<path fill="none" stroke="black" d="M1154,-120.74C1154,-120.74 1154,-140.72 1154,-140.72"/>
<polygon fill="black" stroke="black" points="1150.5,-140.72 1154,-150.72 1157.5,-140.72 1150.5,-140.72"/>
</g>
</g>
</svg>
