<?xml version="1.0" encoding="UTF-8" standalone="no"?>
<!DOCTYPE svg PUBLIC "-//W3C//DTD SVG 1.1//EN"
 "http://www.w3.org/Graphics/SVG/1.1/DTD/svg11.dtd">
<!-- Generated by graphviz version 2.40.1 (20161225.0304)
 -->
<!-- Title: dependencies Pages: 1 -->
<svg width="504pt" height="284pt"
 viewBox="0.00 0.00 504.00 284.00" xmlns="http://www.w3.org/2000/svg" xmlns:xlink="http://www.w3.org/1999/xlink">
<g id="graph0" class="graph" transform="scale(1 1) rotate(0) translate(4 280)">
<title>dependencies</title>
<polygon fill="#ffffff" stroke="transparent" points="-4,4 -4,-280 500,-280 500,4 -4,4"/>
<text text-anchor="start" x="227.0091" y="-42.4" font-family="sans-serif" font-weight="bold" font-size="14.00" fill="#000000">Legend</text>
<polygon fill="#ffffb3" stroke="transparent" points="14,-10 14,-30 34,-30 34,-10 14,-10"/>
<text text-anchor="start" x="37.629" y="-15.4" font-family="sans-serif" font-size="14.00" fill="#000000"> &#160;Declarations</text>
<polygon fill="#8dd3c7" stroke="transparent" points="127,-10 127,-30 147,-30 147,-10 127,-10"/>
<text text-anchor="start" x="150.7251" y="-15.4" font-family="sans-serif" font-size="14.00" fill="#000000"> &#160;Module</text>
<polygon fill="#80b1d3" stroke="transparent" points="213,-10 213,-30 233,-30 233,-10 213,-10"/>
<text text-anchor="start" x="236.7812" y="-15.4" font-family="sans-serif" font-size="14.00" fill="#000000"> &#160;Bootstrap</text>
<polygon fill="#fdb462" stroke="transparent" points="310,-10 310,-30 330,-30 330,-10 310,-10"/>
<text text-anchor="start" x="333.6732" y="-15.4" font-family="sans-serif" font-size="14.00" fill="#000000"> &#160;Providers</text>
<polygon fill="#fb8072" stroke="transparent" points="406,-10 406,-30 426,-30 426,-10 406,-10"/>
<text text-anchor="start" x="429.7258" y="-15.4" font-family="sans-serif" font-size="14.00" fill="#000000"> &#160;Exports</text>
<g id="clust1" class="cluster">
<title>cluster_L10nValidationModule</title>
<polygon fill="none" stroke="#000000" stroke-dasharray="1,5" points="38.5,-70 38.5,-268 457.5,-268 457.5,-70 38.5,-70"/>
</g>
<g id="clust2" class="cluster">
<title>cluster_L10nValidationModule_declarations</title>
<polygon fill="none" stroke="#000000" points="50.5,-78 50.5,-130 446.5,-130 446.5,-78 50.5,-78"/>
</g>
<g id="clust6" class="cluster">
<title>cluster_L10nValidationModule_exports</title>
<polygon fill="none" stroke="#000000" points="46.5,-208 46.5,-260 449.5,-260 449.5,-208 46.5,-208"/>
</g>
<!-- L10nValidateDateDirective -->
<g id="node1" class="node">
<title>L10nValidateDateDirective</title>
<polygon fill="#ffffb3" stroke="#000000" points="438.4847,-122 266.5153,-122 266.5153,-86 438.4847,-86 438.4847,-122"/>
<text text-anchor="middle" x="352.5" y="-99.8" font-family="Times,serif" font-size="14.00" fill="#000000">L10nValidateDateDirective</text>
</g>
<!-- L10nValidationModule -->
<g id="node3" class="node">
<title>L10nValidationModule</title>
<polygon fill="#8dd3c7" stroke="#000000" points="228.7007,-187 225.7007,-191 204.7007,-191 201.7007,-187 80.2993,-187 80.2993,-151 228.7007,-151 228.7007,-187"/>
<text text-anchor="middle" x="154.5" y="-164.8" font-family="Times,serif" font-size="14.00" fill="#000000">L10nValidationModule</text>
</g>
<!-- L10nValidateDateDirective&#45;&gt;L10nValidationModule -->
<g id="edge1" class="edge">
<title>L10nValidateDateDirective&#45;&gt;L10nValidationModule</title>
<path fill="none" stroke="#000000" d="M381.164,-122.0225C381.164,-139.3734 381.164,-163 381.164,-163 381.164,-163 238.7183,-163 238.7183,-163"/>
<polygon fill="#000000" stroke="#000000" points="238.7183,-159.5001 228.7183,-163 238.7182,-166.5001 238.7183,-159.5001"/>
</g>
<!-- L10nValidateNumberDirective -->
<g id="node2" class="node">
<title>L10nValidateNumberDirective</title>
<polygon fill="#ffffb3" stroke="#000000" points="248.93,-122 58.07,-122 58.07,-86 248.93,-86 248.93,-122"/>
<text text-anchor="middle" x="153.5" y="-99.8" font-family="Times,serif" font-size="14.00" fill="#000000">L10nValidateNumberDirective</text>
</g>
<!-- L10nValidateNumberDirective&#45;&gt;L10nValidationModule -->
<g id="edge2" class="edge">
<title>L10nValidateNumberDirective&#45;&gt;L10nValidationModule</title>
<path fill="none" stroke="#000000" d="M154.5,-122.1061C154.5,-122.1061 154.5,-140.991 154.5,-140.991"/>
<polygon fill="#000000" stroke="#000000" points="151.0001,-140.9909 154.5,-150.991 158.0001,-140.991 151.0001,-140.9909"/>
</g>
<!-- L10nValidateDateDirective  -->
<g id="node4" class="node">
<title>L10nValidateDateDirective </title>
<polygon fill="#fb8072" stroke="#000000" points="441.984,-252 267.016,-252 267.016,-216 441.984,-216 441.984,-252"/>
<text text-anchor="middle" x="354.5" y="-229.8" font-family="Times,serif" font-size="14.00" fill="#000000">L10nValidateDateDirective </text>
</g>
<!-- L10nValidationModule&#45;&gt;L10nValidateDateDirective  -->
<g id="edge3" class="edge">
<title>L10nValidationModule&#45;&gt;L10nValidateDateDirective </title>
<path fill="none" stroke="#000000" stroke-dasharray="5,2" d="M228.8829,-175C274.4485,-175 324.086,-175 324.086,-175 324.086,-175 324.086,-205.9775 324.086,-205.9775"/>
<polygon fill="#000000" stroke="#000000" points="320.5861,-205.9774 324.086,-215.9775 327.5861,-205.9775 320.5861,-205.9774"/>
</g>
<!-- L10nValidateNumberDirective  -->
<g id="node5" class="node">
<title>L10nValidateNumberDirective </title>
<polygon fill="#fb8072" stroke="#000000" points="248.9305,-252 54.0695,-252 54.0695,-216 248.9305,-216 248.9305,-252"/>
<text text-anchor="middle" x="151.5" y="-229.8" font-family="Times,serif" font-size="14.00" fill="#000000">L10nValidateNumberDirective </text>
</g>
<!-- L10nValidationModule&#45;&gt;L10nValidateNumberDirective  -->
<g id="edge4" class="edge">
<title>L10nValidationModule&#45;&gt;L10nValidateNumberDirective </title>
<path fill="none" stroke="#000000" stroke-dasharray="5,2" d="M154.5,-187.1061C154.5,-187.1061 154.5,-205.991 154.5,-205.991"/>
<polygon fill="#000000" stroke="#000000" points="151.0001,-205.9909 154.5,-215.991 158.0001,-205.991 151.0001,-205.9909"/>
</g>
</g>
</svg>
