<?xml version="1.0" encoding="UTF-8" standalone="no"?>
<!DOCTYPE svg PUBLIC "-//W3C//DTD SVG 1.1//EN"
 "http://www.w3.org/Graphics/SVG/1.1/DTD/svg11.dtd">
<!-- Generated by graphviz version 2.47.3 (20210619.1520)
 -->
<!-- Title: dependencies Pages: 1 -->
<svg width="1790pt" height="312pt"
 viewBox="0.00 0.00 1790.00 311.80" xmlns="http://www.w3.org/2000/svg" xmlns:xlink="http://www.w3.org/1999/xlink">
<g id="graph0" class="graph" transform="scale(1 1) rotate(0) translate(4 307.8)">
<title>dependencies</title>
<polygon fill="white" stroke="transparent" points="-4,4 -4,-307.8 1786,-307.8 1786,4 -4,4"/>
<text text-anchor="middle" x="891" y="-8.2" font-family="sans-serif" font-size="14.00">dependencies</text>
<g id="clust1" class="cluster">
<title>cluster_L10nValidationModule</title>
<polygon fill="none" stroke="black" stroke-dasharray="1,5" points="8,-32.8 8,-295.8 1774,-295.8 1774,-32.8 8,-32.8"/>
</g>
<g id="clust3" class="cluster">
<title>cluster_L10nValidationModule_L10nValidateDateDirective_providers</title>
<polygon fill="none" stroke="black" points="908,-40.8 908,-157.8 1766,-157.8 1766,-40.8 908,-40.8"/>
</g>
<g id="clust2" class="cluster">
<title>cluster_L10nValidationModule_declarations</title>
<polygon fill="none" stroke="black" points="524,-105.8 524,-157.8 730,-157.8 730,-105.8 524,-105.8"/>
</g>
<g id="clust4" class="cluster">
<title>cluster_L10nValidationModule_L10nValidateNumberDirective_providers</title>
<polygon fill="none" stroke="black" points="16,-40.8 16,-92.8 900,-92.8 900,-40.8 16,-40.8"/>
</g>
<g id="clust6" class="cluster">
<title>cluster_L10nValidationModule_exports</title>
<polygon fill="none" stroke="black" points="776,-235.8 776,-287.8 1179,-287.8 1179,-235.8 776,-235.8"/>
</g>
<!-- L10nValidateDateDirective -->
<g id="node1" class="node">
<title>L10nValidateDateDirective</title>
<polygon fill="#ffffb3" stroke="black" points="1254.98,-149.8 1083.02,-149.8 1083.02,-113.8 1254.98,-113.8 1254.98,-149.8"/>
<text text-anchor="middle" x="1169" y="-127.6" font-family="Times,serif" font-size="14.00">L10nValidateDateDirective</text>
</g>
<!-- L10nValidationModule -->
<g id="node3" class="node">
<title>L10nValidationModule</title>
<polygon fill="#8dd3c7" stroke="black" points="1056.2,-214.8 1053.2,-218.8 1032.2,-218.8 1029.2,-214.8 907.8,-214.8 907.8,-178.8 1056.2,-178.8 1056.2,-214.8"/>
<text text-anchor="middle" x="982" y="-192.6" font-family="Times,serif" font-size="14.00">L10nValidationModule</text>
</g>
<!-- L10nValidateDateDirective&#45;&gt;L10nValidationModule -->
<g id="edge1" class="edge">
<title>L10nValidateDateDirective&#45;&gt;L10nValidationModule</title>
<path fill="none" stroke="black" d="M1127.38,-149.91C1127.38,-169.14 1127.38,-196.8 1127.38,-196.8 1127.38,-196.8 1066.39,-196.8 1066.39,-196.8"/>
<polygon fill="black" stroke="black" points="1066.39,-193.3 1056.39,-196.8 1066.39,-200.3 1066.39,-193.3"/>
</g>
<!-- L10nValidateNumberDirective -->
<g id="node2" class="node">
<title>L10nValidateNumberDirective</title>
<polygon fill="#ffffb3" stroke="black" points="722.43,-149.8 531.57,-149.8 531.57,-113.8 722.43,-113.8 722.43,-149.8"/>
<text text-anchor="middle" x="627" y="-127.6" font-family="Times,serif" font-size="14.00">L10nValidateNumberDirective</text>
</g>
<!-- L10nValidateNumberDirective&#45;&gt;L10nValidationModule -->
<g id="edge3" class="edge">
<title>L10nValidateNumberDirective&#45;&gt;L10nValidationModule</title>
<path fill="none" stroke="black" d="M722.71,-131.8C805.51,-131.8 912.03,-131.8 912.03,-131.8 912.03,-131.8 912.03,-168.69 912.03,-168.69"/>
<polygon fill="black" stroke="black" points="908.53,-168.69 912.03,-178.69 915.53,-168.69 908.53,-168.69"/>
</g>
<!-- L10nValidateDateDirective  -->
<g id="node6" class="node">
<title>L10nValidateDateDirective </title>
<polygon fill="#fb8072" stroke="black" points="1171.48,-279.8 996.52,-279.8 996.52,-243.8 1171.48,-243.8 1171.48,-279.8"/>
<text text-anchor="middle" x="1084" y="-257.6" font-family="Times,serif" font-size="14.00">L10nValidateDateDirective </text>
</g>
<!-- L10nValidationModule&#45;&gt;L10nValidateDateDirective  -->
<g id="edge5" class="edge">
<title>L10nValidationModule&#45;&gt;L10nValidateDateDirective </title>
<path fill="none" stroke="black" stroke-dasharray="5,2" d="M1026.3,-214.91C1026.3,-214.91 1026.3,-233.79 1026.3,-233.79"/>
<polygon fill="black" stroke="black" points="1022.8,-233.79 1026.3,-243.79 1029.8,-233.79 1022.8,-233.79"/>
</g>
<!-- L10nValidateNumberDirective  -->
<g id="node7" class="node">
<title>L10nValidateNumberDirective </title>
<polygon fill="#fb8072" stroke="black" points="978.43,-279.8 783.57,-279.8 783.57,-243.8 978.43,-243.8 978.43,-279.8"/>
<text text-anchor="middle" x="881" y="-257.6" font-family="Times,serif" font-size="14.00">L10nValidateNumberDirective </text>
</g>
<!-- L10nValidationModule&#45;&gt;L10nValidateNumberDirective  -->
<g id="edge6" class="edge">
<title>L10nValidationModule&#45;&gt;L10nValidateNumberDirective </title>
<path fill="none" stroke="black" stroke-dasharray="5,2" d="M943.06,-214.91C943.06,-214.91 943.06,-233.79 943.06,-233.79"/>
<polygon fill="black" stroke="black" points="939.56,-233.79 943.06,-243.79 946.56,-233.79 939.56,-233.79"/>
</g>
<!-- { provide: NG_VALIDATORS, useExisting: forwardRef(() =&gt; L10nValidateDateDirective), multi: true } -->
<g id="node4" class="node">
<title>{ provide: NG_VALIDATORS, useExisting: forwardRef(() =&gt; L10nValidateDateDirective), multi: true }</title>
<ellipse fill="#fdb462" stroke="black" cx="1337" cy="-66.8" rx="420.66" ry="18"/>
<text text-anchor="middle" x="1337" y="-62.6" font-family="Times,serif" font-size="14.00">{ provide: NG_VALIDATORS, useExisting: forwardRef(() =&gt; L10nValidateDateDirective), multi: true }</text>
</g>
<!-- { provide: NG_VALIDATORS, useExisting: forwardRef(() =&gt; L10nValidateDateDirective), multi: true }&#45;&gt;L10nValidateDateDirective -->
<g id="edge2" class="edge">
<title>{ provide: NG_VALIDATORS, useExisting: forwardRef(() =&gt; L10nValidateDateDirective), multi: true }&#45;&gt;L10nValidateDateDirective</title>
<path fill="none" stroke="black" d="M1169,-83.54C1169,-83.54 1169,-103.52 1169,-103.52"/>
<polygon fill="black" stroke="black" points="1165.5,-103.52 1169,-113.52 1172.5,-103.52 1165.5,-103.52"/>
</g>
<!-- { provide: NG_VALIDATORS, useExisting: forwardRef(() =&gt; L10nValidateNumberDirective), multi: true } -->
<g id="node5" class="node">
<title>{ provide: NG_VALIDATORS, useExisting: forwardRef(() =&gt; L10nValidateNumberDirective), multi: true }</title>
<ellipse fill="#fdb462" stroke="black" cx="458" cy="-66.8" rx="434.49" ry="18"/>
<text text-anchor="middle" x="458" y="-62.6" font-family="Times,serif" font-size="14.00">{ provide: NG_VALIDATORS, useExisting: forwardRef(() =&gt; L10nValidateNumberDirective), multi: true }</text>
</g>
<!-- { provide: NG_VALIDATORS, useExisting: forwardRef(() =&gt; L10nValidateNumberDirective), multi: true }&#45;&gt;L10nValidateNumberDirective -->
<g id="edge4" class="edge">
<title>{ provide: NG_VALIDATORS, useExisting: forwardRef(() =&gt; L10nValidateNumberDirective), multi: true }&#45;&gt;L10nValidateNumberDirective</title>
<path fill="none" stroke="black" d="M627,-83.54C627,-83.54 627,-103.52 627,-103.52"/>
<polygon fill="black" stroke="black" points="623.5,-103.52 627,-113.52 630.5,-103.52 623.5,-103.52"/>
</g>
</g>
</svg>
