<?xml version="1.0" encoding="UTF-8" standalone="no"?>
<!DOCTYPE svg PUBLIC "-//W3C//DTD SVG 1.1//EN"
 "http://www.w3.org/Graphics/SVG/1.1/DTD/svg11.dtd">
<!-- Generated by graphviz version 2.40.1 (20161225.0304)
 -->
<!-- Title: dependencies Pages: 1 -->
<svg width="1790pt" height="349pt"
 viewBox="0.00 0.00 1790.00 349.00" xmlns="http://www.w3.org/2000/svg" xmlns:xlink="http://www.w3.org/1999/xlink">
<g id="graph0" class="graph" transform="scale(1 1) rotate(0) translate(4 345)">
<title>dependencies</title>
<polygon fill="#ffffff" stroke="transparent" points="-4,4 -4,-345 1786,-345 1786,4 -4,4"/>
<text text-anchor="start" x="870.0091" y="-42.4" font-family="sans-serif" font-weight="bold" font-size="14.00" fill="#000000">Legend</text>
<polygon fill="#ffffb3" stroke="transparent" points="657,-10 657,-30 677,-30 677,-10 657,-10"/>
<text text-anchor="start" x="680.629" y="-15.4" font-family="sans-serif" font-size="14.00" fill="#000000"> &#160;Declarations</text>
<polygon fill="#8dd3c7" stroke="transparent" points="770,-10 770,-30 790,-30 790,-10 770,-10"/>
<text text-anchor="start" x="793.7251" y="-15.4" font-family="sans-serif" font-size="14.00" fill="#000000"> &#160;Module</text>
<polygon fill="#80b1d3" stroke="transparent" points="856,-10 856,-30 876,-30 876,-10 856,-10"/>
<text text-anchor="start" x="879.7812" y="-15.4" font-family="sans-serif" font-size="14.00" fill="#000000"> &#160;Bootstrap</text>
<polygon fill="#fdb462" stroke="transparent" points="953,-10 953,-30 973,-30 973,-10 953,-10"/>
<text text-anchor="start" x="976.6732" y="-15.4" font-family="sans-serif" font-size="14.00" fill="#000000"> &#160;Providers</text>
<polygon fill="#fb8072" stroke="transparent" points="1049,-10 1049,-30 1069,-30 1069,-10 1049,-10"/>
<text text-anchor="start" x="1072.7258" y="-15.4" font-family="sans-serif" font-size="14.00" fill="#000000"> &#160;Exports</text>
<g id="clust1" class="cluster">
<title>cluster_L10nValidationModule</title>
<polygon fill="none" stroke="#000000" stroke-dasharray="1,5" points="8,-70 8,-333 1774,-333 1774,-70 8,-70"/>
</g>
<g id="clust2" class="cluster">
<title>cluster_L10nValidationModule_declarations</title>
<polygon fill="none" stroke="#000000" points="695,-143 695,-195 1091,-195 1091,-143 695,-143"/>
</g>
<g id="clust3" class="cluster">
<title>cluster_L10nValidationModule_L10nValidateDateDirective_providers</title>
<polygon fill="none" stroke="#000000" points="908,-78 908,-130 1766,-130 1766,-78 908,-78"/>
</g>
<g id="clust4" class="cluster">
<title>cluster_L10nValidationModule_L10nValidateNumberDirective_providers</title>
<polygon fill="none" stroke="#000000" points="16,-78 16,-130 900,-130 900,-78 16,-78"/>
</g>
<g id="clust6" class="cluster">
<title>cluster_L10nValidationModule_exports</title>
<polygon fill="none" stroke="#000000" points="691,-273 691,-325 1094,-325 1094,-273 691,-273"/>
</g>
<!-- L10nValidateDateDirective -->
<g id="node1" class="node">
<title>L10nValidateDateDirective</title>
<polygon fill="#ffffb3" stroke="#000000" points="1082.9847,-187 911.0153,-187 911.0153,-151 1082.9847,-151 1082.9847,-187"/>
<text text-anchor="middle" x="997" y="-164.8" font-family="Times,serif" font-size="14.00" fill="#000000">L10nValidateDateDirective</text>
</g>
<!-- L10nValidationModule -->
<g id="node3" class="node">
<title>L10nValidationModule</title>
<polygon fill="#8dd3c7" stroke="#000000" points="971.2007,-252 968.2007,-256 947.2007,-256 944.2007,-252 822.7993,-252 822.7993,-216 971.2007,-216 971.2007,-252"/>
<text text-anchor="middle" x="897" y="-229.8" font-family="Times,serif" font-size="14.00" fill="#000000">L10nValidationModule</text>
</g>
<!-- L10nValidateDateDirective&#45;&gt;L10nValidationModule -->
<g id="edge1" class="edge">
<title>L10nValidateDateDirective&#45;&gt;L10nValidationModule</title>
<path fill="none" stroke="#000000" d="M941.1792,-187.1061C941.1792,-187.1061 941.1792,-205.991 941.1792,-205.991"/>
<polygon fill="#000000" stroke="#000000" points="937.6792,-205.9909 941.1792,-215.991 944.6792,-205.991 937.6792,-205.9909"/>
</g>
<!-- L10nValidateNumberDirective -->
<g id="node2" class="node">
<title>L10nValidateNumberDirective</title>
<polygon fill="#ffffb3" stroke="#000000" points="893.43,-187 702.57,-187 702.57,-151 893.43,-151 893.43,-187"/>
<text text-anchor="middle" x="798" y="-164.8" font-family="Times,serif" font-size="14.00" fill="#000000">L10nValidateNumberDirective</text>
</g>
<!-- L10nValidateNumberDirective&#45;&gt;L10nValidationModule -->
<g id="edge3" class="edge">
<title>L10nValidateNumberDirective&#45;&gt;L10nValidationModule</title>
<path fill="none" stroke="#000000" d="M858.1824,-187.1061C858.1824,-187.1061 858.1824,-205.991 858.1824,-205.991"/>
<polygon fill="#000000" stroke="#000000" points="854.6824,-205.9909 858.1824,-215.991 861.6824,-205.991 854.6824,-205.9909"/>
</g>
<!-- L10nValidateDateDirective  -->
<g id="node6" class="node">
<title>L10nValidateDateDirective </title>
<polygon fill="#fb8072" stroke="#000000" points="1086.484,-317 911.516,-317 911.516,-281 1086.484,-281 1086.484,-317"/>
<text text-anchor="middle" x="999" y="-294.8" font-family="Times,serif" font-size="14.00" fill="#000000">L10nValidateDateDirective </text>
</g>
<!-- L10nValidationModule&#45;&gt;L10nValidateDateDirective  -->
<g id="edge5" class="edge">
<title>L10nValidationModule&#45;&gt;L10nValidateDateDirective </title>
<path fill="none" stroke="#000000" stroke-dasharray="5,2" d="M941.3042,-252.1061C941.3042,-252.1061 941.3042,-270.991 941.3042,-270.991"/>
<polygon fill="#000000" stroke="#000000" points="937.8042,-270.9909 941.3042,-280.991 944.8042,-270.991 937.8042,-270.9909"/>
</g>
<!-- L10nValidateNumberDirective  -->
<g id="node7" class="node">
<title>L10nValidateNumberDirective </title>
<polygon fill="#fb8072" stroke="#000000" points="893.4305,-317 698.5695,-317 698.5695,-281 893.4305,-281 893.4305,-317"/>
<text text-anchor="middle" x="796" y="-294.8" font-family="Times,serif" font-size="14.00" fill="#000000">L10nValidateNumberDirective </text>
</g>
<!-- L10nValidationModule&#45;&gt;L10nValidateNumberDirective  -->
<g id="edge6" class="edge">
<title>L10nValidationModule&#45;&gt;L10nValidateNumberDirective </title>
<path fill="none" stroke="#000000" stroke-dasharray="5,2" d="M858.0574,-252.1061C858.0574,-252.1061 858.0574,-270.991 858.0574,-270.991"/>
<polygon fill="#000000" stroke="#000000" points="854.5574,-270.9909 858.0574,-280.991 861.5574,-270.991 854.5574,-270.9909"/>
</g>
<!-- { provide: NG_VALIDATORS, useExisting: forwardRef(() =&gt; L10nValidateDateDirective), multi: true } -->
<g id="node4" class="node">
<title>{ provide: NG_VALIDATORS, useExisting: forwardRef(() =&gt; L10nValidateDateDirective), multi: true }</title>
<ellipse fill="#fdb462" stroke="#000000" cx="1337" cy="-104" rx="420.6618" ry="18"/>
<text text-anchor="middle" x="1337" y="-99.8" font-family="Times,serif" font-size="14.00" fill="#000000">{ provide: NG_VALIDATORS, useExisting: forwardRef(() =&gt; L10nValidateDateDirective), multi: true }</text>
</g>
<!-- { provide: NG_VALIDATORS, useExisting: forwardRef(() =&gt; L10nValidateDateDirective), multi: true }&#45;&gt;L10nValidateDateDirective -->
<g id="edge2" class="edge">
<title>{ provide: NG_VALIDATORS, useExisting: forwardRef(() =&gt; L10nValidateDateDirective), multi: true }&#45;&gt;L10nValidateDateDirective</title>
<path fill="none" stroke="#000000" d="M999.4556,-115.0264C999.4556,-115.0264 999.4556,-140.7791 999.4556,-140.7791"/>
<polygon fill="#000000" stroke="#000000" points="995.9557,-140.779 999.4556,-150.7791 1002.9557,-140.7791 995.9557,-140.779"/>
</g>
<!-- { provide: NG_VALIDATORS, useExisting: forwardRef(() =&gt; L10nValidateNumberDirective), multi: true } -->
<g id="node5" class="node">
<title>{ provide: NG_VALIDATORS, useExisting: forwardRef(() =&gt; L10nValidateNumberDirective), multi: true }</title>
<ellipse fill="#fdb462" stroke="#000000" cx="458" cy="-104" rx="434.4889" ry="18"/>
<text text-anchor="middle" x="458" y="-99.8" font-family="Times,serif" font-size="14.00" fill="#000000">{ provide: NG_VALIDATORS, useExisting: forwardRef(() =&gt; L10nValidateNumberDirective), multi: true }</text>
</g>
<!-- { provide: NG_VALIDATORS, useExisting: forwardRef(() =&gt; L10nValidateNumberDirective), multi: true }&#45;&gt;L10nValidateNumberDirective -->
<g id="edge4" class="edge">
<title>{ provide: NG_VALIDATORS, useExisting: forwardRef(() =&gt; L10nValidateNumberDirective), multi: true }&#45;&gt;L10nValidateNumberDirective</title>
<path fill="none" stroke="#000000" d="M797.3897,-115.3221C797.3897,-115.3221 797.3897,-140.9424 797.3897,-140.9424"/>
<polygon fill="#000000" stroke="#000000" points="793.8898,-140.9424 797.3897,-150.9424 800.8898,-140.9425 793.8898,-140.9424"/>
</g>
</g>
</svg>
