<?xml version="1.0" encoding="UTF-8" standalone="no"?>
<!DOCTYPE svg PUBLIC "-//W3C//DTD SVG 1.1//EN"
 "http://www.w3.org/Graphics/SVG/1.1/DTD/svg11.dtd">
<!-- Generated by graphviz version 2.47.3 (20210619.1520)
 -->
<!-- Title: dependencies Pages: 1 -->
<svg width="443pt" height="247pt"
 viewBox="0.00 0.00 443.00 246.80" xmlns="http://www.w3.org/2000/svg" xmlns:xlink="http://www.w3.org/1999/xlink">
<g id="graph0" class="graph" transform="scale(1 1) rotate(0) translate(4 242.8)">
<title>dependencies</title>
<polygon fill="white" stroke="transparent" points="-4,4 -4,-242.8 439,-242.8 439,4 -4,4"/>
<text text-anchor="middle" x="217.5" y="-8.2" font-family="sans-serif" font-size="14.00">dependencies</text>
<g id="clust1" class="cluster">
<title>cluster_L10nValidationModule</title>
<polygon fill="none" stroke="black" stroke-dasharray="1,5" points="8,-32.8 8,-230.8 427,-230.8 427,-32.8 8,-32.8"/>
</g>
<g id="clust3" class="cluster">
<title>cluster_L10nValidationModule_imports</title>
<polygon fill="none" stroke="black" points="20,-40.8 20,-92.8 416,-92.8 416,-40.8 20,-40.8"/>
</g>
<g id="clust4" class="cluster">
<title>cluster_L10nValidationModule_exports</title>
<polygon fill="none" stroke="black" points="16,-170.8 16,-222.8 419,-222.8 419,-170.8 16,-170.8"/>
</g>
<!-- L10nValidateDateDirective -->
<g id="node1" class="node">
<title>L10nValidateDateDirective</title>
<polygon fill="#8dd3c7" stroke="black" points="407.98,-84.8 404.98,-88.8 383.98,-88.8 380.98,-84.8 236.02,-84.8 236.02,-48.8 407.98,-48.8 407.98,-84.8"/>
<text text-anchor="middle" x="322" y="-62.6" font-family="Times,serif" font-size="14.00">L10nValidateDateDirective</text>
</g>
<!-- L10nValidationModule -->
<g id="node3" class="node">
<title>L10nValidationModule</title>
<polygon fill="#8dd3c7" stroke="black" points="198.2,-149.8 195.2,-153.8 174.2,-153.8 171.2,-149.8 49.8,-149.8 49.8,-113.8 198.2,-113.8 198.2,-149.8"/>
<text text-anchor="middle" x="124" y="-127.6" font-family="Times,serif" font-size="14.00">L10nValidationModule</text>
</g>
<!-- L10nValidateDateDirective&#45;&gt;L10nValidationModule -->
<g id="edge1" class="edge">
<title>L10nValidateDateDirective&#45;&gt;L10nValidationModule</title>
<path fill="none" stroke="black" d="M350.66,-84.82C350.66,-102.17 350.66,-125.8 350.66,-125.8 350.66,-125.8 208.22,-125.8 208.22,-125.8"/>
<polygon fill="black" stroke="black" points="208.22,-122.3 198.22,-125.8 208.22,-129.3 208.22,-122.3"/>
</g>
<!-- L10nValidateNumberDirective -->
<g id="node2" class="node">
<title>L10nValidateNumberDirective</title>
<polygon fill="#8dd3c7" stroke="black" points="218.43,-84.8 215.43,-88.8 194.43,-88.8 191.43,-84.8 27.57,-84.8 27.57,-48.8 218.43,-48.8 218.43,-84.8"/>
<text text-anchor="middle" x="123" y="-62.6" font-family="Times,serif" font-size="14.00">L10nValidateNumberDirective</text>
</g>
<!-- L10nValidateNumberDirective&#45;&gt;L10nValidationModule -->
<g id="edge2" class="edge">
<title>L10nValidateNumberDirective&#45;&gt;L10nValidationModule</title>
<path fill="none" stroke="black" d="M124,-84.91C124,-84.91 124,-103.79 124,-103.79"/>
<polygon fill="black" stroke="black" points="120.5,-103.79 124,-113.79 127.5,-103.79 120.5,-103.79"/>
</g>
<!-- L10nValidateDateDirective  -->
<g id="node4" class="node">
<title>L10nValidateDateDirective </title>
<polygon fill="#fb8072" stroke="black" points="411.48,-214.8 236.52,-214.8 236.52,-178.8 411.48,-178.8 411.48,-214.8"/>
<text text-anchor="middle" x="324" y="-192.6" font-family="Times,serif" font-size="14.00">L10nValidateDateDirective </text>
</g>
<!-- L10nValidationModule&#45;&gt;L10nValidateDateDirective  -->
<g id="edge3" class="edge">
<title>L10nValidationModule&#45;&gt;L10nValidateDateDirective </title>
<path fill="none" stroke="black" stroke-dasharray="5,2" d="M198.38,-137.8C243.95,-137.8 293.59,-137.8 293.59,-137.8 293.59,-137.8 293.59,-168.78 293.59,-168.78"/>
<polygon fill="black" stroke="black" points="290.09,-168.78 293.59,-178.78 297.09,-168.78 290.09,-168.78"/>
</g>
<!-- L10nValidateNumberDirective  -->
<g id="node5" class="node">
<title>L10nValidateNumberDirective </title>
<polygon fill="#fb8072" stroke="black" points="218.43,-214.8 23.57,-214.8 23.57,-178.8 218.43,-178.8 218.43,-214.8"/>
<text text-anchor="middle" x="121" y="-192.6" font-family="Times,serif" font-size="14.00">L10nValidateNumberDirective </text>
</g>
<!-- L10nValidationModule&#45;&gt;L10nValidateNumberDirective  -->
<g id="edge4" class="edge">
<title>L10nValidationModule&#45;&gt;L10nValidateNumberDirective </title>
<path fill="none" stroke="black" stroke-dasharray="5,2" d="M124,-149.91C124,-149.91 124,-168.79 124,-168.79"/>
<polygon fill="black" stroke="black" points="120.5,-168.79 124,-178.79 127.5,-168.79 120.5,-168.79"/>
</g>
</g>
</svg>
