<?xml version="1.0" encoding="UTF-8" standalone="no"?>
<!DOCTYPE svg PUBLIC "-//W3C//DTD SVG 1.1//EN"
 "http://www.w3.org/Graphics/SVG/1.1/DTD/svg11.dtd">
<!-- Generated by graphviz version 2.44.1 (20200629.0846)
 -->
<!-- Title: dependencies Pages: 1 -->
<svg width="1790pt" height="349pt"
 viewBox="0.00 0.00 1790.00 349.00" xmlns="http://www.w3.org/2000/svg" xmlns:xlink="http://www.w3.org/1999/xlink">
<g id="graph0" class="graph" transform="scale(1 1) rotate(0) translate(4 345)">
<title>dependencies</title>
<polygon fill="white" stroke="transparent" points="-4,4 -4,-345 1786,-345 1786,4 -4,4"/>
<text text-anchor="start" x="870.01" y="-42.4" font-family="sans-serif" font-weight="bold" font-size="14.00">Legend</text>
<polygon fill="#ffffb3" stroke="transparent" points="657,-10 657,-30 677,-30 677,-10 657,-10"/>
<text text-anchor="start" x="680.63" y="-15.4" font-family="sans-serif" font-size="14.00"> &#160;Declarations</text>
<polygon fill="#8dd3c7" stroke="transparent" points="770,-10 770,-30 790,-30 790,-10 770,-10"/>
<text text-anchor="start" x="793.73" y="-15.4" font-family="sans-serif" font-size="14.00"> &#160;Module</text>
<polygon fill="#80b1d3" stroke="transparent" points="856,-10 856,-30 876,-30 876,-10 856,-10"/>
<text text-anchor="start" x="879.78" y="-15.4" font-family="sans-serif" font-size="14.00"> &#160;Bootstrap</text>
<polygon fill="#fdb462" stroke="transparent" points="953,-10 953,-30 973,-30 973,-10 953,-10"/>
<text text-anchor="start" x="976.67" y="-15.4" font-family="sans-serif" font-size="14.00"> &#160;Providers</text>
<polygon fill="#fb8072" stroke="transparent" points="1049,-10 1049,-30 1069,-30 1069,-10 1049,-10"/>
<text text-anchor="start" x="1072.73" y="-15.4" font-family="sans-serif" font-size="14.00"> &#160;Exports</text>
<g id="clust1" class="cluster">
<title>cluster_L10nValidationModule</title>
<polygon fill="none" stroke="black" stroke-dasharray="1,5" points="8,-70 8,-333 1774,-333 1774,-70 8,-70"/>
</g>
<g id="clust2" class="cluster">
<title>cluster_L10nValidationModule_declarations</title>
<polygon fill="none" stroke="black" points="691,-143 691,-195 1087,-195 1087,-143 691,-143"/>
</g>
<g id="clust4" class="cluster">
<title>cluster_L10nValidationModule_L10nValidateNumberDirective_providers</title>
<polygon fill="none" stroke="black" points="882,-78 882,-130 1766,-130 1766,-78 882,-78"/>
</g>
<g id="clust6" class="cluster">
<title>cluster_L10nValidationModule_exports</title>
<polygon fill="none" stroke="black" points="678,-273 678,-325 1081,-325 1081,-273 678,-273"/>
</g>
<g id="clust3" class="cluster">
<title>cluster_L10nValidationModule_L10nValidateDateDirective_providers</title>
<polygon fill="none" stroke="black" points="16,-78 16,-130 874,-130 874,-78 16,-78"/>
</g>
<!-- L10nValidateDateDirective -->
<g id="node1" class="node">
<title>L10nValidateDateDirective</title>
<polygon fill="#ffffb3" stroke="black" points="870.98,-187 699.02,-187 699.02,-151 870.98,-151 870.98,-187"/>
<text text-anchor="middle" x="785" y="-164.8" font-family="Times,serif" font-size="14.00">L10nValidateDateDirective</text>
</g>
<!-- L10nValidationModule -->
<g id="node3" class="node">
<title>L10nValidationModule</title>
<polygon fill="#8dd3c7" stroke="black" points="958.2,-252 955.2,-256 934.2,-256 931.2,-252 809.8,-252 809.8,-216 958.2,-216 958.2,-252"/>
<text text-anchor="middle" x="884" y="-229.8" font-family="Times,serif" font-size="14.00">L10nValidationModule</text>
</g>
<!-- L10nValidateDateDirective&#45;&gt;L10nValidationModule -->
<g id="edge1" class="edge">
<title>L10nValidateDateDirective&#45;&gt;L10nValidationModule</title>
<path fill="none" stroke="black" d="M840.32,-187.11C840.32,-187.11 840.32,-205.99 840.32,-205.99"/>
<polygon fill="black" stroke="black" points="836.82,-205.99 840.32,-215.99 843.82,-205.99 836.82,-205.99"/>
</g>
<!-- L10nValidateNumberDirective -->
<g id="node2" class="node">
<title>L10nValidateNumberDirective</title>
<polygon fill="#ffffb3" stroke="black" points="1079.43,-187 888.57,-187 888.57,-151 1079.43,-151 1079.43,-187"/>
<text text-anchor="middle" x="984" y="-164.8" font-family="Times,serif" font-size="14.00">L10nValidateNumberDirective</text>
</g>
<!-- L10nValidateNumberDirective&#45;&gt;L10nValidationModule -->
<g id="edge3" class="edge">
<title>L10nValidateNumberDirective&#45;&gt;L10nValidationModule</title>
<path fill="none" stroke="black" d="M923.32,-187.11C923.32,-187.11 923.32,-205.99 923.32,-205.99"/>
<polygon fill="black" stroke="black" points="919.82,-205.99 923.32,-215.99 926.82,-205.99 919.82,-205.99"/>
</g>
<!-- L10nValidateDateDirective  -->
<g id="node6" class="node">
<title>L10nValidateDateDirective </title>
<polygon fill="#fb8072" stroke="black" points="1073.48,-317 898.52,-317 898.52,-281 1073.48,-281 1073.48,-317"/>
<text text-anchor="middle" x="986" y="-294.8" font-family="Times,serif" font-size="14.00">L10nValidateDateDirective </text>
</g>
<!-- L10nValidationModule&#45;&gt;L10nValidateDateDirective  -->
<g id="edge5" class="edge">
<title>L10nValidationModule&#45;&gt;L10nValidateDateDirective </title>
<path fill="none" stroke="black" stroke-dasharray="5,2" d="M928.3,-252.11C928.3,-252.11 928.3,-270.99 928.3,-270.99"/>
<polygon fill="black" stroke="black" points="924.8,-270.99 928.3,-280.99 931.8,-270.99 924.8,-270.99"/>
</g>
<!-- L10nValidateNumberDirective  -->
<g id="node7" class="node">
<title>L10nValidateNumberDirective </title>
<polygon fill="#fb8072" stroke="black" points="880.43,-317 685.57,-317 685.57,-281 880.43,-281 880.43,-317"/>
<text text-anchor="middle" x="783" y="-294.8" font-family="Times,serif" font-size="14.00">L10nValidateNumberDirective </text>
</g>
<!-- L10nValidationModule&#45;&gt;L10nValidateNumberDirective  -->
<g id="edge6" class="edge">
<title>L10nValidationModule&#45;&gt;L10nValidateNumberDirective </title>
<path fill="none" stroke="black" stroke-dasharray="5,2" d="M845.06,-252.11C845.06,-252.11 845.06,-270.99 845.06,-270.99"/>
<polygon fill="black" stroke="black" points="841.56,-270.99 845.06,-280.99 848.56,-270.99 841.56,-270.99"/>
</g>
<!-- { provide: NG_VALIDATORS, useExisting: forwardRef(() =&gt; L10nValidateDateDirective), multi: true } -->
<g id="node4" class="node">
<title>{ provide: NG_VALIDATORS, useExisting: forwardRef(() =&gt; L10nValidateDateDirective), multi: true }</title>
<ellipse fill="#fdb462" stroke="black" cx="445" cy="-104" rx="420.66" ry="18"/>
<text text-anchor="middle" x="445" y="-99.8" font-family="Times,serif" font-size="14.00">{ provide: NG_VALIDATORS, useExisting: forwardRef(() =&gt; L10nValidateDateDirective), multi: true }</text>
</g>
<!-- { provide: NG_VALIDATORS, useExisting: forwardRef(() =&gt; L10nValidateDateDirective), multi: true }&#45;&gt;L10nValidateDateDirective -->
<g id="edge2" class="edge">
<title>{ provide: NG_VALIDATORS, useExisting: forwardRef(() =&gt; L10nValidateDateDirective), multi: true }&#45;&gt;L10nValidateDateDirective</title>
<path fill="none" stroke="black" d="M782.54,-115.03C782.54,-115.03 782.54,-140.78 782.54,-140.78"/>
<polygon fill="black" stroke="black" points="779.04,-140.78 782.54,-150.78 786.04,-140.78 779.04,-140.78"/>
</g>
<!-- { provide: NG_VALIDATORS, useExisting: forwardRef(() =&gt; L10nValidateNumberDirective), multi: true } -->
<g id="node5" class="node">
<title>{ provide: NG_VALIDATORS, useExisting: forwardRef(() =&gt; L10nValidateNumberDirective), multi: true }</title>
<ellipse fill="#fdb462" stroke="black" cx="1324" cy="-104" rx="434.49" ry="18"/>
<text text-anchor="middle" x="1324" y="-99.8" font-family="Times,serif" font-size="14.00">{ provide: NG_VALIDATORS, useExisting: forwardRef(() =&gt; L10nValidateNumberDirective), multi: true }</text>
</g>
<!-- { provide: NG_VALIDATORS, useExisting: forwardRef(() =&gt; L10nValidateNumberDirective), multi: true }&#45;&gt;L10nValidateNumberDirective -->
<g id="edge4" class="edge">
<title>{ provide: NG_VALIDATORS, useExisting: forwardRef(() =&gt; L10nValidateNumberDirective), multi: true }&#45;&gt;L10nValidateNumberDirective</title>
<path fill="none" stroke="black" d="M984.61,-115.32C984.61,-115.32 984.61,-140.94 984.61,-140.94"/>
<polygon fill="black" stroke="black" points="981.11,-140.94 984.61,-150.94 988.11,-140.94 981.11,-140.94"/>
</g>
</g>
</svg>
