<?xml version="1.0" encoding="UTF-8" standalone="no"?>
<!DOCTYPE svg PUBLIC "-//W3C//DTD SVG 1.1//EN"
 "http://www.w3.org/Graphics/SVG/1.1/DTD/svg11.dtd">
<!-- Generated by graphviz version 2.44.1 (20200629.0846)
 -->
<!-- Title: dependencies Pages: 1 -->
<svg width="534pt" height="284pt"
 viewBox="0.00 0.00 534.00 284.00" xmlns="http://www.w3.org/2000/svg" xmlns:xlink="http://www.w3.org/1999/xlink">
<g id="graph0" class="graph" transform="scale(1 1) rotate(0) translate(4 280)">
<title>dependencies</title>
<polygon fill="white" stroke="transparent" points="-4,4 -4,-280 530,-280 530,4 -4,4"/>
<text text-anchor="start" x="242.01" y="-42.4" font-family="sans-serif" font-weight="bold" font-size="14.00">Legend</text>
<polygon fill="#ffffb3" stroke="transparent" points="29,-10 29,-30 49,-30 49,-10 29,-10"/>
<text text-anchor="start" x="52.63" y="-15.4" font-family="sans-serif" font-size="14.00"> &#160;Declarations</text>
<polygon fill="#8dd3c7" stroke="transparent" points="142,-10 142,-30 162,-30 162,-10 142,-10"/>
<text text-anchor="start" x="165.73" y="-15.4" font-family="sans-serif" font-size="14.00"> &#160;Module</text>
<polygon fill="#80b1d3" stroke="transparent" points="228,-10 228,-30 248,-30 248,-10 228,-10"/>
<text text-anchor="start" x="251.78" y="-15.4" font-family="sans-serif" font-size="14.00"> &#160;Bootstrap</text>
<polygon fill="#fdb462" stroke="transparent" points="325,-10 325,-30 345,-30 345,-10 325,-10"/>
<text text-anchor="start" x="348.67" y="-15.4" font-family="sans-serif" font-size="14.00"> &#160;Providers</text>
<polygon fill="#fb8072" stroke="transparent" points="421,-10 421,-30 441,-30 441,-10 421,-10"/>
<text text-anchor="start" x="444.73" y="-15.4" font-family="sans-serif" font-size="14.00"> &#160;Exports</text>
<g id="clust1" class="cluster">
<title>cluster_L10nTranslationModule</title>
<polygon fill="none" stroke="black" stroke-dasharray="1,5" points="8,-70 8,-268 518,-268 518,-70 8,-70"/>
</g>
<g id="clust7" class="cluster">
<title>cluster_L10nTranslationModule_exports</title>
<polygon fill="none" stroke="black" points="16,-208 16,-260 510,-260 510,-208 16,-208"/>
</g>
<g id="clust2" class="cluster">
<title>cluster_L10nTranslationModule_declarations</title>
<polygon fill="none" stroke="black" points="22,-78 22,-130 504,-130 504,-78 22,-78"/>
</g>
<!-- L10nTranslateAsyncPipe -->
<g id="node1" class="node">
<title>L10nTranslateAsyncPipe</title>
<polygon fill="#ffffb3" stroke="black" points="496.29,-122 337.71,-122 337.71,-86 496.29,-86 496.29,-122"/>
<text text-anchor="middle" x="417" y="-99.8" font-family="Times,serif" font-size="14.00">L10nTranslateAsyncPipe</text>
</g>
<!-- L10nTranslationModule -->
<g id="node4" class="node">
<title>L10nTranslationModule</title>
<polygon fill="#8dd3c7" stroke="black" points="321.36,-187 318.36,-191 297.36,-191 294.36,-187 168.64,-187 168.64,-151 321.36,-151 321.36,-187"/>
<text text-anchor="middle" x="245" y="-164.8" font-family="Times,serif" font-size="14.00">L10nTranslationModule</text>
</g>
<!-- L10nTranslateAsyncPipe&#45;&gt;L10nTranslationModule -->
<g id="edge1" class="edge">
<title>L10nTranslateAsyncPipe&#45;&gt;L10nTranslationModule</title>
<path fill="none" stroke="black" d="M444.13,-122.02C444.13,-139.37 444.13,-163 444.13,-163 444.13,-163 331.42,-163 331.42,-163"/>
<polygon fill="black" stroke="black" points="331.42,-159.5 321.42,-163 331.42,-166.5 331.42,-159.5"/>
</g>
<!-- L10nTranslateDirective -->
<g id="node2" class="node">
<title>L10nTranslateDirective</title>
<polygon fill="#ffffb3" stroke="black" points="319.72,-122 170.28,-122 170.28,-86 319.72,-86 319.72,-122"/>
<text text-anchor="middle" x="245" y="-99.8" font-family="Times,serif" font-size="14.00">L10nTranslateDirective</text>
</g>
<!-- L10nTranslateDirective&#45;&gt;L10nTranslationModule -->
<g id="edge2" class="edge">
<title>L10nTranslateDirective&#45;&gt;L10nTranslationModule</title>
<path fill="none" stroke="black" d="M245,-122.11C245,-122.11 245,-140.99 245,-140.99"/>
<polygon fill="black" stroke="black" points="241.5,-140.99 245,-150.99 248.5,-140.99 241.5,-140.99"/>
</g>
<!-- L10nTranslatePipe -->
<g id="node3" class="node">
<title>L10nTranslatePipe</title>
<polygon fill="#ffffb3" stroke="black" points="152.02,-122 29.98,-122 29.98,-86 152.02,-86 152.02,-122"/>
<text text-anchor="middle" x="91" y="-99.8" font-family="Times,serif" font-size="14.00">L10nTranslatePipe</text>
</g>
<!-- L10nTranslatePipe&#45;&gt;L10nTranslationModule -->
<g id="edge3" class="edge">
<title>L10nTranslatePipe&#45;&gt;L10nTranslationModule</title>
<path fill="none" stroke="black" d="M109.92,-122.02C109.92,-139.37 109.92,-163 109.92,-163 109.92,-163 158.38,-163 158.38,-163"/>
<polygon fill="black" stroke="black" points="158.38,-166.5 168.38,-163 158.38,-159.5 158.38,-166.5"/>
</g>
<!-- L10nTranslateAsyncPipe  -->
<g id="node5" class="node">
<title>L10nTranslateAsyncPipe </title>
<polygon fill="#fb8072" stroke="black" points="501.79,-252 340.21,-252 340.21,-216 501.79,-216 501.79,-252"/>
<text text-anchor="middle" x="421" y="-229.8" font-family="Times,serif" font-size="14.00">L10nTranslateAsyncPipe </text>
</g>
<!-- L10nTranslationModule&#45;&gt;L10nTranslateAsyncPipe  -->
<g id="edge4" class="edge">
<title>L10nTranslationModule&#45;&gt;L10nTranslateAsyncPipe </title>
<path fill="none" stroke="black" stroke-dasharray="5,2" d="M321.58,-175C357.32,-175 392.12,-175 392.12,-175 392.12,-175 392.12,-205.98 392.12,-205.98"/>
<polygon fill="black" stroke="black" points="388.62,-205.98 392.12,-215.98 395.62,-205.98 388.62,-205.98"/>
</g>
<!-- L10nTranslateDirective  -->
<g id="node6" class="node">
<title>L10nTranslateDirective </title>
<polygon fill="#fb8072" stroke="black" points="321.72,-252 168.28,-252 168.28,-216 321.72,-216 321.72,-252"/>
<text text-anchor="middle" x="245" y="-229.8" font-family="Times,serif" font-size="14.00">L10nTranslateDirective </text>
</g>
<!-- L10nTranslationModule&#45;&gt;L10nTranslateDirective  -->
<g id="edge5" class="edge">
<title>L10nTranslationModule&#45;&gt;L10nTranslateDirective </title>
<path fill="none" stroke="black" stroke-dasharray="5,2" d="M245,-187.11C245,-187.11 245,-205.99 245,-205.99"/>
<polygon fill="black" stroke="black" points="241.5,-205.99 245,-215.99 248.5,-205.99 241.5,-205.99"/>
</g>
<!-- L10nTranslatePipe  -->
<g id="node7" class="node">
<title>L10nTranslatePipe </title>
<polygon fill="#fb8072" stroke="black" points="150.02,-252 23.98,-252 23.98,-216 150.02,-216 150.02,-252"/>
<text text-anchor="middle" x="87" y="-229.8" font-family="Times,serif" font-size="14.00">L10nTranslatePipe </text>
</g>
<!-- L10nTranslationModule&#45;&gt;L10nTranslatePipe  -->
<g id="edge6" class="edge">
<title>L10nTranslationModule&#45;&gt;L10nTranslatePipe </title>
<path fill="none" stroke="black" stroke-dasharray="5,2" d="M168.42,-175C121.29,-175 69.83,-175 69.83,-175 69.83,-175 69.83,-205.98 69.83,-205.98"/>
<polygon fill="black" stroke="black" points="66.33,-205.98 69.83,-215.98 73.33,-205.98 66.33,-205.98"/>
</g>
</g>
</svg>
