<?xml version="1.0" encoding="UTF-8" standalone="no"?>
<!DOCTYPE svg PUBLIC "-//W3C//DTD SVG 1.1//EN"
 "http://www.w3.org/Graphics/SVG/1.1/DTD/svg11.dtd">
<!-- Generated by graphviz version 2.40.1 (20161225.0304)
 -->
<!-- Title: dependencies Pages: 1 -->
<svg width="534pt" height="284pt"
 viewBox="0.00 0.00 534.00 284.00" xmlns="http://www.w3.org/2000/svg" xmlns:xlink="http://www.w3.org/1999/xlink">
<g id="graph0" class="graph" transform="scale(1 1) rotate(0) translate(4 280)">
<title>dependencies</title>
<polygon fill="#ffffff" stroke="transparent" points="-4,4 -4,-280 530,-280 530,4 -4,4"/>
<text text-anchor="start" x="242.0091" y="-42.4" font-family="sans-serif" font-weight="bold" font-size="14.00" fill="#000000">Legend</text>
<polygon fill="#ffffb3" stroke="transparent" points="29,-10 29,-30 49,-30 49,-10 29,-10"/>
<text text-anchor="start" x="52.629" y="-15.4" font-family="sans-serif" font-size="14.00" fill="#000000"> &#160;Declarations</text>
<polygon fill="#8dd3c7" stroke="transparent" points="142,-10 142,-30 162,-30 162,-10 142,-10"/>
<text text-anchor="start" x="165.7251" y="-15.4" font-family="sans-serif" font-size="14.00" fill="#000000"> &#160;Module</text>
<polygon fill="#80b1d3" stroke="transparent" points="228,-10 228,-30 248,-30 248,-10 228,-10"/>
<text text-anchor="start" x="251.7812" y="-15.4" font-family="sans-serif" font-size="14.00" fill="#000000"> &#160;Bootstrap</text>
<polygon fill="#fdb462" stroke="transparent" points="325,-10 325,-30 345,-30 345,-10 325,-10"/>
<text text-anchor="start" x="348.6732" y="-15.4" font-family="sans-serif" font-size="14.00" fill="#000000"> &#160;Providers</text>
<polygon fill="#fb8072" stroke="transparent" points="421,-10 421,-30 441,-30 441,-10 421,-10"/>
<text text-anchor="start" x="444.7258" y="-15.4" font-family="sans-serif" font-size="14.00" fill="#000000"> &#160;Exports</text>
<g id="clust1" class="cluster">
<title>cluster_L10nTranslationModule</title>
<polygon fill="none" stroke="#000000" stroke-dasharray="1,5" points="8,-70 8,-268 518,-268 518,-70 8,-70"/>
</g>
<g id="clust2" class="cluster">
<title>cluster_L10nTranslationModule_declarations</title>
<polygon fill="none" stroke="#000000" points="22,-78 22,-130 504,-130 504,-78 22,-78"/>
</g>
<g id="clust7" class="cluster">
<title>cluster_L10nTranslationModule_exports</title>
<polygon fill="none" stroke="#000000" points="16,-208 16,-260 510,-260 510,-208 16,-208"/>
</g>
<!-- L10nTranslateAsyncPipe -->
<g id="node1" class="node">
<title>L10nTranslateAsyncPipe</title>
<polygon fill="#ffffb3" stroke="#000000" points="496.2893,-122 337.7107,-122 337.7107,-86 496.2893,-86 496.2893,-122"/>
<text text-anchor="middle" x="417" y="-99.8" font-family="Times,serif" font-size="14.00" fill="#000000">L10nTranslateAsyncPipe</text>
</g>
<!-- L10nTranslationModule -->
<g id="node4" class="node">
<title>L10nTranslationModule</title>
<polygon fill="#8dd3c7" stroke="#000000" points="321.3613,-187 318.3613,-191 297.3613,-191 294.3613,-187 168.6387,-187 168.6387,-151 321.3613,-151 321.3613,-187"/>
<text text-anchor="middle" x="245" y="-164.8" font-family="Times,serif" font-size="14.00" fill="#000000">L10nTranslationModule</text>
</g>
<!-- L10nTranslateAsyncPipe&#45;&gt;L10nTranslationModule -->
<g id="edge1" class="edge">
<title>L10nTranslateAsyncPipe&#45;&gt;L10nTranslationModule</title>
<path fill="none" stroke="#000000" d="M444.1315,-122.0225C444.1315,-139.3734 444.1315,-163 444.1315,-163 444.1315,-163 331.4199,-163 331.4199,-163"/>
<polygon fill="#000000" stroke="#000000" points="331.42,-159.5001 321.4199,-163 331.4199,-166.5001 331.42,-159.5001"/>
</g>
<!-- L10nTranslateDirective -->
<g id="node2" class="node">
<title>L10nTranslateDirective</title>
<polygon fill="#ffffb3" stroke="#000000" points="319.7185,-122 170.2815,-122 170.2815,-86 319.7185,-86 319.7185,-122"/>
<text text-anchor="middle" x="245" y="-99.8" font-family="Times,serif" font-size="14.00" fill="#000000">L10nTranslateDirective</text>
</g>
<!-- L10nTranslateDirective&#45;&gt;L10nTranslationModule -->
<g id="edge2" class="edge">
<title>L10nTranslateDirective&#45;&gt;L10nTranslationModule</title>
<path fill="none" stroke="#000000" d="M245,-122.1061C245,-122.1061 245,-140.991 245,-140.991"/>
<polygon fill="#000000" stroke="#000000" points="241.5001,-140.9909 245,-150.991 248.5001,-140.991 241.5001,-140.9909"/>
</g>
<!-- L10nTranslatePipe -->
<g id="node3" class="node">
<title>L10nTranslatePipe</title>
<polygon fill="#ffffb3" stroke="#000000" points="152.0241,-122 29.9759,-122 29.9759,-86 152.0241,-86 152.0241,-122"/>
<text text-anchor="middle" x="91" y="-99.8" font-family="Times,serif" font-size="14.00" fill="#000000">L10nTranslatePipe</text>
</g>
<!-- L10nTranslatePipe&#45;&gt;L10nTranslationModule -->
<g id="edge3" class="edge">
<title>L10nTranslatePipe&#45;&gt;L10nTranslationModule</title>
<path fill="none" stroke="#000000" d="M109.9205,-122.0225C109.9205,-139.3734 109.9205,-163 109.9205,-163 109.9205,-163 158.3827,-163 158.3827,-163"/>
<polygon fill="#000000" stroke="#000000" points="158.3828,-166.5001 168.3827,-163 158.3827,-159.5001 158.3828,-166.5001"/>
</g>
<!-- L10nTranslateAsyncPipe  -->
<g id="node5" class="node">
<title>L10nTranslateAsyncPipe </title>
<polygon fill="#fb8072" stroke="#000000" points="501.7891,-252 340.2109,-252 340.2109,-216 501.7891,-216 501.7891,-252"/>
<text text-anchor="middle" x="421" y="-229.8" font-family="Times,serif" font-size="14.00" fill="#000000">L10nTranslateAsyncPipe </text>
</g>
<!-- L10nTranslationModule&#45;&gt;L10nTranslateAsyncPipe  -->
<g id="edge4" class="edge">
<title>L10nTranslationModule&#45;&gt;L10nTranslateAsyncPipe </title>
<path fill="none" stroke="#000000" stroke-dasharray="5,2" d="M321.5756,-175C357.3228,-175 392.1185,-175 392.1185,-175 392.1185,-175 392.1185,-205.9775 392.1185,-205.9775"/>
<polygon fill="#000000" stroke="#000000" points="388.6186,-205.9774 392.1185,-215.9775 395.6186,-205.9775 388.6186,-205.9774"/>
</g>
<!-- L10nTranslateDirective  -->
<g id="node6" class="node">
<title>L10nTranslateDirective </title>
<polygon fill="#fb8072" stroke="#000000" points="321.7184,-252 168.2816,-252 168.2816,-216 321.7184,-216 321.7184,-252"/>
<text text-anchor="middle" x="245" y="-229.8" font-family="Times,serif" font-size="14.00" fill="#000000">L10nTranslateDirective </text>
</g>
<!-- L10nTranslationModule&#45;&gt;L10nTranslateDirective  -->
<g id="edge5" class="edge">
<title>L10nTranslationModule&#45;&gt;L10nTranslateDirective </title>
<path fill="none" stroke="#000000" stroke-dasharray="5,2" d="M245,-187.1061C245,-187.1061 245,-205.991 245,-205.991"/>
<polygon fill="#000000" stroke="#000000" points="241.5001,-205.9909 245,-215.991 248.5001,-205.991 241.5001,-205.9909"/>
</g>
<!-- L10nTranslatePipe  -->
<g id="node7" class="node">
<title>L10nTranslatePipe </title>
<polygon fill="#fb8072" stroke="#000000" points="150.0232,-252 23.9768,-252 23.9768,-216 150.0232,-216 150.0232,-252"/>
<text text-anchor="middle" x="87" y="-229.8" font-family="Times,serif" font-size="14.00" fill="#000000">L10nTranslatePipe </text>
</g>
<!-- L10nTranslationModule&#45;&gt;L10nTranslatePipe  -->
<g id="edge6" class="edge">
<title>L10nTranslationModule&#45;&gt;L10nTranslatePipe </title>
<path fill="none" stroke="#000000" stroke-dasharray="5,2" d="M168.4225,-175C121.2868,-175 69.8295,-175 69.8295,-175 69.8295,-175 69.8295,-205.9775 69.8295,-205.9775"/>
<polygon fill="#000000" stroke="#000000" points="66.3296,-205.9774 69.8295,-215.9775 73.3296,-205.9775 66.3296,-205.9774"/>
</g>
</g>
</svg>
