<?xml version="1.0" encoding="UTF-8" standalone="no"?>
<!DOCTYPE svg PUBLIC "-//W3C//DTD SVG 1.1//EN"
 "http://www.w3.org/Graphics/SVG/1.1/DTD/svg11.dtd">
<!-- Generated by graphviz version 2.47.3 (20210619.1520)
 -->
<!-- Title: dependencies Pages: 1 -->
<svg width="534pt" height="247pt"
 viewBox="0.00 0.00 534.00 246.80" xmlns="http://www.w3.org/2000/svg" xmlns:xlink="http://www.w3.org/1999/xlink">
<g id="graph0" class="graph" transform="scale(1 1) rotate(0) translate(4 242.8)">
<title>dependencies</title>
<polygon fill="white" stroke="transparent" points="-4,4 -4,-242.8 530,-242.8 530,4 -4,4"/>
<text text-anchor="middle" x="263" y="-8.2" font-family="sans-serif" font-size="14.00">dependencies</text>
<g id="clust1" class="cluster">
<title>cluster_L10nTranslationModule</title>
<polygon fill="none" stroke="black" stroke-dasharray="1,5" points="8,-32.8 8,-230.8 518,-230.8 518,-32.8 8,-32.8"/>
</g>
<g id="clust2" class="cluster">
<title>cluster_L10nTranslationModule_declarations</title>
<polygon fill="none" stroke="black" points="22,-40.8 22,-92.8 504,-92.8 504,-40.8 22,-40.8"/>
</g>
<g id="clust7" class="cluster">
<title>cluster_L10nTranslationModule_exports</title>
<polygon fill="none" stroke="black" points="16,-170.8 16,-222.8 510,-222.8 510,-170.8 16,-170.8"/>
</g>
<!-- L10nTranslateAsyncPipe -->
<g id="node1" class="node">
<title>L10nTranslateAsyncPipe</title>
<polygon fill="#ffffb3" stroke="black" points="496.29,-84.8 337.71,-84.8 337.71,-48.8 496.29,-48.8 496.29,-84.8"/>
<text text-anchor="middle" x="417" y="-62.6" font-family="Times,serif" font-size="14.00">L10nTranslateAsyncPipe</text>
</g>
<!-- L10nTranslationModule -->
<g id="node4" class="node">
<title>L10nTranslationModule</title>
<polygon fill="#8dd3c7" stroke="black" points="321.36,-149.8 318.36,-153.8 297.36,-153.8 294.36,-149.8 168.64,-149.8 168.64,-113.8 321.36,-113.8 321.36,-149.8"/>
<text text-anchor="middle" x="245" y="-127.6" font-family="Times,serif" font-size="14.00">L10nTranslationModule</text>
</g>
<!-- L10nTranslateAsyncPipe&#45;&gt;L10nTranslationModule -->
<g id="edge1" class="edge">
<title>L10nTranslateAsyncPipe&#45;&gt;L10nTranslationModule</title>
<path fill="none" stroke="black" d="M444.13,-84.82C444.13,-102.17 444.13,-125.8 444.13,-125.8 444.13,-125.8 331.42,-125.8 331.42,-125.8"/>
<polygon fill="black" stroke="black" points="331.42,-122.3 321.42,-125.8 331.42,-129.3 331.42,-122.3"/>
</g>
<!-- L10nTranslateDirective -->
<g id="node2" class="node">
<title>L10nTranslateDirective</title>
<polygon fill="#ffffb3" stroke="black" points="319.72,-84.8 170.28,-84.8 170.28,-48.8 319.72,-48.8 319.72,-84.8"/>
<text text-anchor="middle" x="245" y="-62.6" font-family="Times,serif" font-size="14.00">L10nTranslateDirective</text>
</g>
<!-- L10nTranslateDirective&#45;&gt;L10nTranslationModule -->
<g id="edge2" class="edge">
<title>L10nTranslateDirective&#45;&gt;L10nTranslationModule</title>
<path fill="none" stroke="black" d="M245,-84.91C245,-84.91 245,-103.79 245,-103.79"/>
<polygon fill="black" stroke="black" points="241.5,-103.79 245,-113.79 248.5,-103.79 241.5,-103.79"/>
</g>
<!-- L10nTranslatePipe -->
<g id="node3" class="node">
<title>L10nTranslatePipe</title>
<polygon fill="#ffffb3" stroke="black" points="152.02,-84.8 29.98,-84.8 29.98,-48.8 152.02,-48.8 152.02,-84.8"/>
<text text-anchor="middle" x="91" y="-62.6" font-family="Times,serif" font-size="14.00">L10nTranslatePipe</text>
</g>
<!-- L10nTranslatePipe&#45;&gt;L10nTranslationModule -->
<g id="edge3" class="edge">
<title>L10nTranslatePipe&#45;&gt;L10nTranslationModule</title>
<path fill="none" stroke="black" d="M109.92,-84.82C109.92,-102.17 109.92,-125.8 109.92,-125.8 109.92,-125.8 158.38,-125.8 158.38,-125.8"/>
<polygon fill="black" stroke="black" points="158.38,-129.3 168.38,-125.8 158.38,-122.3 158.38,-129.3"/>
</g>
<!-- L10nTranslateAsyncPipe  -->
<g id="node5" class="node">
<title>L10nTranslateAsyncPipe </title>
<polygon fill="#fb8072" stroke="black" points="501.79,-214.8 340.21,-214.8 340.21,-178.8 501.79,-178.8 501.79,-214.8"/>
<text text-anchor="middle" x="421" y="-192.6" font-family="Times,serif" font-size="14.00">L10nTranslateAsyncPipe </text>
</g>
<!-- L10nTranslationModule&#45;&gt;L10nTranslateAsyncPipe  -->
<g id="edge4" class="edge">
<title>L10nTranslationModule&#45;&gt;L10nTranslateAsyncPipe </title>
<path fill="none" stroke="black" stroke-dasharray="5,2" d="M321.58,-137.8C357.32,-137.8 392.12,-137.8 392.12,-137.8 392.12,-137.8 392.12,-168.78 392.12,-168.78"/>
<polygon fill="black" stroke="black" points="388.62,-168.78 392.12,-178.78 395.62,-168.78 388.62,-168.78"/>
</g>
<!-- L10nTranslateDirective  -->
<g id="node6" class="node">
<title>L10nTranslateDirective </title>
<polygon fill="#fb8072" stroke="black" points="321.72,-214.8 168.28,-214.8 168.28,-178.8 321.72,-178.8 321.72,-214.8"/>
<text text-anchor="middle" x="245" y="-192.6" font-family="Times,serif" font-size="14.00">L10nTranslateDirective </text>
</g>
<!-- L10nTranslationModule&#45;&gt;L10nTranslateDirective  -->
<g id="edge5" class="edge">
<title>L10nTranslationModule&#45;&gt;L10nTranslateDirective </title>
<path fill="none" stroke="black" stroke-dasharray="5,2" d="M245,-149.91C245,-149.91 245,-168.79 245,-168.79"/>
<polygon fill="black" stroke="black" points="241.5,-168.79 245,-178.79 248.5,-168.79 241.5,-168.79"/>
</g>
<!-- L10nTranslatePipe  -->
<g id="node7" class="node">
<title>L10nTranslatePipe </title>
<polygon fill="#fb8072" stroke="black" points="150.02,-214.8 23.98,-214.8 23.98,-178.8 150.02,-178.8 150.02,-214.8"/>
<text text-anchor="middle" x="87" y="-192.6" font-family="Times,serif" font-size="14.00">L10nTranslatePipe </text>
</g>
<!-- L10nTranslationModule&#45;&gt;L10nTranslatePipe  -->
<g id="edge6" class="edge">
<title>L10nTranslationModule&#45;&gt;L10nTranslatePipe </title>
<path fill="none" stroke="black" stroke-dasharray="5,2" d="M168.42,-137.8C121.29,-137.8 69.83,-137.8 69.83,-137.8 69.83,-137.8 69.83,-168.78 69.83,-168.78"/>
<polygon fill="black" stroke="black" points="66.33,-168.78 69.83,-178.78 73.33,-168.78 66.33,-168.78"/>
</g>
</g>
</svg>
